<svg width="114" height="49" viewBox="0 0 114 49" fill="none" xmlns="http://www.w3.org/2000/svg">
<path d="M1.46943 47.7996C1.02415 47.7996 0.667924 47.6663 0.400754 47.3996C0.133585 47.133 0 46.7774 0 46.333V45.333C0 44.8885 0.111321 44.4663 0.333962 44.0663C0.601132 43.6219 1.04641 43.1108 1.66981 42.533L18.969 25.2663C20.6611 23.7108 21.9524 22.3552 22.843 21.1996C23.7336 20.0441 24.3347 18.9108 24.6464 17.7996C25.0026 16.6441 25.1807 15.3774 25.1807 13.9996C25.1807 11.0219 24.3124 8.68853 22.5758 6.99964C20.8838 5.31075 18.457 4.46631 15.2955 4.46631C13.2917 4.46631 11.5551 4.86631 10.0857 5.66631C8.61622 6.46631 7.45848 7.59964 6.61245 9.06631C5.76641 10.4885 5.20981 12.1552 4.94264 14.0663C4.89811 14.5996 4.69773 14.9996 4.34151 15.2663C3.98528 15.4885 3.67358 15.5996 3.40641 15.5996H2.07056C1.62528 15.5996 1.26906 15.4885 1.00189 15.2663C0.779245 14.9996 0.667924 14.6885 0.667924 14.333C0.712452 12.8219 1.02415 11.2663 1.60302 9.66631C2.18188 8.02187 3.05019 6.51075 4.20792 5.13297C5.41018 3.7552 6.92414 2.64409 8.7498 1.79964C10.5755 0.910753 12.7573 0.466309 15.2955 0.466309C18.6796 0.466309 21.3958 1.11075 23.4441 2.39964C25.537 3.68853 27.0509 5.3552 27.986 7.39964C28.9211 9.44409 29.3887 11.6441 29.3887 13.9996C29.3887 15.8219 29.1215 17.5108 28.5871 19.0663C28.0528 20.5774 27.2513 22.0663 26.1826 23.533C25.1139 24.9552 23.7558 26.4219 22.1083 27.933L6.47886 43.7996H28.8543C29.3441 43.7996 29.7226 43.933 29.9898 44.1996C30.257 44.4663 30.3905 44.8441 30.3905 45.333V46.333C30.3905 46.7774 30.257 47.133 29.9898 47.3996C29.7226 47.6663 29.3441 47.7996 28.8543 47.7996H1.46943Z" fill="#212121"/>
<path d="M54.4739 48.4663C51.446 48.4663 48.9079 47.9774 46.8596 46.9996C44.8558 46.0219 43.2305 44.6885 41.9837 42.9996C40.7815 41.2663 39.9131 39.2885 39.3788 37.0663C38.8445 34.8441 38.5328 32.5108 38.4437 30.0663C38.4437 28.8663 38.4215 27.6441 38.3769 26.3996C38.3769 25.1552 38.3769 23.9108 38.3769 22.6663C38.4215 21.3774 38.4437 20.1108 38.4437 18.8663C38.4882 16.4219 38.7777 14.0885 39.312 11.8663C39.8909 9.64409 40.7815 7.68853 41.9837 5.99964C43.2305 4.26631 44.8558 2.91075 46.8596 1.93298C48.9079 0.955198 51.446 0.466309 54.4739 0.466309C57.5018 0.466309 60.0177 0.955198 62.0214 1.93298C64.0697 2.91075 65.695 4.26631 66.8973 5.99964C68.1441 7.68853 69.0346 9.64409 69.569 11.8663C70.1478 14.0885 70.4595 16.4219 70.5041 18.8663C70.5486 20.1108 70.5709 21.3774 70.5709 22.6663C70.5709 23.9108 70.5709 25.1552 70.5709 26.3996C70.5709 27.6441 70.5486 28.8663 70.5041 30.0663C70.4595 32.5108 70.1478 34.8441 69.569 37.0663C69.0346 39.2885 68.1441 41.2663 66.8973 42.9996C65.695 44.6885 64.0697 46.0219 62.0214 46.9996C60.0177 47.9774 57.5018 48.4663 54.4739 48.4663ZM54.4739 44.4663C58.4369 44.4663 61.3758 43.1552 63.2905 40.533C65.2052 37.9108 66.2071 34.3108 66.2961 29.733C66.3407 28.4441 66.3629 27.2441 66.3629 26.133C66.3629 24.9774 66.3629 23.8441 66.3629 22.733C66.3629 21.5774 66.3407 20.3996 66.2961 19.1996C66.2071 14.7108 65.2052 11.133 63.2905 8.46631C61.3758 5.79964 58.4369 4.46631 54.4739 4.46631C50.5554 4.46631 47.6165 5.79964 45.6573 8.46631C43.7426 11.133 42.7407 14.7108 42.6516 19.1996C42.6516 20.3996 42.6294 21.5774 42.5848 22.733C42.5848 23.8441 42.5848 24.9774 42.5848 26.133C42.6294 27.2441 42.6516 28.4441 42.6516 29.733C42.7407 34.3108 43.7426 37.9108 45.6573 40.533C47.6165 43.1552 50.5554 44.4663 54.4739 44.4663Z" fill="#212121"/>
<path d="M95.4985 45.5996C95.0532 45.5996 94.697 45.4663 94.4298 45.1996C94.1627 44.933 94.0291 44.5774 94.0291 44.133V29.533H79.5351C79.0898 29.533 78.7336 29.3996 78.4664 29.133C78.1993 28.8663 78.0657 28.5108 78.0657 28.0663V27.133C78.0657 26.6885 78.1993 26.333 78.4664 26.0663C78.7336 25.7996 79.0898 25.6663 79.5351 25.6663H94.0291V11.4663C94.0291 11.0219 94.1627 10.6663 94.4298 10.3996C94.697 10.133 95.0532 9.99964 95.4985 9.99964H96.5004C96.9457 9.99964 97.3019 10.133 97.5691 10.3996C97.8362 10.6663 97.9698 11.0219 97.9698 11.4663V25.6663H112.531C112.976 25.6663 113.332 25.7996 113.599 26.0663C113.866 26.333 114 26.6885 114 27.133V28.0663C114 28.5108 113.866 28.8663 113.599 29.133C113.332 29.3996 112.976 29.533 112.531 29.533H97.9698V44.133C97.9698 44.5774 97.8362 44.933 97.5691 45.1996C97.3019 45.4663 96.9457 45.5996 96.5004 45.5996H95.4985Z" fill="#212121"/>
</svg>
