<svg width="386" height="192" viewBox="0 0 386 192" fill="none" xmlns="http://www.w3.org/2000/svg">
<g clip-path="url(#clip0_396_330)">
<path d="M249.25 77.8137H145.839L190.793 0L199.707 15.8633L173.229 61.6761H239.93L249.25 77.8137Z" fill="url(#paint0_linear_396_330)"/>
<path d="M217.513 23.1036L196.765 59.1965H183.91L211.091 11.9795L217.513 23.1036Z" fill="url(#paint1_linear_396_330)"/>
<path d="M219.752 25.199L230.719 44.1889H208.775L219.752 25.199Z" fill="url(#paint2_linear_396_330)"/>
<path d="M239.051 59.1968H217.107L208.775 46.2078H231.718L239.051 59.1968Z" fill="url(#paint3_linear_396_330)"/>
<path d="M6.33423 148.025L20.243 112.986H27.2908L41.0459 148.025H32.8016L22.2739 118.943H25.1062L14.4358 148.025H6.34521H6.33423ZM14.2272 141.673V135.322H33.3505V141.673H14.2272Z" fill="white"/>
<path d="M44.7671 148.025V112.986H52.5613V148.025H44.7671ZM50.7829 148.025V141.18H68.1168V148.025H50.7829Z" fill="white"/>
<path d="M87.3281 148.574C84.7154 148.574 82.2893 148.113 80.0499 147.213C77.8104 146.314 75.8564 145.019 74.1878 143.374C72.5191 141.717 71.2128 139.786 70.2907 137.592C69.3685 135.398 68.8965 133.018 68.8965 130.473C68.8965 127.927 69.3576 125.558 70.2907 123.353C71.2128 121.148 72.5082 119.239 74.1658 117.615C75.8234 115.991 77.7665 114.73 80.006 113.819C82.2454 112.909 84.6605 112.459 87.2842 112.459C90.0616 112.459 92.5426 112.898 94.7052 113.797C96.8788 114.686 98.7669 115.915 100.392 117.472L95.1772 122.727C94.2551 121.729 93.1354 120.961 91.829 120.402C90.5227 119.831 89.0077 119.557 87.2842 119.557C85.7583 119.557 84.3641 119.809 83.0907 120.325C81.8173 120.84 80.7195 121.575 79.8084 122.53C78.8972 123.495 78.1837 124.647 77.6677 126.008C77.1518 127.368 76.8993 128.86 76.8993 130.473C76.8993 132.085 77.1518 133.632 77.6677 134.992C78.1837 136.353 78.8972 137.505 79.8084 138.47C80.7195 139.435 81.8063 140.17 83.0907 140.708C84.3641 141.246 85.7693 141.509 87.2842 141.509C89.0736 141.509 90.6215 141.224 91.9498 140.664C93.2781 140.105 94.4197 139.326 95.3748 138.338L100.644 143.593C98.9536 145.151 97.0325 146.369 94.8589 147.268C92.6853 148.168 90.1823 148.607 87.3391 148.607L87.3281 148.574Z" fill="white"/>
<path d="M120.25 148.618C117.605 148.618 115.157 148.157 112.928 147.224C110.689 146.303 108.735 145.008 107.044 143.352C105.354 141.695 104.047 139.764 103.125 137.57C102.203 135.376 101.731 132.996 101.731 130.451C101.731 127.905 102.192 125.492 103.125 123.309C104.047 121.126 105.343 119.217 107 117.571C108.658 115.937 110.601 114.664 112.84 113.753C115.08 112.843 117.517 112.393 120.163 112.393C122.808 112.393 125.201 112.854 127.441 113.753C129.669 114.664 131.623 115.937 133.303 117.571C134.972 119.206 136.278 121.126 137.2 123.331C138.122 125.536 138.594 127.916 138.594 130.494C138.594 133.072 138.133 135.42 137.2 137.614C136.278 139.819 134.983 141.739 133.325 143.374C131.667 145.008 129.724 146.292 127.485 147.213C125.245 148.146 122.841 148.607 120.261 148.607L120.25 148.618ZM120.152 141.531C122.237 141.531 124.071 141.07 125.64 140.137C127.21 139.216 128.429 137.91 129.285 136.243C130.141 134.575 130.58 132.645 130.58 130.461C130.58 128.805 130.328 127.313 129.834 125.975C129.34 124.636 128.626 123.473 127.704 122.497C126.782 121.521 125.673 120.775 124.4 120.259C123.127 119.743 121.71 119.491 120.152 119.491C118.066 119.491 116.233 119.952 114.663 120.851C113.093 121.762 111.874 123.034 111.018 124.669C110.162 126.304 109.723 128.234 109.723 130.451C109.723 132.107 109.975 133.61 110.469 134.97C110.963 136.331 111.666 137.494 112.577 138.47C113.488 139.446 114.586 140.203 115.881 140.73C117.177 141.256 118.593 141.52 120.152 141.52V141.531Z" fill="white"/>
<path d="M139.318 119.787V112.986H169.068V119.787H139.318ZM150.296 148.025V113.49H158.09V148.025H150.296Z" fill="white"/>
<path d="M173.437 148.025V112.986H181.231V148.025H173.437ZM179.398 133.588V127.829H186.797C188.356 127.829 189.553 127.434 190.398 126.633C191.243 125.832 191.66 124.768 191.66 123.408C191.66 122.157 191.243 121.115 190.42 120.281C189.597 119.447 188.4 119.041 186.841 119.041H179.387V112.986H187.73C190.047 112.986 192.077 113.424 193.834 114.302C195.59 115.18 196.963 116.397 197.962 117.944C198.95 119.502 199.455 121.29 199.455 123.309C199.455 125.327 198.961 127.148 197.962 128.695C196.963 130.231 195.579 131.438 193.79 132.294C192.001 133.149 189.904 133.577 187.489 133.577H179.398V133.588ZM192.506 148.025L181.583 132.941L188.729 131.01L201.738 148.036H192.506V148.025Z" fill="white"/>
<path d="M201.398 148.025L215.307 112.986H222.354L236.11 148.025H227.865L217.338 118.943H220.17L209.5 148.025H201.409H201.398ZM209.291 141.673V135.322H228.414V141.673H209.291Z" fill="white"/>
<path d="M239.831 148.025V112.986H247.625V148.025H239.831ZM245.1 148.025V141.18H253.795C255.913 141.18 257.768 140.763 259.36 139.918C260.952 139.073 262.171 137.845 263.038 136.221C263.894 134.597 264.333 132.689 264.333 130.462C264.333 128.235 263.894 126.337 263.016 124.757C262.138 123.177 260.908 121.948 259.338 121.082C257.768 120.215 255.924 119.787 253.805 119.787H244.87V112.986H253.904C256.55 112.986 258.998 113.402 261.226 114.247C263.455 115.092 265.42 116.299 267.089 117.867C268.757 119.436 270.053 121.29 270.964 123.43C271.875 125.569 272.325 127.916 272.325 130.505C272.325 133.095 271.864 135.409 270.964 137.549C270.053 139.699 268.768 141.553 267.111 143.111C265.453 144.668 263.51 145.875 261.281 146.742C259.053 147.608 256.616 148.025 254.003 148.025H245.111H245.1Z" fill="white"/>
<path d="M277.276 148.025V112.986H285.07V148.025H277.276ZM283.237 119.689V112.986H302.207V119.689H283.237ZM283.237 133.391V126.885H300.714V133.391H283.237ZM283.237 148.025V141.278H302.459V148.025H283.237Z" fill="white"/>
<path d="M331.21 148.519C328.465 148.519 326.017 147.915 323.887 146.709C321.747 145.502 320.067 143.845 318.849 141.717C317.619 139.6 317.004 137.197 317.004 134.52V113.128H323.756V134.718C323.756 136.276 324.074 137.614 324.722 138.733C325.369 139.863 326.259 140.73 327.4 141.333C328.542 141.947 329.804 142.255 331.199 142.255C332.593 142.255 333.877 141.947 334.975 141.333C336.062 140.719 336.94 139.852 337.577 138.733C338.224 137.614 338.543 136.287 338.543 134.762V113.128H345.349V134.564C345.349 137.241 344.734 139.633 343.516 141.739C342.286 143.834 340.629 145.491 338.521 146.698C336.413 147.904 333.976 148.508 331.199 148.508L331.21 148.519Z" fill="white"/>
<path d="M348.192 148.025L362.243 113.139H367.754L381.762 148.025H374.56L363.736 119.392H366.217L355.24 148.025H348.192ZM355.635 141.53V135.87H374.407V141.53H355.635Z" fill="white"/>
<path d="M96.4282 191.051L102.016 177.174H104.211L109.788 191.051H106.923L102.62 179.653H103.608L99.2385 191.051H96.4282ZM99.3922 188.462V186.214H106.857V188.462H99.3922Z" fill="white"/>
<path d="M111.435 191.051V177.174H114.124V191.051H111.435ZM113.411 191.051V188.66H120.48V191.051H113.411Z" fill="white"/>
<path d="M127.945 191.249C126.935 191.249 125.991 191.062 125.124 190.7C124.257 190.338 123.499 189.834 122.841 189.175C122.193 188.528 121.688 187.76 121.337 186.894C120.985 186.027 120.81 185.094 120.81 184.085C120.81 183.076 120.985 182.154 121.337 181.277C121.688 180.41 122.182 179.653 122.841 179.006C123.488 178.359 124.246 177.854 125.113 177.481C125.98 177.108 126.924 176.932 127.945 176.932C129.054 176.932 130.031 177.119 130.865 177.47C131.711 177.832 132.457 178.326 133.094 178.962L131.272 180.783C130.887 180.366 130.426 180.037 129.866 179.796C129.318 179.554 128.67 179.445 127.934 179.445C127.287 179.445 126.705 179.554 126.167 179.774C125.629 179.993 125.168 180.311 124.773 180.717C124.378 181.134 124.07 181.628 123.862 182.198C123.653 182.769 123.543 183.394 123.543 184.085C123.543 184.776 123.653 185.413 123.862 185.983C124.07 186.553 124.378 187.036 124.773 187.453C125.168 187.87 125.629 188.188 126.167 188.408C126.705 188.627 127.287 188.748 127.934 188.748C128.714 188.748 129.383 188.627 129.943 188.397C130.503 188.155 130.975 187.826 131.359 187.387L133.182 189.208C132.534 189.856 131.788 190.349 130.931 190.711C130.075 191.062 129.076 191.249 127.945 191.249Z" fill="white"/>
<path d="M141.009 191.271C139.999 191.271 139.055 191.085 138.177 190.723C137.299 190.35 136.541 189.845 135.882 189.187C135.235 188.539 134.719 187.771 134.346 186.894C133.972 186.016 133.797 185.084 133.797 184.085C133.797 183.087 133.983 182.155 134.346 181.288C134.708 180.421 135.213 179.664 135.871 179.017C136.519 178.37 137.288 177.854 138.155 177.492C139.022 177.13 139.966 176.955 140.976 176.955C141.986 176.955 142.952 177.141 143.819 177.492C144.687 177.854 145.444 178.359 146.103 179.017C146.75 179.664 147.266 180.432 147.64 181.299C148.013 182.166 148.188 183.098 148.188 184.107C148.188 185.117 148.002 186.038 147.64 186.916C147.277 187.793 146.761 188.55 146.103 189.198C145.455 189.845 144.698 190.361 143.83 190.734C142.963 191.107 142.03 191.282 141.009 191.282V191.271ZM140.976 188.759C141.876 188.759 142.645 188.561 143.303 188.166C143.962 187.771 144.478 187.223 144.851 186.532C145.224 185.83 145.411 185.018 145.411 184.085C145.411 183.405 145.301 182.78 145.093 182.209C144.884 181.639 144.577 181.156 144.182 180.739C143.786 180.323 143.314 180.004 142.776 179.785C142.239 179.566 141.635 179.445 140.954 179.445C140.087 179.445 139.318 179.642 138.649 180.026C137.979 180.41 137.463 180.959 137.09 181.65C136.717 182.352 136.53 183.164 136.53 184.074C136.53 184.777 136.64 185.413 136.859 185.994C137.079 186.576 137.375 187.069 137.771 187.475C138.166 187.881 138.627 188.199 139.176 188.419C139.725 188.638 140.317 188.759 140.965 188.759H140.976Z" fill="white"/>
<path d="M150.318 191.051V177.174H153.007V191.051H150.318ZM152.019 185.062V182.692H159.781V185.062H152.019ZM159.034 191.051V177.174H161.724V191.051H159.034Z" fill="white"/>
<path d="M171.066 191.271C170.056 191.271 169.112 191.085 168.234 190.723C167.355 190.35 166.598 189.845 165.939 189.187C165.292 188.539 164.776 187.771 164.402 186.894C164.029 186.016 163.854 185.084 163.854 184.085C163.854 183.087 164.04 182.155 164.402 181.288C164.765 180.421 165.27 179.664 165.928 179.017C166.576 178.37 167.344 177.854 168.212 177.492C169.079 177.13 170.023 176.955 171.033 176.955C172.043 176.955 173.009 177.141 173.876 177.492C174.743 177.854 175.501 178.359 176.16 179.017C176.807 179.664 177.323 180.432 177.696 181.299C178.07 182.166 178.245 183.098 178.245 184.107C178.245 185.117 178.059 186.038 177.696 186.916C177.334 187.793 176.818 188.55 176.16 189.198C175.512 189.845 174.754 190.361 173.887 190.734C173.02 191.107 172.087 191.282 171.066 191.282V191.271ZM171.022 188.759C171.922 188.759 172.691 188.561 173.349 188.166C174.008 187.771 174.524 187.223 174.897 186.532C175.27 185.83 175.457 185.018 175.457 184.085C175.457 183.405 175.347 182.78 175.139 182.209C174.93 181.639 174.623 181.156 174.228 180.739C173.832 180.323 173.36 180.004 172.822 179.785C172.284 179.566 171.681 179.445 171 179.445C170.133 179.445 169.364 179.642 168.695 180.026C168.025 180.41 167.509 180.959 167.136 181.65C166.763 182.352 166.576 183.164 166.576 184.074C166.576 184.777 166.686 185.413 166.905 185.994C167.125 186.576 167.421 187.069 167.816 187.475C168.212 187.881 168.673 188.199 169.222 188.419C169.771 188.638 170.363 188.759 171.011 188.759H171.022Z" fill="white"/>
<path d="M180.375 191.051V177.174H183.065V191.051H180.375ZM182.351 191.051V188.66H189.421V191.051H182.351Z" fill="white"/>
<path d="M201.496 191.249C200.486 191.249 199.542 191.062 198.664 190.7C197.797 190.338 197.039 189.834 196.38 189.175C195.733 188.528 195.228 187.76 194.877 186.894C194.525 186.027 194.35 185.094 194.35 184.085C194.35 183.076 194.525 182.154 194.877 181.277C195.228 180.41 195.722 179.653 196.38 179.006C197.028 178.359 197.786 177.854 198.653 177.481C199.52 177.108 200.464 176.932 201.485 176.932C202.594 176.932 203.56 177.119 204.405 177.47C205.251 177.832 205.997 178.326 206.634 178.962L204.811 180.783C204.427 180.366 203.966 180.037 203.406 179.796C202.846 179.554 202.21 179.445 201.474 179.445C200.826 179.445 200.234 179.554 199.707 179.774C199.169 179.993 198.708 180.311 198.313 180.717C197.917 181.123 197.61 181.628 197.401 182.198C197.193 182.769 197.083 183.394 197.083 184.085C197.083 184.776 197.193 185.413 197.401 185.983C197.61 186.553 197.917 187.036 198.313 187.453C198.708 187.87 199.169 188.188 199.707 188.408C200.245 188.627 200.826 188.748 201.474 188.748C202.254 188.748 202.923 188.627 203.483 188.397C204.043 188.166 204.515 187.826 204.899 187.387L206.722 189.208C206.074 189.856 205.327 190.349 204.471 190.711C203.615 191.062 202.616 191.249 201.485 191.249H201.496Z" fill="white"/>
<path d="M214.56 191.271C213.55 191.271 212.595 191.085 211.728 190.723C210.861 190.361 210.092 189.845 209.433 189.187C208.775 188.528 208.27 187.771 207.908 186.894C207.534 186.016 207.359 185.084 207.359 184.085C207.359 183.087 207.534 182.155 207.897 181.288C208.259 180.421 208.764 179.664 209.422 179.017C210.07 178.37 210.839 177.854 211.706 177.492C212.573 177.13 213.517 176.955 214.527 176.955C215.537 176.955 216.503 177.141 217.37 177.492C218.238 177.854 218.995 178.359 219.654 179.017C220.301 179.664 220.817 180.432 221.191 181.299C221.564 182.166 221.74 183.098 221.74 184.107C221.74 185.117 221.553 186.038 221.191 186.916C220.828 187.793 220.312 188.55 219.654 189.198C219.006 189.845 218.249 190.361 217.381 190.734C216.514 191.107 215.581 191.282 214.56 191.282V191.271ZM214.516 188.759C215.416 188.759 216.185 188.561 216.843 188.166C217.502 187.771 218.018 187.223 218.391 186.532C218.765 185.83 218.951 185.018 218.951 184.085C218.951 183.405 218.841 182.78 218.633 182.209C218.424 181.639 218.117 181.156 217.722 180.739C217.326 180.323 216.854 180.004 216.316 179.785C215.779 179.566 215.175 179.445 214.494 179.445C213.627 179.445 212.858 179.642 212.189 180.026C211.519 180.41 211.003 180.959 210.63 181.65C210.257 182.352 210.07 183.164 210.07 184.074C210.07 184.777 210.18 185.413 210.399 185.994C210.619 186.576 210.915 187.069 211.311 187.475C211.695 187.881 212.167 188.199 212.716 188.419C213.265 188.638 213.857 188.759 214.505 188.759H214.516Z" fill="white"/>
<path d="M223.869 191.051V177.174H225.768L231.4 186.181H230.313L235.923 177.174H237.822V191.051H235.154V181.77L235.67 181.924L231.762 188.199H229.94L226.032 181.924L226.57 181.77V191.051H223.88H223.869Z" fill="white"/>
<path d="M240.665 191.051V177.174H243.355V191.051H240.665ZM242.641 185.895V183.701H245.858C246.275 183.701 246.659 183.614 246.999 183.449C247.34 183.273 247.614 183.032 247.812 182.703C248.009 182.385 248.108 181.99 248.108 181.529C248.108 181.068 248.009 180.695 247.812 180.366C247.614 180.037 247.34 179.785 246.999 179.62C246.659 179.445 246.275 179.368 245.858 179.368H242.641V177.174H246.143C247.021 177.174 247.823 177.349 248.525 177.711C249.228 178.062 249.788 178.567 250.194 179.225C250.6 179.884 250.808 180.651 250.808 181.551C250.808 182.451 250.6 183.219 250.194 183.877C249.788 184.524 249.228 185.029 248.525 185.391C247.823 185.742 247.021 185.928 246.143 185.928H242.641V185.895Z" fill="white"/>
<path d="M250.644 191.051L256.231 177.174H258.427L264.004 191.051H261.139L256.835 179.653H257.823L253.454 191.051H250.644ZM253.608 188.462V186.214H261.073V188.462H253.608Z" fill="white"/>
<path d="M265.639 191.052V177.174H267.516L268.329 179.862V191.063H265.639V191.052ZM275.245 191.052L267 180.388L267.516 177.174L275.761 187.837L275.245 191.052ZM275.245 191.052L274.476 188.441V177.163H277.188V191.041H275.256L275.245 191.052Z" fill="white"/>
<path d="M284.312 185.698L278.933 177.163H282.04L286.212 183.998H284.433L288.605 177.163H291.668L286.234 185.698H284.312ZM283.95 191.052V184.261H286.662V191.052H283.95Z" fill="white"/>
<path d="M1.64648 184.107H84.77" stroke="white" stroke-width="2.94262" stroke-linecap="round" stroke-linejoin="round"/>
<path d="M300.714 184.107H383.837" stroke="white" stroke-width="2.94262" stroke-linecap="round" stroke-linejoin="round"/>
</g>
<defs>
<linearGradient id="paint0_linear_396_330" x1="161.844" y1="20.5984" x2="233.938" y2="69.1516" gradientUnits="userSpaceOnUse">
<stop stop-color="#FFE298"/>
<stop offset="1" stop-color="#CDA237"/>
</linearGradient>
<linearGradient id="paint1_linear_396_330" x1="189.111" y1="24.4785" x2="219.244" y2="35.346" gradientUnits="userSpaceOnUse">
<stop stop-color="#FFE298"/>
<stop offset="1" stop-color="#CDA237"/>
</linearGradient>
<linearGradient id="paint2_linear_396_330" x1="212.171" y1="30.2259" x2="228.73" y2="39.9232" gradientUnits="userSpaceOnUse">
<stop stop-color="#FFE298"/>
<stop offset="1" stop-color="#CDA237"/>
</linearGradient>
<linearGradient id="paint3_linear_396_330" x1="213.461" y1="49.6461" x2="226.269" y2="64.7765" gradientUnits="userSpaceOnUse">
<stop stop-color="#FFE298"/>
<stop offset="1" stop-color="#CDA237"/>
</linearGradient>
<clipPath id="clip0_396_330">
<rect width="385.484" height="191.271" fill="white"/>
</clipPath>
</defs>
</svg>
