<svg width="26" height="346" viewBox="0 0 26 346" fill="none" xmlns="http://www.w3.org/2000/svg">
<path d="M15.3143 26.2472C17.1193 23.7603 17.1193 20.4481 15.3143 17.9612L13.24 14.3033L11.1665 17.9604C9.36143 20.4473 9.36144 23.7595 11.1657 26.2472L12.0754 27.85L12.0754 344.721C12.0754 345.344 12.5788 345.848 13.2018 345.848C13.5124 345.848 13.7944 345.722 13.9983 345.518C14.2023 345.314 14.3281 345.032 14.3281 344.721L14.3281 27.987L15.3143 26.2472ZM13.0185 24.9647C11.7512 23.2545 11.7504 20.9547 13.0185 19.2453L13.24 18.8708L13.4606 19.2444C14.728 20.9547 14.7288 23.2545 13.4606 24.9639L13.2392 25.3383L13.0185 24.9647Z" fill="#0D0C0C"/>
<path d="M11.4366 32.7633L10.3182 28.7119C9.83547 25.6769 7.49353 23.3333 4.45856 22.8521L0.405565 21.7321L1.52556 25.7852C2.00669 28.8202 4.34943 31.1629 7.3852 31.6449L11.4366 32.7633ZM3.74323 25.3821L3.6357 24.9607L4.05629 25.0691C6.16165 25.3821 7.78747 27.008 8.10133 29.1141L8.20886 29.5339L7.78906 29.4264C5.68131 29.1125 4.05549 27.4867 3.74323 25.3821Z" fill="#0D0C0C"/>
<path d="M16.0862 28.7126L14.967 32.7649L19.0192 31.6457C20.5375 31.4051 21.8814 30.6985 22.9066 29.6733C23.9318 28.6481 24.6383 27.3043 24.8789 25.786L25.9989 21.7329L21.9459 22.8529C18.9109 23.3325 16.5682 25.6753 16.0862 28.7126ZM22.6612 25.3829C22.3482 27.4883 20.7223 29.1141 18.617 29.4272L18.1964 29.5355L18.3047 29.1149C18.6178 27.0064 20.2428 25.3813 22.3489 25.0706L22.7695 24.9623L22.6612 25.3829Z" fill="#0D0C0C"/>
<path d="M11.4374 42.903L10.3174 38.85C9.83547 35.8142 7.49433 33.473 4.45856 32.9911L0.405565 31.8711L1.52555 35.9241C2.00828 38.959 4.34943 41.3003 7.3844 41.783L11.4374 42.903ZM3.74323 35.521L3.6349 35.1004L4.05629 35.208C6.16165 35.521 7.78747 37.1469 8.09973 39.2514L8.20727 39.6728L7.78667 39.5645C5.68211 39.2522 4.05629 37.6264 3.74323 35.521Z" fill="#0D0C0C"/>
<path d="M16.0862 38.8499L14.967 42.9022L19.0192 41.783C20.5375 41.5424 21.8814 40.8358 22.9073 39.8098C23.9325 38.7846 24.6391 37.4408 24.8805 35.9217L25.9989 31.8703L21.9475 32.9887C18.9109 33.473 16.5689 35.815 16.0862 38.8499ZM22.6612 35.5202C22.3482 37.6287 20.7215 39.2522 18.6162 39.5653L18.1956 39.6736L18.3039 39.2531C18.6185 37.1477 20.2436 35.521 22.3489 35.208L22.7695 35.0996L22.6612 35.5202Z" fill="#0D0C0C"/>
<path d="M11.4374 53.0419L10.3174 48.9889C9.83546 45.9548 7.49352 43.6128 4.45775 43.1292L0.406348 42.0108L1.52475 46.0623C2.00668 49.098 4.34942 51.4407 7.38439 51.9219L11.4374 53.0419ZM3.74163 45.6584L3.63409 45.2386L4.05389 45.3461C6.16084 45.6608 7.78666 47.2866 8.09892 49.3912L8.20726 49.8118L7.78586 49.7042C5.6813 49.392 4.05548 47.7662 3.74163 45.6584Z" fill="#0D0C0C"/>
<path d="M16.0862 48.9889L14.967 53.0411L19.0192 51.9219C20.5367 51.6805 21.8814 50.9748 22.9065 49.9496C23.9317 48.9244 24.6375 47.5797 24.8789 46.0623L25.9981 42.01L21.9459 43.1292C18.9117 43.6128 16.5697 45.9548 16.0862 48.9889ZM22.6612 45.6592C22.3481 47.7645 20.7239 49.3904 18.6162 49.7042L18.1956 49.8126L18.3039 49.392C18.6178 47.2858 20.2436 45.66 22.3489 45.3469L22.7695 45.2386L22.6612 45.6592Z" fill="#0D0C0C"/>
<path d="M11.4358 63.1791L10.3174 59.1277C9.83546 56.092 7.49352 53.75 4.45775 53.2681L0.406346 52.1497L1.52474 56.2011C2.00747 59.2361 4.34942 61.578 7.38439 62.0607L11.4358 63.1791ZM3.74242 55.798L3.63489 55.3782L4.05468 55.4858C6.16164 55.8004 7.78666 57.4254 8.10051 59.5316L8.20805 59.9514L7.78825 59.8438C5.6813 59.5292 4.05628 57.9042 3.74242 55.798Z" fill="#0D0C0C"/>
<path d="M16.0854 59.1285L14.9662 63.1807L19.0185 62.0615C20.5367 61.8209 21.8806 61.1144 22.9058 60.0892C23.931 59.064 24.6375 57.7202 24.8781 56.2019L25.9973 52.1497L21.9451 53.2689C18.9101 53.7501 16.5682 56.092 16.0854 59.1285ZM22.662 55.7988C22.3482 57.905 20.7223 59.5308 18.617 59.8438L18.1964 59.9522L18.3047 59.5316C18.617 57.4238 20.2428 55.798 22.3498 55.4866L22.7704 55.3782L22.662 55.7988Z" fill="#0D0C0C"/>
<path d="M11.4374 73.3195L10.3174 69.2665C9.83546 66.2308 7.49431 63.8896 4.45854 63.4077L0.40475 62.2869L1.52474 66.3399C2.00667 69.3757 4.34782 71.7168 7.38359 72.1988L11.4374 73.3195ZM3.74242 65.9384L3.63488 65.5171L4.05627 65.6246C6.16163 65.9376 7.78745 67.5635 8.09971 69.668L8.20725 70.0894L7.78586 69.9819C5.6805 69.6688 4.05468 68.043 3.74242 65.9384Z" fill="#0D0C0C"/>
<path d="M16.0862 69.2665L14.967 73.3188L19.0192 72.1996C20.5375 71.959 21.8814 71.2524 22.9066 70.2272C23.9325 69.2012 24.6383 67.8582 24.8797 66.3391L25.9989 62.2869L21.9467 63.4061C18.9117 63.8889 16.5697 66.2308 16.0862 69.2665ZM22.6612 65.9368C22.3489 68.0446 20.7231 69.6704 18.6162 69.9819L18.1956 70.0902L18.3039 69.6696C18.6178 67.5635 20.2428 65.9384 22.3489 65.6246L22.7695 65.5163L22.6612 65.9368Z" fill="#0D0C0C"/>
<path d="M5.23043 20.8519C5.43435 20.648 5.56021 20.366 5.56021 20.0553L5.56021 11.0428C5.56021 10.4199 5.05677 9.91641 4.43385 9.91641C3.81092 9.91641 3.30749 10.4199 3.30749 11.0428L3.30748 20.0553C3.30748 20.6783 3.81092 21.1817 4.43385 21.1817C4.74531 21.1809 5.02651 21.0559 5.23043 20.8519Z" fill="#0D0C0C"/>
<path d="M8.94012 18.9282C9.25078 18.9282 9.53277 18.8023 9.73669 18.5984C9.94062 18.3945 10.0665 18.1125 10.0665 17.8018L10.0665 6.53653C10.0665 5.9136 9.56304 5.41019 8.94012 5.41019C8.31719 5.41019 7.81375 5.9136 7.81375 6.53653L7.81375 17.8018C7.81296 18.4239 8.31719 18.9282 8.94012 18.9282Z" fill="#0D0C0C"/>
<path d="M16.8262 6.53653L16.8262 17.8018C16.8262 18.4247 17.3297 18.9282 17.9526 18.9282C18.2633 18.9282 18.5453 18.8023 18.7492 18.5984C18.9531 18.3945 19.079 18.1125 19.079 17.8018L19.079 6.53653C19.079 5.9136 18.5755 5.41019 17.9526 5.41019C17.3297 5.41019 16.8262 5.9136 16.8262 6.53653Z" fill="#0D0C0C"/>
<path d="M13.4463 13.2955C13.757 13.2955 14.039 13.1697 14.2429 12.9657C14.4468 12.7618 14.5727 12.4798 14.5727 12.1692L14.5727 2.0303C14.5727 1.40738 14.0693 0.90393 13.4463 0.90393C12.8234 0.90393 12.32 1.40738 12.32 2.0303L12.32 12.1692C12.3192 12.7913 12.8234 13.2955 13.4463 13.2955Z" fill="#0D0C0C"/>
<path d="M21.3325 11.0428L21.3317 20.0546C21.3317 20.6775 21.8351 21.1809 22.4581 21.1809C22.7687 21.1809 23.0507 21.055 23.2546 20.8511C23.4586 20.6472 23.5844 20.3652 23.5844 20.0546L23.5852 11.0428C23.5852 10.4199 23.0818 9.91641 22.4589 9.91641C21.8359 9.91641 21.3325 10.4199 21.3325 11.0428Z" fill="#0D0C0C"/>
<path d="M11.4374 85.0365L10.3174 80.9835C9.83546 77.9477 7.49431 75.6066 4.45854 75.1246L0.40475 74.0038L1.52474 78.0568C2.00667 81.0926 4.34782 83.4337 7.38359 83.9157L11.4374 85.0365ZM3.74242 77.6553L3.63488 77.2339L4.05627 77.3415C6.16163 77.6545 7.78745 79.2804 8.09971 81.3849L8.20725 81.8063L7.78586 81.6988C5.6805 81.3857 4.05468 79.7599 3.74242 77.6553Z" fill="#0D0C0C"/>
<path d="M16.0862 80.9835L14.967 85.0356L19.0192 83.9165C20.5375 83.6759 21.8814 82.9693 22.9066 81.9441C23.9325 80.9181 24.6383 79.5751 24.8797 78.056L25.9989 74.0038L21.9467 75.123C18.9117 75.6058 16.5697 77.9477 16.0862 80.9835ZM22.6612 77.6537C22.3489 79.7615 20.7231 81.3873 18.6162 81.6988L18.1956 81.8071L18.3039 81.3865C18.6178 79.2804 20.2428 77.6553 22.3489 77.3415L22.7695 77.2332L22.6612 77.6537Z" fill="#0D0C0C"/>
<path d="M11.4373 96.0691L10.3173 92.0161C9.83539 88.9803 7.49424 86.6392 4.45847 86.1572L0.404679 85.0364L1.52467 89.0894C2.0066 92.1252 4.34775 94.4664 7.38351 94.9483L11.4373 96.0691ZM3.74235 88.688L3.63481 88.2666L4.0562 88.3741C6.16156 88.6872 7.78738 90.313 8.09964 92.4176L8.20718 92.8389L7.78579 92.7314C5.68043 92.4183 4.05461 90.7925 3.74235 88.688Z" fill="#0D0C0C"/>
<path d="M16.0861 92.0161L14.967 96.0683L19.0192 94.9491C20.5375 94.7085 21.8813 94.0019 22.9065 92.9767C23.9325 91.9508 24.6382 90.6077 24.8796 89.0886L25.9988 85.0364L21.9466 86.1556C18.9116 86.6384 16.5697 88.9803 16.0861 92.0161ZM22.6611 88.6864C22.3489 90.7941 20.723 92.42 18.6161 92.7314L18.1955 92.8397L18.3038 92.4191C18.6177 90.313 20.2427 88.688 22.3489 88.3741L22.7695 88.2658L22.6611 88.6864Z" fill="#0D0C0C"/>
<path d="M11.4358 107.102L10.3158 103.049C9.83391 100.013 7.49276 97.6718 4.457 97.1898L0.403207 96.0691L1.5232 100.122C2.00513 103.158 4.34628 105.499 7.38204 105.981L11.4358 107.102ZM3.74087 99.7206L3.63334 99.2992L4.05473 99.4067C6.16009 99.7198 7.78591 101.346 8.09817 103.45L8.20571 103.872L7.78432 103.764C5.67895 103.451 4.05313 101.825 3.74087 99.7206Z" fill="#0D0C0C"/>
<path d="M16.0847 103.049L14.9655 107.101L19.0177 105.982C20.536 105.741 21.8798 105.035 22.905 104.009C23.931 102.983 24.6368 101.64 24.8781 100.121L25.9973 96.0691L21.9451 97.1883C18.9102 97.671 16.5682 100.013 16.0847 103.049ZM22.6597 99.719C22.3474 101.827 20.7216 103.453 18.6146 103.764L18.194 103.872L18.3024 103.452C18.6162 101.346 20.2412 99.7206 22.3474 99.4067L22.768 99.2984L22.6597 99.719Z" fill="#0D0C0C"/>
<path d="M11.4358 118.134L10.3159 114.081C9.83392 111.046 7.49278 108.704 4.45701 108.222L0.403218 107.102L1.52321 111.155C2.00514 114.19 4.34629 116.532 7.38205 117.014L11.4358 118.134ZM3.74089 110.753L3.63335 110.332L4.05474 110.439C6.1601 110.752 7.78592 112.378 8.09818 114.483L8.20572 114.904L7.78433 114.797C5.67897 114.484 4.05314 112.858 3.74089 110.753Z" fill="#0D0C0C"/>
<path d="M16.0847 114.081L14.9655 118.134L19.0177 117.014C20.536 116.774 21.8798 116.067 22.905 115.042C23.931 114.016 24.6368 112.673 24.8782 111.154L25.9973 107.102L21.9451 108.221C18.9102 108.704 16.5682 111.046 16.0847 114.081ZM22.6597 110.752C22.3474 112.859 20.7216 114.485 18.6146 114.797L18.194 114.905L18.3024 114.484C18.6162 112.378 20.2413 110.753 22.3474 110.439L22.768 110.331L22.6597 110.752Z" fill="#0D0C0C"/>
<path d="M11.439 129.167L10.319 125.114C9.83706 122.078 7.49591 119.737 4.46014 119.255L0.406351 118.134L1.52634 122.187C2.00827 125.223 4.34942 127.564 7.38519 128.046L11.439 129.167ZM3.74402 121.786L3.63648 121.365L4.05787 121.472C6.16323 121.785 7.78905 123.411 8.10131 125.516L8.20885 125.937L7.78746 125.829C5.6821 125.516 4.05628 123.891 3.74402 121.786Z" fill="#0D0C0C"/>
<path d="M16.0878 125.114L14.9686 129.166L19.0208 128.047C20.5391 127.807 21.883 127.1 22.9082 126.075C23.9342 125.049 24.6399 123.706 24.8813 122.187L26.0005 118.134L21.9483 119.254C18.9133 119.736 16.5713 122.078 16.0878 125.114ZM22.6628 121.784C22.3506 123.892 20.7247 125.518 18.6178 125.829L18.1972 125.938L18.3055 125.517C18.6194 123.411 20.2444 121.786 22.3506 121.472L22.7711 121.364L22.6628 121.784Z" fill="#0D0C0C"/>
<path d="M11.439 140.199L10.319 136.146C9.83703 133.11 7.49589 130.769 4.46012 130.287L0.406329 129.166L1.52632 133.219C2.00825 136.255 4.3494 138.596 7.38516 139.078L11.439 140.199ZM3.744 132.818L3.63646 132.397L4.05785 132.504C6.16321 132.817 7.78903 134.443 8.10129 136.548L8.20883 136.969L7.78744 136.861C5.68208 136.548 4.05626 134.922 3.744 132.818Z" fill="#0D0C0C"/>
<path d="M16.0878 136.146L14.9686 140.198L19.0208 139.079C20.5391 138.839 21.8829 138.132 22.9081 137.107C23.9341 136.081 24.6399 134.738 24.8813 133.219L26.0005 129.166L21.9483 130.286C18.9133 130.768 16.5713 133.11 16.0878 136.146ZM22.6628 132.816C22.3505 134.924 20.7247 136.55 18.6178 136.861L18.1971 136.97L18.3055 136.549C18.6193 134.443 20.2444 132.818 22.3505 132.504L22.7711 132.396L22.6628 132.816Z" fill="#0D0C0C"/>
<path d="M11.439 151.232L10.319 147.179C9.83708 144.143 7.49593 141.802 4.46017 141.32L0.406377 140.199L1.52637 144.252C2.0083 147.288 4.34945 149.629 7.38521 150.111L11.439 151.232ZM3.74404 143.851L3.63651 143.429L4.0579 143.537C6.16326 143.85 7.78908 145.476 8.10134 147.58L8.20888 148.002L7.78748 147.894C5.68212 147.581 4.0563 145.955 3.74404 143.851Z" fill="#0D0C0C"/>
<path d="M16.0878 147.179L14.9687 151.231L19.0209 150.112C20.5392 149.871 21.883 149.165 22.9082 148.139C23.9342 147.113 24.6399 145.77 24.8813 144.251L26.0005 140.199L21.9483 141.318C18.9133 141.801 16.5714 144.143 16.0878 147.179ZM22.6628 143.849C22.3506 145.957 20.7248 147.583 18.6178 147.894L18.1972 148.002L18.3055 147.582C18.6194 145.476 20.2444 143.851 22.3506 143.537L22.7712 143.428L22.6628 143.849Z" fill="#0D0C0C"/>
<path d="M11.439 162.264L10.319 158.211C9.83708 155.175 7.49594 152.834 4.46017 152.352L0.406377 151.231L1.52637 155.284C2.0083 158.32 4.34945 160.661 7.38521 161.143L11.439 162.264ZM3.74404 154.883L3.63651 154.461L4.0579 154.569C6.16326 154.882 7.78908 156.508 8.10134 158.612L8.20888 159.033L7.78748 158.926C5.68212 158.613 4.0563 156.987 3.74404 154.883Z" fill="#0D0C0C"/>
<path d="M16.0878 158.211L14.9687 162.263L19.0209 161.144C20.5392 160.903 21.883 160.196 22.9082 159.171C23.9342 158.145 24.6399 156.802 24.8813 155.283L26.0005 151.231L21.9483 152.35C18.9133 152.833 16.5714 155.175 16.0878 158.211ZM22.6628 154.881C22.3506 156.989 20.7248 158.615 18.6178 158.926L18.1972 159.034L18.3055 158.614C18.6194 156.508 20.2444 154.883 22.3506 154.569L22.7712 154.46L22.6628 154.881Z" fill="#0D0C0C"/>
<path d="M11.0322 173.295L9.91222 169.242C9.43028 166.207 7.08913 163.866 4.05337 163.384L-0.000427124 162.263L1.11956 166.316C1.60149 169.352 3.94264 171.693 6.97841 172.175L11.0322 173.295ZM3.33724 165.914L3.2297 165.493L3.65109 165.6C5.75645 165.914 7.38227 167.539 7.69453 169.644L7.80207 170.065L7.38068 169.958C5.27532 169.645 3.6495 168.019 3.33724 165.914Z" fill="#0D0C0C"/>
<path d="M15.6811 169.242L14.5619 173.295L18.6141 172.175C20.1323 171.935 21.4762 171.228 22.5014 170.203C23.5274 169.177 24.2331 167.834 24.4745 166.315L25.5937 162.263L21.5415 163.382C18.5065 163.865 16.1646 166.207 15.6811 169.242ZM22.256 165.913C21.9438 168.02 20.3179 169.646 18.211 169.958L17.7904 170.066L17.8987 169.646C18.2126 167.539 19.8376 165.914 21.9438 165.6L22.3644 165.492L22.256 165.913Z" fill="#0D0C0C"/>
<path d="M11.0322 184.328L9.91222 180.275C9.43029 177.239 7.08913 174.898 4.05337 174.416L-0.000426642 173.295L1.11956 177.349C1.60149 180.384 3.94264 182.725 6.97841 183.207L11.0322 184.328ZM3.33724 176.947L3.22971 176.526L3.65109 176.633C5.75645 176.946 7.38227 178.572 7.69453 180.677L7.80207 181.098L7.38068 180.991C5.27532 180.677 3.6495 179.052 3.33724 176.947Z" fill="#0D0C0C"/>
<path d="M15.6811 180.275L14.5619 184.327L18.6141 183.208C20.1323 182.968 21.4762 182.261 22.5014 181.236C23.5274 180.21 24.2331 178.867 24.4745 177.348L25.5937 173.295L21.5415 174.415C18.5065 174.897 16.1646 177.239 15.6811 180.275ZM22.256 176.945C21.9438 179.053 20.3179 180.679 18.211 180.991L17.7904 181.099L17.8987 180.678C18.2126 178.572 19.8376 176.947 21.9438 176.633L22.3644 176.525L22.256 176.945Z" fill="#0D0C0C"/>
<path d="M11.4358 195.668L10.3158 191.615C9.83392 188.579 7.49277 186.238 4.457 185.756L0.403211 184.635L1.5232 188.688C2.00513 191.724 4.34628 194.065 7.38205 194.547L11.4358 195.668ZM3.74088 188.287L3.63334 187.865L4.05473 187.973C6.16009 188.286 7.78591 189.912 8.09817 192.016L8.20571 192.438L7.78432 192.33C5.67896 192.017 4.05314 190.391 3.74088 188.287Z" fill="#0D0C0C"/>
<path d="M16.0847 191.615L14.9655 195.667L19.0177 194.548C20.536 194.307 21.8798 193.601 22.905 192.575C23.931 191.55 24.6368 190.206 24.8781 188.687L25.9973 184.635L21.9451 185.754C18.9102 186.237 16.5682 188.579 16.0847 191.615ZM22.6597 188.285C22.3474 190.393 20.7216 192.019 18.6146 192.33L18.194 192.438L18.3024 192.018C18.6162 189.912 20.2413 188.287 22.3474 187.973L22.768 187.865L22.6597 188.285Z" fill="#0D0C0C"/>
<path d="M11.4358 206.701L10.3159 202.647C9.83393 199.612 7.49278 197.271 4.45701 196.789L0.403222 195.668L1.52321 199.721C2.00514 202.757 4.34629 205.098 7.38206 205.58L11.4358 206.701ZM3.74089 199.319L3.63335 198.898L4.05474 199.006C6.1601 199.319 7.78592 200.944 8.09818 203.049L8.20572 203.47L7.78433 203.363C5.67897 203.05 4.05315 201.424 3.74089 199.319Z" fill="#0D0C0C"/>
<path d="M16.0847 202.647L14.9655 206.7L19.0177 205.581C20.536 205.34 21.8798 204.633 22.905 203.608C23.931 202.582 24.6368 201.239 24.8782 199.72L25.9974 195.668L21.9452 196.787C18.9102 197.27 16.5682 199.612 16.0847 202.647ZM22.6597 199.318C22.3474 201.426 20.7216 203.051 18.6146 203.363L18.194 203.471L18.3024 203.051C18.6162 200.944 20.2413 199.319 22.3474 199.006L22.768 198.897L22.6597 199.318Z" fill="#0D0C0C"/>
<path d="M11.439 217.733L10.319 213.68C9.83706 210.644 7.49591 208.303 4.46015 207.821L0.406355 206.701L1.52634 210.754C2.00828 213.789 4.34942 216.131 7.38519 216.612L11.439 217.733ZM3.74402 210.352L3.63649 209.931L4.05788 210.038C6.16324 210.351 7.78906 211.977 8.10132 214.082L8.20886 214.503L7.78746 214.396C5.6821 214.083 4.05628 212.457 3.74402 210.352Z" fill="#0D0C0C"/>
<path d="M16.0878 213.68L14.9686 217.732L19.0209 216.613C20.5391 216.373 21.883 215.666 22.9082 214.641C23.9342 213.615 24.6399 212.272 24.8813 210.753L26.0005 206.701L21.9483 207.82C18.9133 208.302 16.5714 210.644 16.0878 213.68ZM22.6628 210.35C22.3506 212.458 20.7247 214.084 18.6178 214.396L18.1972 214.504L18.3055 214.083C18.6194 211.977 20.2444 210.352 22.3506 210.038L22.7711 209.93L22.6628 210.35Z" fill="#0D0C0C"/>
<path d="M11.439 228.765L10.319 224.712C9.83704 221.676 7.49589 219.335 4.46013 218.853L0.406333 217.732L1.52632 221.786C2.00825 224.821 4.3494 227.162 7.38517 227.644L11.439 228.765ZM3.744 221.384L3.63646 220.963L4.05785 221.07C6.16321 221.383 7.78903 223.009 8.10129 225.114L8.20883 225.535L7.78744 225.428C5.68208 225.114 4.05626 223.489 3.744 221.384Z" fill="#0D0C0C"/>
<path d="M16.0878 224.712L14.9686 228.764L19.0208 227.645C20.5391 227.405 21.8829 226.698 22.9081 225.673C23.9341 224.647 24.6399 223.304 24.8813 221.785L26.0005 217.732L21.9483 218.852C18.9133 219.334 16.5713 221.676 16.0878 224.712ZM22.6628 221.382C22.3505 223.49 20.7247 225.116 18.6178 225.428L18.1971 225.536L18.3055 225.115C18.6193 223.009 20.2444 221.384 22.3505 221.07L22.7711 220.962L22.6628 221.382Z" fill="#0D0C0C"/>
<path d="M11.439 239.798L10.319 235.745C9.83709 232.709 7.49594 230.368 4.46017 229.886L0.40638 228.765L1.52637 232.818C2.0083 235.854 4.34945 238.195 7.38522 238.677L11.439 239.798ZM3.74405 232.417L3.63651 231.995L4.0579 232.103C6.16326 232.416 7.78908 234.042 8.10134 236.146L8.20888 236.568L7.78749 236.46C5.68213 236.147 4.05631 234.521 3.74405 232.417Z" fill="#0D0C0C"/>
<path d="M16.0879 235.745L14.9687 239.797L19.0209 238.678C20.5392 238.437 21.883 237.731 22.9082 236.706C23.9342 235.68 24.64 234.337 24.8813 232.817L26.0005 228.765L21.9483 229.884C18.9133 230.367 16.5714 232.709 16.0879 235.745ZM22.6628 232.415C22.3506 234.523 20.7248 236.149 18.6178 236.46L18.1972 236.569L18.3055 236.148C18.6194 234.042 20.2444 232.417 22.3506 232.103L22.7712 231.995L22.6628 232.415Z" fill="#0D0C0C"/>
<path d="M11.439 250.83L10.319 246.777C9.83709 243.741 7.49594 241.4 4.46017 240.918L0.406381 239.797L1.52637 243.85C2.0083 246.886 4.34945 249.227 7.38522 249.709L11.439 250.83ZM3.74405 243.449L3.63651 243.027L4.0579 243.135C6.16326 243.448 7.78908 245.074 8.10134 247.178L8.20888 247.6L7.78749 247.492C5.68213 247.179 4.05631 245.553 3.74405 243.449Z" fill="#0D0C0C"/>
<path d="M16.0879 246.777L14.9687 250.829L19.0209 249.71C20.5392 249.469 21.883 248.763 22.9082 247.737C23.9342 246.711 24.64 245.368 24.8813 243.849L26.0005 239.797L21.9483 240.916C18.9133 241.399 16.5714 243.741 16.0879 246.777ZM22.6628 243.447C22.3506 245.555 20.7248 247.181 18.6178 247.492L18.1972 247.6L18.3055 247.18C18.6194 245.074 20.2444 243.449 22.3506 243.135L22.7712 243.026L22.6628 243.447Z" fill="#0D0C0C"/>
<path d="M11.0322 261.862L9.91222 257.809C9.43029 254.773 7.08914 252.432 4.05337 251.95L-0.000423253 250.829L1.11957 254.882C1.6015 257.918 3.94265 260.259 6.97841 260.741L11.0322 261.862ZM3.33724 254.48L3.22971 254.059L3.6511 254.167C5.75646 254.48 7.38228 256.106 7.69454 258.21L7.80208 258.631L7.38068 258.524C5.27532 258.211 3.6495 256.585 3.33724 254.48Z" fill="#0D0C0C"/>
<path d="M15.6811 257.809L14.5619 261.861L18.6141 260.742C20.1323 260.501 21.4762 259.794 22.5014 258.769C23.5274 257.743 24.2331 256.4 24.4745 254.881L25.5937 250.829L21.5415 251.948C18.5065 252.431 16.1646 254.773 15.6811 257.809ZM22.256 254.479C21.9438 256.587 20.3179 258.212 18.211 258.524L17.7904 258.632L17.8987 258.212C18.2126 256.106 19.8376 254.481 21.9438 254.167L22.3644 254.058L22.256 254.479Z" fill="#0D0C0C"/>
<path d="M11.0322 272.894L9.91222 268.841C9.43029 265.806 7.08914 263.464 4.05337 262.982L-0.00042277 261.862L1.11957 265.915C1.6015 268.95 3.94265 271.292 6.97841 271.774L11.0322 272.894ZM3.33724 265.513L3.22971 265.092L3.6511 265.199C5.75646 265.512 7.38228 267.138 7.69454 269.243L7.80208 269.664L7.38069 269.557C5.27532 269.244 3.6495 267.618 3.33724 265.513Z" fill="#0D0C0C"/>
<path d="M15.6811 268.841L14.5619 272.894L18.6141 271.774C20.1323 271.534 21.4762 270.827 22.5014 269.802C23.5274 268.776 24.2331 267.433 24.4745 265.914L25.5937 261.862L21.5415 262.981C18.5065 263.464 16.1646 265.806 15.6811 268.841ZM22.256 265.512C21.9438 267.619 20.3179 269.245 18.211 269.557L17.7904 269.665L17.8987 269.244C18.2126 267.138 19.8376 265.513 21.9438 265.199L22.3644 265.091L22.256 265.512Z" fill="#0D0C0C"/>
<path d="M11.439 283.912L10.319 279.859C9.83707 276.823 7.49593 274.482 4.46016 274L0.406379 272.879L1.52637 276.932C2.0083 279.968 4.34944 282.309 7.3852 282.791L11.439 283.912ZM3.74404 276.53L3.63651 276.109L4.05789 276.217C6.16325 276.53 7.78907 278.155 8.10133 280.26L8.20887 280.681L7.78747 280.574C5.68211 280.261 4.0563 278.635 3.74404 276.53Z" fill="#0D0C0C"/>
<path d="M16.0878 279.859L14.9686 283.911L19.0208 282.792C20.5391 282.551 21.8829 281.844 22.9081 280.819C23.9341 279.793 24.6399 278.45 24.8813 276.931L26.0005 272.879L21.9483 273.998C18.9133 274.481 16.5713 276.823 16.0878 279.859ZM22.6628 276.529C22.3505 278.637 20.7247 280.262 18.6178 280.574L18.1972 280.682L18.3055 280.262C18.6194 278.155 20.2444 276.53 22.3505 276.217L22.7711 276.108L22.6628 276.529Z" fill="#0D0C0C"/>
<path d="M11.0322 294.943L9.9122 290.89C9.43027 287.855 7.08913 285.514 4.05336 285.032L-0.0004249 283.911L1.11956 287.964C1.60149 291 3.94263 293.341 6.9784 293.823L11.0322 294.943ZM3.33724 287.562L3.2297 287.141L3.65109 287.248C5.75645 287.561 7.38226 289.187 7.69452 291.292L7.80206 291.713L7.38067 291.606C5.27531 291.293 3.6495 289.667 3.33724 287.562Z" fill="#0D0C0C"/>
<path d="M15.681 290.89L14.5618 294.943L18.614 293.823C20.1323 293.583 21.4761 292.876 22.5013 291.851C23.5273 290.825 24.2331 289.482 24.4745 287.963L25.5937 283.911L21.5415 285.03C18.5065 285.513 16.1646 287.855 15.681 290.89ZM22.256 287.561C21.9437 289.668 20.3179 291.294 18.211 291.606L17.7904 291.714L17.8987 291.293C18.2126 289.187 19.8376 287.562 21.9437 287.248L22.3643 287.14L22.256 287.561Z" fill="#0D0C0C"/>
<path d="M11.0322 305.976L9.9122 301.923C9.43027 298.887 7.08913 296.546 4.05336 296.064L-0.000424418 294.943L1.11956 298.996C1.60149 302.032 3.94263 304.373 6.9784 304.855L11.0322 305.976ZM3.33724 298.595L3.2297 298.174L3.65109 298.281C5.75645 298.594 7.38226 300.22 7.69452 302.325L7.80206 302.746L7.38067 302.638C5.27531 302.325 3.6495 300.7 3.33724 298.595Z" fill="#0D0C0C"/>
<path d="M15.681 301.923L14.5618 305.975L18.614 304.856C20.1323 304.616 21.4761 303.909 22.5013 302.884C23.5273 301.858 24.2331 300.515 24.4745 298.996L25.5937 294.943L21.5415 296.063C18.5065 296.545 16.1646 298.887 15.681 301.923ZM22.256 298.593C21.9437 300.701 20.3179 302.327 18.211 302.638L17.7904 302.747L17.8987 302.326C18.2126 300.22 19.8376 298.595 21.9437 298.281L22.3643 298.173L22.256 298.593Z" fill="#0D0C0C"/>
<path d="M11.439 317.837L10.319 313.784C9.83707 310.748 7.49593 308.407 4.46016 307.925L0.406375 306.804L1.52636 310.857C2.00829 313.893 4.34943 316.234 7.3852 316.716L11.439 317.837ZM3.74404 310.455L3.6365 310.034L4.05789 310.142C6.16325 310.455 7.78906 312.08 8.10132 314.185L8.20886 314.606L7.78747 314.499C5.68211 314.186 4.0563 312.56 3.74404 310.455Z" fill="#0D0C0C"/>
<path d="M16.0878 313.784L14.9686 317.836L19.0208 316.717C20.5391 316.476 21.8829 315.769 22.9081 314.744C23.9341 313.718 24.6399 312.375 24.8813 310.856L26.0005 306.804L21.9483 307.923C18.9133 308.406 16.5713 310.748 16.0878 313.784ZM22.6628 310.454C22.3505 312.562 20.7247 314.187 18.6178 314.499L18.1972 314.607L18.3055 314.187C18.6194 312.08 20.2444 310.455 22.3505 310.142L22.7711 310.033L22.6628 310.454Z" fill="#0D0C0C"/>
<path d="M11.0322 328.868L9.9122 324.815C9.43027 321.78 7.08912 319.439 4.05336 318.957L-0.000428471 317.836L1.11956 321.889C1.60149 324.925 3.94263 327.266 6.97839 327.748L11.0322 328.868ZM3.33723 321.487L3.2297 321.066L3.65109 321.173C5.75645 321.486 7.38226 323.112 7.69452 325.217L7.80206 325.638L7.38067 325.531C5.27531 325.218 3.64949 323.592 3.33723 321.487Z" fill="#0D0C0C"/>
<path d="M15.681 324.815L14.5618 328.868L18.614 327.748C20.1323 327.508 21.4761 326.801 22.5013 325.776C23.5273 324.75 24.2331 323.407 24.4745 321.888L25.5936 317.836L21.5415 318.955C18.5065 319.438 16.1645 321.78 15.681 324.815ZM22.256 321.486C21.9437 323.593 20.3179 325.219 18.211 325.531L17.7904 325.639L17.8987 325.218C18.2126 323.112 19.8376 321.487 21.9437 321.173L22.3643 321.065L22.256 321.486Z" fill="#0D0C0C"/>
<path d="M11.0322 339.901L9.9122 335.848C9.43027 332.812 7.08912 330.471 4.05336 329.989L-0.000427988 328.868L1.11956 332.921C1.60149 335.957 3.94263 338.298 6.9784 338.78L11.0322 339.901ZM3.33723 332.52L3.2297 332.099L3.65109 332.206C5.75645 332.519 7.38226 334.145 7.69452 336.25L7.80206 336.671L7.38067 336.563C5.27531 336.25 3.64949 334.625 3.33723 332.52Z" fill="#0D0C0C"/>
<path d="M15.681 335.848L14.5618 339.9L18.614 338.781C20.1323 338.541 21.4761 337.834 22.5013 336.809C23.5273 335.783 24.2331 334.44 24.4745 332.921L25.5936 328.868L21.5415 329.988C18.5065 330.47 16.1645 332.812 15.681 335.848ZM22.256 332.518C21.9437 334.626 20.3179 336.252 18.211 336.563L17.7904 336.672L17.8987 336.251C18.2126 334.145 19.8376 332.52 21.9437 332.206L22.3643 332.098L22.256 332.518Z" fill="#0D0C0C"/>
</svg>
