<svg width="24" height="24" viewBox="0 0 24 24" fill="none" xmlns="http://www.w3.org/2000/svg">
<path d="M12.7062 12L20.8523 3.85401C21.0473 3.65901 21.0473 3.34201 20.8523 3.14701C20.6573 2.95201 20.3403 2.95201 20.1453 3.14701L11.9992 11.293L3.85325 3.14601C3.65825 2.95101 3.34125 2.95101 3.14625 3.14601C2.95125 3.34101 2.95125 3.65801 3.14625 3.85301L11.2922 12L3.14625 20.146C2.95125 20.341 2.95125 20.658 3.14625 20.853C3.24325 20.951 3.37125 21 3.49925 21C3.62725 21 3.75525 20.951 3.85325 20.854L11.9992 12.707L20.1453 20.853C20.2433 20.951 20.3713 21 20.4993 21C20.6273 21 20.7553 20.951 20.8533 20.854C21.0483 20.659 21.0483 20.342 20.8533 20.147L12.7062 12Z" fill="#C6986D"/>
</svg>
