<svg width="20" height="21" viewBox="0 0 20 21" fill="none" xmlns="http://www.w3.org/2000/svg">
<path d="M17.6434 4.54371C18.465 3.72252 18.8513 2.74151 18.6033 2.20508L19.9048 0.903952C19.9903 0.818527 19.9903 0.680744 19.9048 0.595319C19.8194 0.509894 19.6816 0.509894 19.5962 0.595319L18.2951 1.89644C17.7586 1.64844 16.7781 2.03469 15.9564 2.85633C15.0292 3.78315 14.6562 4.91204 15.1229 5.37775C15.5881 5.84345 16.7165 5.47006 17.6434 4.54371Z" fill="#ffff"/>
<path d="M19.7817 7.62376H17.9419C17.738 7.06942 16.7712 6.64551 15.6088 6.64551C14.298 6.64551 13.2352 7.17827 13.2352 7.83733C13.2352 8.49639 14.2975 9.03374 15.6088 9.03374C16.7703 9.03374 17.7375 8.61717 17.9419 8.06283H19.7817C19.9025 8.06283 19.9999 7.96363 19.9999 7.8433C19.9999 7.72297 19.9021 7.62376 19.7817 7.62376Z" fill="#ffff"/>
<path d="M17.3132 10.0956H15.4733C15.2694 9.54126 14.3026 9.11597 13.1402 9.11597C11.8294 9.11597 10.7667 9.64735 10.7667 10.3064C10.7667 10.9655 11.829 11.4927 13.1402 11.4927C14.3017 11.4927 15.2689 11.0881 15.4733 10.5108H17.3132C17.434 10.5108 17.5313 10.4235 17.5313 10.3027C17.5313 10.1829 17.434 10.0956 17.3132 10.0956Z" fill="#ffff"/>
<path d="M14.8445 12.5445H13.0047C12.8012 11.9901 11.834 11.575 10.6715 11.575C9.36076 11.575 8.29892 12.1114 8.29846 12.7709C8.29846 13.4304 9.36076 13.9613 10.6715 13.9613C11.834 13.9613 12.8012 13.5384 13.0047 12.984H14.8445C14.9653 12.984 15.0627 12.8848 15.0627 12.764C15.0627 12.6432 14.9653 12.5445 14.8445 12.5445Z" fill="#ffff"/>
<path d="M12.3764 15.0153H10.5365C10.3331 14.461 9.36585 14.0439 8.20342 14.0439C6.89311 14.0439 5.83081 14.5804 5.83081 15.2394C5.83081 15.8994 6.89311 16.4313 8.20342 16.4313C9.36539 16.4313 10.3326 16.0096 10.5365 15.4553H12.3764C12.4967 15.4553 12.5946 15.3561 12.5946 15.2353C12.5946 15.1141 12.4967 15.0153 12.3764 15.0153Z" fill="#ffff"/>
<path d="M12.6644 7.2642C13.3234 7.2642 13.8571 6.2019 13.8571 4.89159C13.8571 3.72916 13.4359 2.76193 12.8816 2.55847V0.718615C12.8816 0.597826 12.7829 0.5 12.6621 0.5C12.5417 0.5 12.4421 0.597826 12.4421 0.718615V2.55847C11.8877 2.76239 11.4689 3.72962 11.4689 4.89159C11.4702 6.2019 12.0058 7.2642 12.6644 7.2642Z" fill="#ffff"/>
<path d="M10.1962 9.73271C10.8557 9.73225 11.3875 8.6704 11.3875 7.35963C11.3875 6.19767 10.965 5.23043 10.4106 5.02652V3.18666C10.4106 3.06633 10.3119 2.96851 10.1911 2.96851C10.0703 2.96851 9.97158 3.06633 9.97158 3.18666V5.02698C9.41678 5.23089 8.99976 6.19813 8.99976 7.35963C8.99976 8.66994 9.53711 9.73271 10.1962 9.73271Z" fill="#ffff"/>
<path d="M7.72757 12.201C8.38663 12.201 8.9171 11.1392 8.9171 9.82838C8.9171 8.66642 8.49319 7.69918 7.93884 7.49527V5.65587C7.93884 5.53508 7.8401 5.43726 7.71931 5.43726C7.59852 5.43726 7.49977 5.53508 7.49977 5.65587V7.49527C6.94543 7.69918 6.52933 8.66642 6.52979 9.82838C6.52979 11.1387 7.06851 12.201 7.72757 12.201Z" fill="#ffff"/>
<path d="M5.46706 9.96377V8.12392C5.46706 8.00313 5.3798 7.90576 5.25901 7.90576C5.13822 7.90576 5.05095 8.00313 5.05095 8.12392V9.96377C4.49661 10.1677 4.07086 11.1349 4.07086 12.2969C4.07086 13.6077 4.60224 14.6695 5.2613 14.6695C5.9199 14.6695 6.44807 13.6077 6.44807 12.2969C6.44853 11.134 6.0214 10.1672 5.46706 9.96377Z" fill="#ffff"/>
<path d="M4.20317 15.3714L0.191862 19.3823C-0.063954 19.6381 -0.063954 20.0523 0.191862 20.3086C0.319541 20.4354 0.487176 20.5001 0.654811 20.5001C0.821987 20.5001 0.989623 20.4354 1.1173 20.3086L5.12861 16.2978C5.38442 16.0415 5.38442 15.6277 5.12861 15.3714C4.87279 15.1151 4.45853 15.1151 4.20317 15.3714Z" fill="#ffff"/>
</svg>
