<svg width="138" height="11" viewBox="0 0 138 11" fill="none" xmlns="http://www.w3.org/2000/svg">
<path d="M10.1197 4.26071C9.12669 3.53994 7.80411 3.53994 6.81107 4.26071L5.35043 5.08899L6.81075 5.91695C7.80379 6.63772 9.12637 6.63772 10.1197 5.91727L10.7597 5.55402L137.289 5.55402C137.537 5.55402 137.738 5.353 137.738 5.10426C137.738 4.98021 137.688 4.86761 137.607 4.78618C137.525 4.70475 137.413 4.65449 137.289 4.65449L10.8144 4.65449L10.1197 4.26071ZM9.60764 5.17741C8.92471 5.68348 8.00641 5.6838 7.32381 5.17741L7.17432 5.08899L7.32349 5.00088C8.00641 4.49481 8.92471 4.4945 9.60732 5.00088L9.75681 5.08931L9.60764 5.17741Z" fill="#0D0C0C"/>
<path d="M12.7216 5.80909L11.1039 6.25568C9.892 6.44843 8.95618 7.38358 8.76407 8.59547L8.31683 10.2139L9.93525 9.76664C11.1471 9.57452 12.0826 8.63904 12.2751 7.42684L12.7216 5.80909ZM9.7743 8.8811L9.60603 8.92404L9.64929 8.7561C9.7743 7.91541 10.4235 7.26621 11.2645 7.14089L11.4321 7.09795L11.3892 7.26558C11.2639 8.10722 10.6147 8.75642 9.7743 8.8811Z" fill="#0D0C0C"/>
<path d="M11.1042 3.95246L12.7223 4.39937L12.2754 2.78129C12.1793 2.17503 11.8972 1.63843 11.4878 1.22906C11.0784 0.819692 10.5418 0.537554 9.93557 0.441494L8.31717 -0.00572491L8.76439 1.61266C8.95587 2.82455 9.89137 3.76002 11.1042 3.95246ZM9.77462 1.32703C10.6153 1.45203 11.2645 2.10124 11.3895 2.94192L11.4328 3.10987L11.2648 3.06661C10.4229 2.9416 9.77398 2.29272 9.64993 1.45172L9.60666 1.28377L9.77462 1.32703Z" fill="#0D0C0C"/>
<path d="M16.7705 5.80877L15.1521 6.25599C13.9399 6.44843 13.005 7.38327 12.8126 8.59547L12.3654 10.2139L13.9838 9.76664C15.1957 9.57388 16.1305 8.63904 16.3233 7.42716L16.7705 5.80877ZM13.8228 8.8811L13.6549 8.92436L13.6978 8.7561C13.8228 7.91541 14.472 7.26621 15.3124 7.14153L15.4807 7.09858L15.4374 7.26653C15.3127 8.1069 14.6635 8.7561 13.8228 8.8811Z" fill="#0D0C0C"/>
<path d="M15.1521 3.95247L16.7702 4.39937L16.3233 2.78129C16.2272 2.17503 15.9451 1.63843 15.5354 1.22874C15.126 0.819376 14.5894 0.537238 13.9828 0.44086L12.3651 -0.005723L12.8117 1.61203C13.005 2.82455 13.9402 3.75971 15.1521 3.95247ZM13.8225 1.32703C14.6645 1.45204 15.3127 2.10156 15.4377 2.94224L15.481 3.11019L15.313 3.06693C14.4724 2.94129 13.8228 2.2924 13.6978 1.45172L13.6546 1.28377L13.8225 1.32703Z" fill="#0D0C0C"/>
<path d="M20.819 5.80878L19.2007 6.256C17.9891 6.44844 17.0539 7.38359 16.8608 8.59579L16.4142 10.2135L18.032 9.76696C19.2442 9.57452 20.1797 8.63905 20.3718 7.42717L20.819 5.80878ZM17.8708 8.88174L17.7031 8.92469L17.7461 8.75706C17.8717 7.91574 18.5209 7.26654 19.3613 7.14185L19.5292 7.09859L19.4863 7.26685C19.3616 8.10722 18.7124 8.75642 17.8708 8.88174Z" fill="#0D0C0C"/>
<path d="M19.2007 3.95247L20.8187 4.39937L20.3718 2.78129C20.2754 2.17535 19.9936 1.63843 19.5843 1.22906C19.1749 0.819695 18.638 0.537876 18.032 0.441498L16.4139 -0.00540447L16.8608 1.61267C17.0539 2.82423 17.9891 3.75939 19.2007 3.95247ZM17.8711 1.32703C18.7117 1.45204 19.361 2.1006 19.4863 2.94224L19.5295 3.11019L19.3616 3.06693C18.5206 2.94161 17.8714 2.2924 17.7464 1.45172L17.7031 1.28377L17.8711 1.32703Z" fill="#0D0C0C"/>
<path d="M24.8669 5.80942L23.2491 6.256C22.0369 6.44844 21.1018 7.38359 20.9094 8.59579L20.4628 10.2135L22.0805 9.76696C23.2924 9.57421 24.2276 8.63905 24.4203 7.42717L24.8669 5.80942ZM21.9196 8.88143L21.752 8.92437L21.7949 8.75674C21.9205 7.91542 22.5694 7.26654 23.4104 7.14121L23.578 7.09827L23.5351 7.2659C23.4095 8.10722 22.7606 8.7561 21.9196 8.88143Z" fill="#0D0C0C"/>
<path d="M23.2495 3.95278L24.8675 4.39968L24.4206 2.7816C24.3246 2.17534 24.0424 1.63874 23.6331 1.22937C23.2237 0.820005 22.6871 0.537868 22.0808 0.441808L20.4628 -0.00509453L20.9097 1.61298C21.1018 2.82486 22.0369 3.76002 23.2495 3.95278ZM21.9199 1.32671C22.7609 1.45203 23.4101 2.10123 23.5351 2.94192L23.5784 3.10987L23.4104 3.0666C22.5688 2.94192 21.9196 2.29271 21.7952 1.45139L21.752 1.28345L21.9199 1.32671Z" fill="#0D0C0C"/>
<path d="M28.916 5.80878L27.2976 6.256C26.0854 6.44844 25.1506 7.38327 24.9582 8.59548L24.5106 10.2142L26.129 9.76696C27.3412 9.57453 28.2761 8.63969 28.4685 7.42749L28.916 5.80878ZM25.9687 8.88143L25.8004 8.92437L25.8434 8.75611C25.9684 7.91542 26.6176 7.26622 27.458 7.14153L27.6262 7.09859L27.5833 7.26686C27.4583 8.10754 26.8091 8.75674 25.9687 8.88143Z" fill="#0D0C0C"/>
<path d="M27.2976 3.95247L28.9157 4.39937L28.4688 2.78129C28.3728 2.17503 28.0906 1.63843 27.6813 1.22906C27.2716 0.819375 26.7353 0.537557 26.1287 0.441179L24.5106 -0.005723L24.9575 1.61235C25.1503 2.82423 26.0854 3.75939 27.2976 3.95247ZM25.9681 1.32703C26.8097 1.45172 27.4589 2.10092 27.5833 2.94224L27.6265 3.11019L27.4586 3.06693C26.6176 2.94161 25.9687 2.29272 25.8434 1.45172L25.8001 1.28377L25.9681 1.32703Z" fill="#0D0C0C"/>
<path d="M7.96536 8.28726C7.88393 8.20583 7.77133 8.15557 7.64728 8.15557L4.04852 8.15557C3.79977 8.15557 3.59874 8.3566 3.59874 8.60534C3.59874 8.85407 3.79977 9.0551 4.04852 9.0551L7.64728 9.0551C7.89601 9.0551 8.09705 8.85407 8.09705 8.60534C8.09673 8.48097 8.04678 8.36868 7.96536 8.28726Z" fill="#0D0C0C"/>
<path d="M7.1972 6.80595C7.1972 6.6819 7.14694 6.5693 7.06551 6.48787C6.98409 6.40645 6.87149 6.35619 6.74744 6.35619L2.24913 6.35619C2.0004 6.35619 1.79938 6.55721 1.79938 6.80595C1.79938 7.05469 2.0004 7.25572 2.24913 7.25572L6.74744 7.25572C6.99586 7.25604 7.1972 7.05469 7.1972 6.80595Z" fill="#0D0C0C"/>
<path d="M2.24913 3.65698H6.74744C6.99619 3.65698 7.1972 3.45595 7.1972 3.20721C7.1972 3.08316 7.14696 2.97056 7.06552 2.88913C6.9841 2.8077 6.87149 2.75744 6.74744 2.75744H2.24913C2.0004 2.75744 1.79938 2.95847 1.79938 3.20721C1.79938 3.45595 2.0004 3.65698 2.24913 3.65698Z" fill="#0D0C0C"/>
<path d="M4.94804 5.00659C4.94804 4.88254 4.89778 4.76994 4.81636 4.68851C4.73492 4.60708 4.62233 4.55682 4.49828 4.55682H0.449768C0.201035 4.55682 0 4.75785 0 5.00659C0 5.25533 0.201035 5.45635 0.449768 5.45635L4.49828 5.45635C4.74669 5.45667 4.94804 5.25533 4.94804 5.00659Z" fill="#0D0C0C"/>
<path d="M4.04852 1.85759L7.64697 1.85791C7.89571 1.85791 8.09673 1.65689 8.09673 1.40815C8.09673 1.2841 8.04646 1.17149 7.96504 1.09007C7.88361 1.00864 7.77103 0.958382 7.64697 0.958382L4.04852 0.958065C3.79977 0.958065 3.59874 1.15909 3.59874 1.40783C3.59874 1.65657 3.79977 1.85759 4.04852 1.85759Z" fill="#0D0C0C"/>
<path d="M33.5947 5.80878L31.9763 6.256C30.7641 6.44844 29.8293 7.38327 29.6368 8.59548L29.1893 10.2142L30.8077 9.76696C32.0199 9.57453 32.9547 8.63969 33.1471 7.42749L33.5947 5.80878ZM30.6473 8.88143L30.4791 8.92437L30.522 8.75611C30.647 7.91542 31.2962 7.26622 32.1366 7.14153L32.3049 7.09859L32.2619 7.26686C32.1369 8.10754 31.4877 8.75674 30.6473 8.88143Z" fill="#0D0C0C"/>
<path d="M31.9763 3.95247L33.5944 4.39937L33.1475 2.78129C33.0514 2.17503 32.7693 1.63843 32.3599 1.22906C31.9502 0.819375 31.4139 0.537557 30.8073 0.441179L29.1893 -0.005723L29.6362 1.61235C29.8289 2.82423 30.7641 3.75939 31.9763 3.95247ZM30.6467 1.32703C31.4883 1.45172 32.1376 2.10092 32.2619 2.94224L32.3052 3.11019L32.1372 3.06693C31.2962 2.94161 30.6473 2.29272 30.522 1.45172L30.4788 1.28377L30.6467 1.32703Z" fill="#0D0C0C"/>
<path d="M38.0001 5.80881L36.3817 6.25603C35.1695 6.44847 34.2346 7.3833 34.0422 8.59551L33.5947 10.2142L35.2131 9.76699C36.4253 9.57455 37.3601 8.63972 37.5525 7.42752L38.0001 5.80881ZM35.0527 8.88146L34.8845 8.9244L34.9274 8.75614C35.0524 7.91545 35.7016 7.26625 36.542 7.14156L36.7103 7.09862L36.6673 7.26689C36.5423 8.10757 35.8931 8.75677 35.0527 8.88146Z" fill="#0D0C0C"/>
<path d="M36.3817 3.9525L37.9998 4.3994L37.5529 2.78132C37.4568 2.17506 37.1747 1.63846 36.7653 1.22909C36.3556 0.819405 35.8193 0.537585 35.2127 0.441207L33.5947 -0.00569344L34.0416 1.61238C34.2343 2.82426 35.1695 3.75942 36.3817 3.9525ZM35.0521 1.32706C35.8937 1.45175 36.543 2.10095 36.6673 2.94227L36.7106 3.11022L36.5426 3.06696C35.7016 2.94163 35.0527 2.29275 34.9274 1.45175L34.8842 1.2838L35.0521 1.32706Z" fill="#0D0C0C"/>
<path d="M42.4055 5.8094L40.7871 6.25662C39.5749 6.44906 38.64 7.38389 38.4476 8.59609L38.0001 10.2148L39.6185 9.76758C40.8307 9.57514 41.7655 8.64031 41.9579 7.4281L42.4055 5.8094ZM39.4581 8.88205L39.2899 8.92499L39.3328 8.75672C39.4578 7.91604 40.107 7.26684 40.9474 7.14215L41.1157 7.09921L41.0727 7.26747C40.9477 8.10816 40.2985 8.75736 39.4581 8.88205Z" fill="#0D0C0C"/>
<path d="M40.7871 3.95308L42.4052 4.39998L41.9583 2.78191C41.8622 2.17565 41.58 1.63905 41.1707 1.22968C40.761 0.819992 40.2247 0.538174 39.6181 0.441795L38.0001 -0.00510693L38.447 1.61296C38.6397 2.82485 39.5749 3.76001 40.7871 3.95308ZM39.4575 1.32765C40.2991 1.45233 40.9483 2.10154 41.0727 2.94286L41.116 3.11081L40.948 3.06755C40.107 2.94222 39.4581 2.29334 39.3328 1.45233L39.2896 1.28439L39.4575 1.32765Z" fill="#0D0C0C"/>
<path d="M46.8109 5.80939L45.1925 6.25661C43.9803 6.44905 43.0454 7.38389 42.853 8.59609L42.4055 10.2148L44.0239 9.76758C45.2361 9.57514 46.1709 8.6403 46.3634 7.4281L46.8109 5.80939ZM43.8635 8.88204L43.6953 8.92498L43.7382 8.75672C43.8632 7.91603 44.5124 7.26683 45.3528 7.14215L45.5211 7.09921L45.4781 7.26747C45.3531 8.10815 44.7039 8.75736 43.8635 8.88204Z" fill="#0D0C0C"/>
<path d="M45.1925 3.95308L46.8106 4.39998L46.3637 2.7819C46.2676 2.17564 45.9855 1.63904 45.5761 1.22967C45.1664 0.819986 44.6301 0.538168 44.0235 0.441791L42.4055 -0.00511169L42.8524 1.61296C43.0451 2.82484 43.9803 3.76 45.1925 3.95308ZM43.8629 1.32764C44.7046 1.45233 45.3538 2.10153 45.4781 2.94285L45.5214 3.1108L45.3534 3.06754C44.5124 2.94222 43.8635 2.29333 43.7382 1.45233L43.695 1.28438L43.8629 1.32764Z" fill="#0D0C0C"/>
<path d="M51.2163 5.80814L49.5979 6.25536C48.3857 6.4478 47.4509 7.38264 47.2584 8.59484L46.8109 10.2135L48.4293 9.76633C49.6415 9.57389 50.5764 8.63905 50.7688 7.42685L51.2163 5.80814ZM48.269 8.88079L48.1007 8.92373L48.1437 8.75547C48.2687 7.91478 48.9179 7.26558 49.7583 7.14089L49.9265 7.09795L49.8836 7.26622C49.7586 8.1069 49.1094 8.7561 48.269 8.88079Z" fill="#0D0C0C"/>
<path d="M49.5979 3.95183L51.216 4.39873L50.7691 2.78065C50.6731 2.17439 50.3909 1.63779 49.9815 1.22842C49.5719 0.818736 49.0356 0.536918 48.429 0.440539L46.8109 -0.00636292L47.2578 1.61171C47.4506 2.82359 48.3857 3.75875 49.5979 3.95183ZM48.2684 1.32639C49.11 1.45108 49.7592 2.10028 49.8836 2.9416L49.9268 3.10955L49.7589 3.06629C48.9179 2.94097 48.269 2.29208 48.1437 1.45108L48.1004 1.28313L48.2684 1.32639Z" fill="#0D0C0C"/>
<path d="M55.6215 5.80815L54.0031 6.25537C52.7909 6.44781 51.856 7.38265 51.6636 8.59485L51.216 10.2136L52.8344 9.76633C54.0466 9.5739 54.9815 8.63906 55.1739 7.42686L55.6215 5.80815ZM52.6741 8.8808L52.5059 8.92374L52.5488 8.75548C52.6738 7.91479 53.323 7.26559 54.1634 7.1409L54.3316 7.09796L54.2887 7.26623C54.1637 8.10691 53.5145 8.75611 52.6741 8.8808Z" fill="#0D0C0C"/>
<path d="M54.0031 3.95184L55.6212 4.39874L55.1743 2.78066C55.0782 2.1744 54.796 1.6378 54.3867 1.22843C53.977 0.818747 53.4407 0.536926 52.8341 0.440548L51.216 -0.00635242L51.6629 1.61172C51.8557 2.8236 52.7909 3.75876 54.0031 3.95184ZM52.6735 1.3264C53.5151 1.45109 54.1643 2.10029 54.2887 2.94161L54.332 3.10956L54.164 3.0663C53.323 2.94098 52.6741 2.29209 52.5488 1.45109L52.5055 1.28314L52.6735 1.3264Z" fill="#0D0C0C"/>
<path d="M60.0269 5.80813L58.4085 6.25535C57.1963 6.44779 56.2615 7.38263 56.069 8.59483L55.6215 10.2135L57.2399 9.76632C58.4521 9.57388 59.3869 8.63904 59.5794 7.42684L60.0269 5.80813ZM57.0796 8.88078L56.9113 8.92372L56.9542 8.75546C57.0792 7.91477 57.7285 7.26557 58.5688 7.14089L58.7371 7.09794L58.6941 7.26621C58.5691 8.10689 57.9199 8.75609 57.0796 8.88078Z" fill="#0D0C0C"/>
<path d="M58.4085 3.95182L60.0266 4.39872L59.5797 2.78064C59.4836 2.17438 59.2015 1.63778 58.7921 1.22841C58.3824 0.818727 57.8461 0.536907 57.2396 0.440529L55.6215 -0.0063715L56.0684 1.6117C56.2611 2.82358 57.1963 3.75874 58.4085 3.95182ZM57.0789 1.32638C57.9206 1.45107 58.5698 2.10027 58.6941 2.94159L58.7374 3.10954L58.5695 3.06628C57.7285 2.94096 57.0796 2.29207 56.9542 1.45107L56.911 1.28312L57.0789 1.32638Z" fill="#0D0C0C"/>
<path d="M64.432 5.80813L62.8136 6.25535C61.6014 6.44779 60.6666 7.38263 60.4741 8.59483L60.0266 10.2135L61.645 9.76632C62.8572 9.57388 63.792 8.63904 63.9845 7.42684L64.432 5.80813ZM61.4847 8.88078L61.3164 8.92372L61.3593 8.75546C61.4843 7.91477 62.1336 7.26557 62.9739 7.14089L63.1422 7.09794L63.0993 7.26621C62.9742 8.10689 62.325 8.75609 61.4847 8.88078Z" fill="#0D0C0C"/>
<path d="M62.8136 3.95182L64.4317 4.39872L63.9848 2.78064C63.8887 2.17438 63.6066 1.63778 63.1972 1.22841C62.7875 0.818727 62.2512 0.536907 61.6447 0.440529L60.0266 -0.0063715L60.4735 1.6117C60.6662 2.82358 61.6014 3.75874 62.8136 3.95182ZM61.484 1.32638C62.3257 1.45107 62.9749 2.10027 63.0993 2.94159L63.1425 3.10954L62.9746 3.06628C62.1336 2.94096 61.4847 2.29207 61.3593 1.45107L61.3161 1.28312L61.484 1.32638Z" fill="#0D0C0C"/>
<path d="M68.8371 5.97057L67.2187 6.41779C66.0065 6.61023 65.0717 7.54507 64.8792 8.75727L64.4317 10.376L66.0501 9.92876C67.2623 9.73632 68.1971 8.80148 68.3895 7.58928L68.8371 5.97057ZM65.8898 9.04322L65.7215 9.08616L65.7644 8.9179C65.8894 8.07721 66.5387 7.42801 67.379 7.30333L67.5473 7.26038L67.5043 7.42865C67.3793 8.26933 66.7301 8.91853 65.8898 9.04322Z" fill="#0D0C0C"/>
<path d="M67.2187 4.11426L68.8368 4.56116L68.3899 2.94309C68.2938 2.33683 68.0117 1.80023 67.6023 1.39086C67.1926 0.98117 66.6563 0.699352 66.0498 0.602974L64.4317 0.156072L64.8786 1.77414C65.0713 2.98603 66.0065 3.92118 67.2187 4.11426ZM65.8891 1.48882C66.7308 1.61351 67.38 2.26271 67.5043 3.10403L67.5476 3.27198L67.3797 3.22872C66.5387 3.1034 65.8898 2.45451 65.7644 1.61351L65.7212 1.44557L65.8891 1.48882Z" fill="#0D0C0C"/>
<path d="M73.2425 5.97057L71.6241 6.41779C70.4119 6.61023 69.4771 7.54507 69.2846 8.75727L68.8371 10.376L70.4555 9.92876C71.6677 9.73632 72.6025 8.80148 72.795 7.58928L73.2425 5.97057ZM70.2952 9.04322L70.1269 9.08616L70.1699 8.9179C70.2949 8.07721 70.9441 7.42801 71.7844 7.30333L71.9527 7.26038L71.9098 7.42865C71.7848 8.26933 71.1356 8.91853 70.2952 9.04322Z" fill="#0D0C0C"/>
<path d="M71.6241 4.11426L73.2422 4.56116L72.7953 2.94309C72.6992 2.33683 72.4171 1.80023 72.0077 1.39086C71.598 0.98117 71.0618 0.699352 70.4552 0.602974L68.8371 0.156072L69.284 1.77414C69.4768 2.98603 70.4119 3.92118 71.6241 4.11426ZM70.2945 1.48882C71.1362 1.61351 71.7854 2.26271 71.9098 3.10403L71.953 3.27198L71.7851 3.22872C70.9441 3.1034 70.2952 2.45451 70.1699 1.61351L70.1266 1.44557L70.2945 1.48882Z" fill="#0D0C0C"/>
<path d="M77.7705 5.8094L76.1521 6.25662C74.9399 6.44906 74.0051 7.38389 73.8127 8.59609L73.3651 10.2148L74.9835 9.76758C76.1957 9.57514 77.1305 8.64031 77.323 7.4281L77.7705 5.8094ZM74.8232 8.88205L74.6549 8.92499L74.6979 8.75672C74.8229 7.91604 75.4721 7.26684 76.3124 7.14215L76.4807 7.09921L76.4378 7.26747C76.3128 8.10816 75.6636 8.75736 74.8232 8.88205Z" fill="#0D0C0C"/>
<path d="M76.1521 3.95308L77.7702 4.39998L77.3233 2.78191C77.2272 2.17565 76.9451 1.63905 76.5357 1.22968C76.126 0.819992 75.5898 0.538174 74.9832 0.441795L73.3651 -0.00510693L73.812 1.61296C74.0048 2.82485 74.9399 3.76001 76.1521 3.95308ZM74.8226 1.32765C75.6642 1.45233 76.3134 2.10154 76.4378 2.94286L76.481 3.11081L76.3131 3.06755C75.4721 2.94222 74.8232 2.29334 74.6979 1.45233L74.6546 1.28439L74.8226 1.32765Z" fill="#0D0C0C"/>
<path d="M82.176 5.80939L80.5575 6.25661C79.3453 6.44905 78.4105 7.38389 78.2181 8.59609L77.7705 10.2148L79.3889 9.76758C80.6011 9.57514 81.536 8.6403 81.7284 7.4281L82.176 5.80939ZM79.2286 8.88204L79.0603 8.92498L79.1033 8.75672C79.2283 7.91603 79.8775 7.26683 80.7179 7.14215L80.8861 7.09921L80.8432 7.26747C80.7182 8.10815 80.069 8.75736 79.2286 8.88204Z" fill="#0D0C0C"/>
<path d="M80.5575 3.95308L82.1756 4.39998L81.7287 2.7819C81.6327 2.17564 81.3505 1.63904 80.9412 1.22967C80.5315 0.819986 79.9952 0.538168 79.3886 0.441791L77.7705 -0.00511169L78.2174 1.61296C78.4102 2.82484 79.3453 3.76 80.5575 3.95308ZM79.228 1.32764C80.0696 1.45233 80.7188 2.10153 80.8432 2.94285L80.8864 3.1108L80.7185 3.06754C79.8775 2.94222 79.2286 2.29333 79.1033 1.45233L79.06 1.28438L79.228 1.32764Z" fill="#0D0C0C"/>
<path d="M86.5814 5.80814L84.963 6.25536C83.7508 6.4478 82.8159 7.38264 82.6235 8.59484L82.176 10.2135L83.7944 9.76633C85.0066 9.57389 85.9414 8.63905 86.1339 7.42685L86.5814 5.80814ZM83.634 8.88079L83.4658 8.92373L83.5087 8.75547C83.6337 7.91478 84.2829 7.26558 85.1233 7.14089L85.2916 7.09795L85.2486 7.26622C85.1236 8.1069 84.4744 8.7561 83.634 8.88079Z" fill="#0D0C0C"/>
<path d="M84.963 3.95183L86.5811 4.39873L86.1342 2.78065C86.0381 2.17439 85.756 1.63779 85.3466 1.22842C84.9369 0.818736 84.4006 0.536918 83.794 0.440539L82.176 -0.00636292L82.6229 1.61171C82.8156 2.82359 83.7508 3.75875 84.963 3.95183ZM83.6334 1.32639C84.475 1.45108 85.1243 2.10028 85.2486 2.9416L85.2919 3.10955L85.1239 3.06629C84.2829 2.94097 83.634 2.29208 83.5087 1.45108L83.4655 1.28313L83.6334 1.32639Z" fill="#0D0C0C"/>
<path d="M90.9865 5.80815L89.3681 6.25537C88.1559 6.44781 87.2211 7.38265 87.0286 8.59485L86.5811 10.2136L88.1995 9.76633C89.4117 9.5739 90.3465 8.63906 90.539 7.42686L90.9865 5.80815ZM88.0392 8.8808L87.8709 8.92374L87.9139 8.75548C88.0389 7.91479 88.6881 7.26559 89.5284 7.1409L89.6967 7.09796L89.6538 7.26623C89.5288 8.10691 88.8795 8.75611 88.0392 8.8808Z" fill="#0D0C0C"/>
<path d="M89.3681 3.95184L90.9862 4.39874L90.5393 2.78066C90.4432 2.1744 90.1611 1.6378 89.7517 1.22843C89.342 0.818747 88.8057 0.536926 88.1992 0.440548L86.5811 -0.00635242L87.028 1.61172C87.2207 2.8236 88.1559 3.75876 89.3681 3.95184ZM88.0385 1.3264C88.8802 1.45109 89.5294 2.10029 89.6538 2.94161L89.697 3.10956L89.5291 3.0663C88.6881 2.94098 88.0392 2.29209 87.9139 1.45109L87.8706 1.28314L88.0385 1.3264Z" fill="#0D0C0C"/>
<path d="M95.392 5.80813L93.7736 6.25535C92.5614 6.44779 91.6265 7.38263 91.4341 8.59483L90.9865 10.2135L92.6049 9.76632C93.8171 9.57388 94.752 8.63904 94.9444 7.42684L95.392 5.80813ZM92.4446 8.88078L92.2763 8.92372L92.3193 8.75546C92.4443 7.91477 93.0935 7.26557 93.9339 7.14089L94.1021 7.09794L94.0592 7.26621C93.9342 8.10689 93.285 8.75609 92.4446 8.88078Z" fill="#0D0C0C"/>
<path d="M93.7736 3.95182L95.3916 4.39872L94.9447 2.78064C94.8487 2.17438 94.5665 1.63778 94.1572 1.22841C93.7475 0.818727 93.2112 0.536907 92.6046 0.440529L90.9865 -0.0063715L91.4334 1.6117C91.6262 2.82358 92.5614 3.75874 93.7736 3.95182ZM92.444 1.32638C93.2856 1.45107 93.9348 2.10027 94.0592 2.94159L94.1025 3.10954L93.9345 3.06628C93.0935 2.94096 92.4446 2.29207 92.3193 1.45107L92.276 1.28312L92.444 1.32638Z" fill="#0D0C0C"/>
<path d="M99.7971 5.80813L98.1787 6.25535C96.9665 6.44779 96.0316 7.38263 95.8392 8.59483L95.3916 10.2135L97.01 9.76632C98.2222 9.57388 99.1571 8.63904 99.3495 7.42684L99.7971 5.80813ZM96.8497 8.88078L96.6815 8.92372L96.7244 8.75546C96.8494 7.91477 97.4986 7.26557 98.339 7.14089L98.5072 7.09794L98.4643 7.26621C98.3393 8.10689 97.6901 8.75609 96.8497 8.88078Z" fill="#0D0C0C"/>
<path d="M98.1787 3.95182L99.7967 4.39872L99.3498 2.78064C99.2538 2.17438 98.9716 1.63778 98.5623 1.22841C98.1526 0.818727 97.6163 0.536907 97.0097 0.440529L95.3916 -0.0063715L95.8385 1.6117C96.0313 2.82358 96.9665 3.75874 98.1787 3.95182ZM96.8491 1.32638C97.6907 1.45107 98.3399 2.10027 98.4643 2.94159L98.5076 3.10954L98.3396 3.06628C97.4986 2.94096 96.8497 2.29207 96.7244 1.45107L96.6811 1.28312L96.8491 1.32638Z" fill="#0D0C0C"/>
<path d="M104.202 5.97057L102.584 6.41779C101.372 6.61023 100.437 7.54507 100.244 8.75727L99.7967 10.376L101.415 9.92876C102.627 9.73632 103.562 8.80148 103.755 7.58928L104.202 5.97057ZM101.255 9.04322L101.087 9.08616L101.129 8.9179C101.254 8.07721 101.904 7.42801 102.744 7.30333L102.912 7.26038L102.869 7.42865C102.744 8.26933 102.095 8.91853 101.255 9.04322Z" fill="#0D0C0C"/>
<path d="M102.584 4.11426L104.202 4.56116L103.755 2.94309C103.659 2.33683 103.377 1.80023 102.967 1.39086C102.558 0.98117 102.021 0.699352 101.415 0.602974L99.7967 0.156072L100.244 1.77414C100.436 2.98603 101.372 3.92118 102.584 4.11426ZM101.254 1.48882C102.096 1.61351 102.745 2.26271 102.869 3.10403L102.913 3.27198L102.745 3.22872C101.904 3.1034 101.255 2.45451 101.129 1.61351L101.086 1.44557L101.254 1.48882Z" fill="#0D0C0C"/>
<path d="M108.608 5.97057L106.989 6.41779C105.777 6.61023 104.842 7.54507 104.65 8.75727L104.202 10.376L105.821 9.92876C107.033 9.73632 107.968 8.80148 108.16 7.58928L108.608 5.97057ZM105.66 9.04322L105.492 9.08616L105.535 8.9179C105.66 8.07721 106.309 7.42801 107.149 7.30333L107.318 7.26038L107.275 7.42865C107.15 8.26933 106.501 8.91853 105.66 9.04322Z" fill="#0D0C0C"/>
<path d="M106.989 4.11426L108.607 4.56116L108.16 2.94309C108.064 2.33683 107.782 1.80023 107.373 1.39086C106.963 0.98117 106.427 0.699352 105.82 0.602974L104.202 0.156072L104.649 1.77414C104.842 2.98603 105.777 3.92118 106.989 4.11426ZM105.66 1.48882C106.501 1.61351 107.15 2.26271 107.275 3.10403L107.318 3.27198L107.15 3.22872C106.309 3.1034 105.66 2.45451 105.535 1.61351L105.492 1.44557L105.66 1.48882Z" fill="#0D0C0C"/>
<path d="M113.007 5.80814L111.388 6.25536C110.176 6.4478 109.241 7.38263 109.049 8.59483L108.601 10.2135L110.22 9.76632C111.432 9.57388 112.367 8.63905 112.559 7.42685L113.007 5.80814ZM110.06 8.88079L109.891 8.92373L109.934 8.75546C110.059 7.91478 110.708 7.26558 111.549 7.14089L111.717 7.09795L111.674 7.26622C111.549 8.1069 110.9 8.7561 110.06 8.88079Z" fill="#0D0C0C"/>
<path d="M111.388 3.95183L113.007 4.39873L112.56 2.78066C112.464 2.1744 112.181 1.6378 111.772 1.22843C111.362 0.818743 110.826 0.536924 110.219 0.440546L108.601 -0.00635338L109.048 1.61171C109.241 2.8236 110.176 3.75875 111.388 3.95183ZM110.059 1.3264C110.901 1.45109 111.55 2.10028 111.674 2.9416L111.717 3.10956L111.549 3.06629C110.708 2.94097 110.059 2.29209 109.934 1.45108L109.891 1.28314L110.059 1.3264Z" fill="#0D0C0C"/>
<path d="M117.412 5.97058L115.794 6.4178C114.581 6.61024 113.646 7.54507 113.454 8.75727L113.007 10.376L114.625 9.92876C115.837 9.73632 116.772 8.80149 116.964 7.58928L117.412 5.97058ZM114.465 9.04322L114.296 9.08616L114.339 8.9179C114.464 8.07722 115.113 7.42802 115.954 7.30333L116.122 7.26039L116.079 7.42865C115.954 8.26934 115.305 8.91854 114.465 9.04322Z" fill="#0D0C0C"/>
<path d="M115.794 4.11427L117.412 4.56117L116.965 2.9431C116.869 2.33684 116.587 1.80024 116.177 1.39087C115.767 0.981186 115.231 0.699368 114.625 0.60299L113.007 0.156089L113.453 1.77416C113.646 2.98604 114.581 3.92119 115.794 4.11427ZM114.464 1.48884C115.306 1.61353 115.955 2.26273 116.079 3.10405L116.122 3.27199L115.954 3.22873C115.113 3.10341 114.465 2.45453 114.339 1.61353L114.296 1.44558L114.464 1.48884Z" fill="#0D0C0C"/>
<path d="M121.817 5.97058L120.199 6.4178C118.987 6.61024 118.052 7.54507 117.859 8.75727L117.412 10.376L119.03 9.92876C120.243 9.73632 121.177 8.80149 121.37 7.58928L121.817 5.97058ZM118.87 9.04322L118.702 9.08616L118.745 8.9179C118.87 8.07722 119.519 7.42802 120.359 7.30333L120.528 7.26039L120.485 7.42865C120.36 8.26934 119.71 8.91854 118.87 9.04322Z" fill="#0D0C0C"/>
<path d="M120.199 4.11427L121.817 4.56117L121.37 2.9431C121.274 2.33684 120.992 1.80024 120.583 1.39087C120.173 0.981186 119.637 0.699368 119.03 0.60299L117.412 0.156089L117.859 1.77416C118.052 2.98604 118.987 3.92119 120.199 4.11427ZM118.869 1.48884C119.711 1.61353 120.36 2.26273 120.485 3.10405L120.528 3.27199L120.36 3.22873C119.519 3.10341 118.87 2.45453 118.745 1.61353L118.701 1.44558L118.869 1.48884Z" fill="#0D0C0C"/>
<path d="M126.553 5.80814L124.935 6.25536C123.723 6.4478 122.788 7.38263 122.595 8.59483L122.148 10.2135L123.766 9.76632C124.978 9.57388 125.913 8.63905 126.106 7.42685L126.553 5.80814ZM123.606 8.88079L123.438 8.92373L123.481 8.75546C123.606 7.91478 124.255 7.26558 125.095 7.14089L125.263 7.09795L125.221 7.26622C125.096 8.1069 124.446 8.7561 123.606 8.88079Z" fill="#0D0C0C"/>
<path d="M124.935 3.95183L126.553 4.39873L126.106 2.78066C126.01 2.1744 125.728 1.6378 125.319 1.22843C124.909 0.818746 124.373 0.536927 123.766 0.440549L122.148 -0.00635147L122.595 1.61172C122.788 2.8236 123.723 3.75876 124.935 3.95183ZM123.605 1.3264C124.447 1.45109 125.096 2.10029 125.221 2.94161L125.264 3.10956L125.096 3.0663C124.255 2.94097 123.606 2.29209 123.481 1.45109L123.437 1.28314L123.605 1.3264Z" fill="#0D0C0C"/>
<path d="M130.958 5.97058L129.34 6.4178C128.128 6.61024 127.193 7.54507 127.001 8.75727L126.553 10.376L128.171 9.92876C129.384 9.73632 130.318 8.80149 130.511 7.58929L130.958 5.97058ZM128.011 9.04323L127.843 9.08617L127.886 8.9179C128.011 8.07722 128.66 7.42802 129.5 7.30333L129.669 7.26039L129.626 7.42866C129.501 8.26934 128.851 8.91854 128.011 9.04323Z" fill="#0D0C0C"/>
<path d="M129.34 4.11427L130.958 4.56117L130.511 2.9431C130.415 2.33684 130.133 1.80024 129.724 1.39087C129.314 0.981189 128.778 0.699371 128.171 0.602993L126.553 0.156092L127 1.77416C127.193 2.98604 128.128 3.92119 129.34 4.11427ZM128.01 1.48884C128.852 1.61353 129.501 2.26273 129.626 3.10405L129.669 3.27199L129.501 3.22873C128.66 3.10341 128.011 2.45453 127.886 1.61353L127.842 1.44559L128.01 1.48884Z" fill="#0D0C0C"/>
<path d="M135.364 5.97058L133.745 6.4178C132.533 6.61024 131.598 7.54507 131.406 8.75727L130.958 10.376L132.577 9.92876C133.789 9.73632 134.724 8.80149 134.916 7.58929L135.364 5.97058ZM132.416 9.04323L132.248 9.08617L132.291 8.9179C132.416 8.07722 133.065 7.42802 133.906 7.30333L134.074 7.26039L134.031 7.42866C133.906 8.26934 133.257 8.91854 132.416 9.04323Z" fill="#0D0C0C"/>
<path d="M133.745 4.11427L135.364 4.56117L134.917 2.9431C134.821 2.33684 134.538 1.80024 134.129 1.39087C133.719 0.981189 133.183 0.699371 132.576 0.602993L130.958 0.156092L131.405 1.77416C131.598 2.98604 132.533 3.92119 133.745 4.11427ZM132.416 1.48884C133.257 1.61353 133.907 2.26273 134.031 3.10405L134.074 3.27199L133.906 3.22873C133.065 3.10341 132.416 2.45453 132.291 1.61353L132.248 1.44559L132.416 1.48884Z" fill="#0D0C0C"/>
</svg>
