<svg width="738" height="800" viewBox="0 0 738 800" fill="none" xmlns="http://www.w3.org/2000/svg">
<path d="M10.7281 702.93L117.136 792.969C123.152 798.067 130.995 800.554 138.801 799.896C146.644 799.245 153.915 795.498 159 789.488L298.242 624.926L424.885 614.35C432.74 613.699 439.999 609.939 445.084 603.942L730.758 266.245C735.856 260.23 738.354 252.435 737.685 244.58C737.034 236.725 733.286 229.454 727.265 224.368L470.346 7.02173C464.965 2.47271 458.165 -0.000488281 451.167 -0.000488281C450.346 -0.000488281 449.514 0.0361368 448.694 0.108032C440.851 0.759013 433.58 4.51842 428.495 10.5158L142.816 348.22C137.718 354.236 135.22 362.031 135.889 369.886L146.465 496.517L7.24835 661.091C-3.36472 673.584 -1.7974 692.329 10.7281 702.93ZM518.412 255.373C538.188 262.444 548.476 284.224 541.332 303.966C534.261 323.749 512.536 334.005 492.777 326.934C472.987 319.864 462.701 298.083 469.808 278.318C476.85 258.558 498.654 248.253 518.412 255.373ZM446.532 207.505C450.514 196.416 462.719 190.654 473.766 194.624C484.855 198.594 490.592 210.811 486.647 221.895C482.714 232.984 470.46 238.746 459.401 234.799C448.288 230.836 442.49 218.606 446.532 207.505ZM340.498 351.132C354.357 312.555 396.74 292.525 435.328 306.329C473.916 320.163 493.96 362.631 480.143 401.219C466.297 439.759 423.841 459.789 385.264 446.01C346.773 432.152 326.724 389.666 340.498 351.132ZM199.761 525.474C204.322 520.092 206.651 513.281 206.651 506.282H449.856L407.672 556.146L281.029 566.722C273.186 567.373 265.915 571.121 260.83 577.13L162.272 693.626L101.216 641.969L199.761 525.474Z" fill="black"/>
<path d="M340.498 351.132C354.357 312.555 396.74 292.525 435.328 306.329C473.916 320.163 493.96 362.631 480.143 401.219C466.297 439.759 423.841 459.789 385.264 446.01C346.773 432.152 326.724 389.666 340.498 351.132Z" fill="black"/>
<path d="M518.412 255.373C538.188 262.444 548.476 284.224 541.332 303.966C534.261 323.749 512.536 334.005 492.777 326.934C472.987 319.864 462.701 298.083 469.808 278.318C476.85 258.558 498.654 248.253 518.412 255.373Z" fill="black"/>
<path d="M446.532 207.505C450.514 196.416 462.719 190.654 473.766 194.624C484.855 198.594 490.592 210.811 486.647 221.895C482.714 232.984 470.46 238.746 459.401 234.799C448.288 230.836 442.49 218.606 446.532 207.505Z" fill="black"/>
<path d="M199.761 525.474C204.322 520.092 206.651 513.281 206.651 506.282H449.856L407.672 556.146L281.029 566.722C273.186 567.373 265.915 571.121 260.83 577.13L162.272 693.626L101.216 641.969L199.761 525.474Z" fill="black"/>
</svg>
