<?xml version="1.0" encoding="UTF-8"?>
<!DOCTYPE svg PUBLIC "-//W3C//DTD SVG 1.1//EN" "http://www.w3.org/Graphics/SVG/1.1/DTD/svg11.dtd">
<!-- Creator: CorelDRAW -->
<svg xmlns="http://www.w3.org/2000/svg" xml:space="preserve" width="77.8045mm" height="54.7015mm" version="1.1" style="shape-rendering:geometricPrecision; text-rendering:geometricPrecision; image-rendering:optimizeQuality; fill-rule:evenodd; clip-rule:evenodd"
viewBox="0 0 6740.93 4739.3"
 xmlns:xlink="http://www.w3.org/1999/xlink"
 xmlns:xodm="http://www.corel.com/coreldraw/odm/2003">
 <defs>
  <style type="text/css">
   <![CDATA[
    .str0 {stroke:#17395F;stroke-width:6.6;stroke-miterlimit:22.9256}
    .fil0 {fill:#173F6C;fill-rule:nonzero}
   ]]>
  </style>
 </defs>
 <g id="Слой_x0020_1">
  <metadata id="CorelCorpID_0Corel-Layer"/>
  <g id="_2385210902624">
   <path class="fil0" d="M3129.4 4736l991.17 -1981.21 991.18 1981.21 -468.82 0 -122.54 -244.95 0 13.24 -806.24 0 -115.92 231.71 -468.82 0zm1186.94 -652.78l-195.77 -391.31 -195.76 391.31 391.53 0z"/>
   <path class="fil0" d="M1609.23 2754.79l1450.85 0 0 421.08 -1450.85 0 0 -421.08zm421.08 1558.87l1029.78 0 0 421.08 -1029.78 0 -421.08 0 0 -421.08 0 -371.13 0 -411.68 0 -9.4 1450.85 0 0 421.08 -1029.78 0 0 371.13z"/>
   <path class="fil0" d="M23.89 4736l0 -1208.2 887.19 0 0 0.01c50.23,0 95.7,-20.35 128.59,-53.24 32.89,-32.89 53.24,-78.36 53.24,-128.59 0,-50.23 -20.35,-95.7 -53.24,-128.59 -32.89,-32.89 -78.36,-53.23 -128.59,-53.23l-489.99 0 -421.08 -421.08 911.07 0c166.46,0 317.19,67.48 426.3,176.6 109.1,109.1 176.61,259.84 176.61,426.3 0,166.46 -67.48,317.19 -176.61,426.3 -109.1,109.1 -259.83,176.61 -426.3,176.61l0 -0.01 -466.11 0 0 787.13 -421.08 0z"/>
   <polygon class="fil0" points="5195.19,4736 5195.19,2743.08 5616.26,2743.08 5616.26,4736 "/>
   <polygon class="fil0 str0" points="6165.14,4736 5400.69,3763.2 6199.31,2746.92 6734.13,2746.92 5935.52,3763.2 6699.96,4736 "/>
  </g>
  <g id="_2385210899792">
   <path class="fil0" d="M3084.87 1994.95c-275.41,0 -524.78,-111.65 -705.3,-292.16 -180.51,-180.52 -292.16,-429.9 -292.16,-705.31 0,-275.41 111.66,-524.78 292.16,-705.3 180.52,-180.51 429.9,-292.16 705.3,-292.16l520.09 0 0 421.08 -520.09 0c-159.19,0 -303.3,64.51 -407.59,168.8 -104.3,104.3 -168.8,248.41 -168.8,407.59 0,159.19 64.51,303.31 168.8,407.59 104.3,104.3 248.4,168.81 407.59,168.81l0 -1.33 520.09 0 0 421.08 -520.09 0 0 1.33z"/>
   <polygon class="fil0" points="1576.65,1994.95 1576.65,2.02 1997.74,2.02 1997.74,1994.95 "/>
   <path class="fil0" d="M3706.62 15.01l1450.85 0 0 421.08 -1450.85 0 0 -421.08zm421.08 1558.87l1029.78 0 0 421.08 -1029.78 0 -421.08 0 0 -421.08 0 -371.13 0 -411.68 0 -9.4 1450.85 0 0 421.08 -1029.78 0 0 371.13z"/>
  </g>
 </g>
</svg>
