<svg width="145" height="69" xmlns="http://www.w3.org/2000/svg" xmlns:xlink="http://www.w3.org/1999/xlink"><use xlink:href="#path0_fill" fill="#FFF"/><use xlink:href="#path1_fill" transform="translate(.98 .94)" fill="#00529C"/><use xlink:href="#path2_fill" transform="translate(105.54 7.99)" fill="#00529C"/><use xlink:href="#path3_fill" transform="translate(17.43 17.29)" fill="#004999"/><use xlink:href="#path4_fill" transform="translate(17.69 17.55)" fill="#FFF"/><use xlink:href="#path5_fill" transform="translate(20.92 44.03)" fill="#004999"/><use xlink:href="#path6_fill" transform="translate(68.95 25.07)" fill="#004999"/><use xlink:href="#path7_fill" transform="translate(69.39 25.04)" fill="#004999"/><use xlink:href="#path8_fill" transform="translate(68.4 25.04)" fill="#004999"/><use xlink:href="#path9_fill" transform="translate(67.77 35.93)" fill="#004999"/><use xlink:href="#path10_fill" transform="translate(71.55 30.73)" fill="#004999"/><use xlink:href="#path11_fill" transform="translate(72.27 30)" fill="#004999"/><use xlink:href="#path12_fill" transform="translate(71.14 28.81)" fill="#004999"/><use xlink:href="#path13_fill" transform="translate(73.11 29.27)" fill="#004999"/><use xlink:href="#path14_fill" transform="translate(74.47 28.67)" fill="#004999"/><use xlink:href="#path15_fill" transform="translate(72.1 27.56)" fill="#004999"/><use xlink:href="#path16_fill" transform="translate(73.23 26.78)" fill="#004999"/><use xlink:href="#path17_fill" transform="translate(74.56 26.29)" fill="#004999"/><use xlink:href="#path18_fill" transform="translate(75.69 27.91)" fill="#004999"/><use xlink:href="#path19_fill" transform="translate(75.75 27.24)" fill="#004999"/><use xlink:href="#path20_fill" transform="translate(75.84 26.66)" fill="#004999"/><use xlink:href="#path21_fill" transform="translate(75.92 25.97)" fill="#004999"/><use xlink:href="#path22_fill" transform="translate(75.94 28.64)" fill="#004999"/><use xlink:href="#path23_fill" transform="translate(76.14 29.19)" fill="#004999"/><use xlink:href="#path24_fill" transform="translate(76.4 29.74)" fill="#004999"/><use xlink:href="#path25_fill" transform="translate(67.61 26.33)" fill="#004999"/><use xlink:href="#path26_fill" transform="translate(62.59 21.15)" fill="#004999"/><use xlink:href="#path27_fill" transform="translate(69.24 26.75)" fill="#004999"/><use xlink:href="#path28_fill" transform="translate(18.76 18.59)" fill="#004999"/><use xlink:href="#path29_fill" transform="translate(24.51 47.72)" fill="#FFF"/><use xlink:href="#path30_fill" transform="translate(95.94 49.05)" fill="#FFF"/><use xlink:href="#path31_fill" transform="translate(81.75 49.05)" fill="#FFF"/><use xlink:href="#path32_fill" transform="translate(70.22 49.08)" fill="#FFF"/><use xlink:href="#path33_fill" transform="translate(56.67 49.05)" fill="#FFF"/><use xlink:href="#path34_fill" transform="translate(42.6 49.11)" fill="#FFF"/><use xlink:href="#path35_fill" transform="translate(111.84 48.65)" fill="#FFF"/><use xlink:href="#path36_fill" transform="translate(107.76 48.62)" fill="#FFF"/><use xlink:href="#path37_fill" transform="translate(27.05 50.45)" fill="#FFF"/><defs><path id="path0_fill" d="M104.787 15.717c-.751.116-1.618-.116-2.283-.32a8.84 8.84 0 0 1-1.445-.58c-.347-.203-.722-.465-.925-.813l-.086-.174a2.405 2.405 0 0 1-.983.29c-.491.058-1.011-.058-1.474-.203-.607-.203-1.213-.494-1.647-.958-.434-.465-.636-1.075-.434-1.714.116-.377.376-.725.752-.87.173-.059.318-.088.491-.088.26-.552.607-1.103 1.07-1.48.202-.146.404-.262.606-.378-.029-.116-.086-.232-.086-.378a2.682 2.682 0 0 1 .086-1.51 2.737 2.737 0 0 1 1.185-1.539 3.205 3.205 0 0 1 1.705-.464c.549 0 1.127.087 1.647.261.376.116.752.262 1.127.407.318.116.636.261.983.348.202.058.405.116.578.145.26.058.52.117.78.204.405.145.809.319 1.127.58.26.204.434.436.549.697.203-.087.405-.116.636-.145.723-.058 1.734.378 2.37.668.462.203.896.435 1.271.755.174.145.318.32.434.493.231-.029.433-.029.693 0 .55.088 1.128.32 1.648.552l.231.087c.838.378 1.821.988 1.821 2.004v.174c.491-.348 1.184-.32 1.791-.116a9.577 9.577 0 0 1 1.705.697c.492.261 1.012.551 1.445.929.636.523.896 1.307.491 2.09-.173.32-.433.581-.809.698-.173.058-.375.058-.578.087-.029.058-.057.116-.086.145-.174.261-.318.552-.463.813a4.884 4.884 0 0 1 1.041-.871 4.719 4.719 0 0 1 1.936-.697 5.425 5.425 0 0 1 2.052.058 5.61 5.61 0 0 1 1.878.784c.318.203.636.465.896.755.202.232.405.494.578.755.029.058.058.087.116.145.144.058.289.116.404.203.376.262.607.64.723 1.075a.445.445 0 0 1 .028.203c.521-.261 1.185-.174 1.763.087.607.261 1.156.61 1.676 1.016.405.32.752.668 1.041 1.046.173.203.289.435.347.668.26.029.52.116.751.203.52.203 1.069.61 1.503.958.809.639 1.907 1.655 1.56 2.788a2.194 2.194 0 0 1-.26.522c-.347.465-.896.668-1.474.581a4.14 4.14 0 0 0-.433.523c.231-.146.491-.262.751-.378a5.183 5.183 0 0 1 1.994-.377 5.847 5.847 0 0 1 1.994.435 6.09 6.09 0 0 1 1.763 1.19c.607.581 1.098 1.278 1.358 2.062.231.697.347 1.423.289 2.178a6.29 6.29 0 0 1-.491 1.888 5.228 5.228 0 0 1-.925 1.422 4.76 4.76 0 0 1-3.814 1.48 5.039 5.039 0 0 1-1.966-.492 5.755 5.755 0 0 1-1.705-1.162c-.491-.493-.924-1.045-1.213-1.713a5.196 5.196 0 0 1-.463-1.974v-.233c-.375.32-.867.407-1.358.349-.722-.087-1.589-.726-2.138-1.162-.578-.464-1.301-1.103-1.503-1.858-.289-.03-.578-.087-.838-.233a7.86 7.86 0 0 1-1.474-.929 6.578 6.578 0 0 1-1.185-1.19c-.26-.349-.462-.726-.462-1.133a1.413 1.413 0 0 1-.896-.203 1.222 1.222 0 0 0-.318-.058 13.977 13.977 0 0 1-1.069-.232 3.475 3.475 0 0 1-1.185-.581 5.286 5.286 0 0 1-1.85-2.062 4.944 4.944 0 0 1-.52-1.51 1.638 1.638 0 0 1-.722.61c-.434.203-.954.116-1.416 0-.607-.145-1.243-.464-1.821-.755-.636-.32-1.416-.784-1.792-1.452a3.088 3.088 0 0 1-.982-.261l-1.792-.784a2.087 2.087 0 0 1-.549-.32 1.406 1.406 0 0 1-.434-.638c-.057-.174-.115-.349-.173-.552a1.458 1.458 0 0 1-.462.261c-.405.146-.867.088-1.272-.029-.52-.116-1.04-.348-1.532-.551-.549-.262-1.358-.61-1.762-1.075 0-.058-.058-.116-.116-.174zm1.04-2.439c0-.029.029-.029.029-.058.318-.523.607-1.133.867-1.684.174-.378.318-.755.492-1.133.115-.261.202-.551.26-.813 0-.029 0-.058.029-.087a1.565 1.565 0 0 1-.203-.377h-.029a.834.834 0 0 1-.26.058 2.72 2.72 0 0 0-.173.435l-1.012 3.136c-.028.087-.086.233-.086.349.029.058.058.087.086.116-.028.029-.028.029 0 .058zm22.917 9.495a.405.405 0 0 1-.202.058c-.318.116-.665.116-.983.058.231.262.347.581.347.93.173-.204.318-.407.462-.581.145-.174.261-.32.376-.465zm-9.161-3.34a1.84 1.84 0 0 0-.086.233c.028.03.028.058.057.087 0-.087.029-.203.029-.32zm-2.976-6.503c-.232.174-.521.29-.838.26-.347-.028-.694-.144-1.012-.26-.029 0-.087-.03-.115-.03-.174.059-.347.088-.492.146-.115.029-.26.087-.375.145.028.058.028.116.057.174l1.07 3.455a.631.631 0 0 0 .115.146c.087.116.203.261.289.377.231-.377.463-.87.578-1.074l.52-1.016c.174-.349.405-.784.521-1.133 0-.029.028-.087.028-.116 0-.03-.028-.03-.028-.058-.087-.174-.203-.378-.261-.58-.057-.146-.086-.291-.057-.436zm10.056 9.495a1.691 1.691 0 0 1-.606-.988c-.058-.348-.058-.726-.058-1.074 0-.232-.029-.523-.116-.726-.058-.145-.26-.29-.404-.377-.029 0-.058-.03-.087-.03a.411.411 0 0 0-.174.059.894.894 0 0 0-.231.232 3.212 3.212 0 0 0-.404.842c-.087.261-.116.523-.087.784 0 .203.058.407.173.58.116.175.261.32.434.436.144.087.376.233.549.262.144.029.318.029.462 0h.549zm4.393 5.14c.029 0 .058-.03.087-.03.115-.058.231-.203.347-.32a.633.633 0 0 1-.145-.115l-.058.087c-.058.087-.173.203-.231.32 0 .028 0 .057.029.057h-.029zm2.543-3.253h-.115c-.029.03-.058.058-.087.116l.144.116c.029-.058.058-.087.087-.116 0-.058-.029-.087-.029-.116zm6.878 6.795c-.058.029-.116.058-.173.116-.174.174-.347.435-.492.668a6.85 6.85 0 0 0-.52 1.016 2.13 2.13 0 0 0-.202.842v.058a.746.746 0 0 0 .173-.145c.289-.29.52-.697.723-1.045a4.34 4.34 0 0 0 .491-1.278v-.232zM82.044 8.574c.115-.29.318-.552.636-.697h.028a2.3 2.3 0 0 1 .636-.174c.029 0 .058 0 .087-.03.202-.202.52-.667.665-.87l.982-1.423c.202-.29.405-.58.578-.9a2.93 2.93 0 0 0 .347-.668c.087-.203.144-.407.202-.61.116-.61.376-1.161.867-1.539.55-.435 1.214-.493 1.907-.377.694.116 1.272.522 1.677 1.103.346.494.606 1.075.809 1.655.086.262.173.552.26.813.173.552.318 1.104.491 1.655.26.93.55 1.859.78 2.817v.029c.232.116.434.261.578.436.26.319.318.697.231 1.103-.115.61-.52 1.045-1.127 1.249a3.392 3.392 0 0 1-1.213.116c-.376-.03-.752-.087-1.127-.146-.52-.087-1.04-.174-1.56-.319a3.26 3.26 0 0 1-1.128-.494 1.626 1.626 0 0 1-.549-.784c-.607.813-1.792.726-2.659.552-.433-.087-.924-.174-1.33-.348-.375-.145-.721-.378-.924-.726a1.686 1.686 0 0 1-.202-.61c-.174.436-.55.755-.983.93-.664.29-1.676.26-2.37.203-1.155-.088-3.207-.262-3.554-1.656-.029-.145-.058-.29-.029-.435.03-.465.231-.9.636-1.133.144-.087.347-.145.52-.203.058-.203.087-.494.087-.668l.173-1.655a1.932 1.932 0 0 1-1.069.232 1.564 1.564 0 0 1-1.243-.725c-.26-.349-.346-.784-.318-1.22.03-.494.203-.958.405-1.365.231-.435.491-.813.867-1.132.405-.349.867-.61 1.416-.552.173 0 .405.087.607.145.26.058.549.116.81.116l2.802.204c.231.029.463.029.665 0 .231-.058.462-.087.694-.058.462.029.838.29 1.155.61.318.319.578.725.752 1.16.202.495.26.988.231 1.51-.029.494-.202.959-.578 1.307-.376.378-.896.523-1.445.494-.347-.029-.694-.145-.954-.348l-.144 2.177v.088c.029.029.087.029.115.058.434.174.752.58.81 1.103zm-21.617-4.24c.058-.26.116-.551.203-.812.23-.64.578-1.249 1.069-1.743.462-.493 1.04-.9 1.676-1.19a6.107 6.107 0 0 1 2.052-.523c.838-.058 1.676.03 2.456.378.694.29 1.3.697 1.792 1.248.434.494.81 1.017 1.07 1.626.23.523.375 1.075.433 1.626a4.802 4.802 0 0 1-.318 2.12 5.185 5.185 0 0 1-1.127 1.713 5.352 5.352 0 0 1-1.676 1.133c-.636.29-1.3.435-1.994.493a5.456 5.456 0 0 1-2.052-.232 4.966 4.966 0 0 1-1.763-.958 1.406 1.406 0 0 1-.231-.203c-.058.435-.29.813-.636 1.132-.549.465-1.59.697-2.283.813-.722.116-1.676.232-2.399-.116-.202.203-.462.348-.722.464a8.53 8.53 0 0 1-1.676.494c-.55.087-1.098.145-1.676.116a3.083 3.083 0 0 1-.78-.174c-.492.523-1.503.813-2.14 1.016-.693.204-1.646.407-2.398.145a2.504 2.504 0 0 1-.664.552c-.52.29-1.04.494-1.619.668-.549.145-1.098.261-1.647.29-.838.03-1.59-.319-1.82-1.161-.174-.58.028-1.133.462-1.539a1.752 1.752 0 0 1-.058-.348c-.087-.436-.231-.871-.347-1.307-.173-.552-.318-1.133-.491-1.684-.029-.145-.087-.29-.145-.436a2.83 2.83 0 0 1-.462-.145c-.029 0-.029-.029-.058-.029-.029.058-.057.087-.086.145a5.078 5.078 0 0 0-.145.639l-.78 5.256c-.231 1.48-.925 2.787-2.37 3.368h-.029a2.724 2.724 0 0 1-1.445.145 2.83 2.83 0 0 1-1.242-.552 2.423 2.423 0 0 1-.752-1.045 2.4 2.4 0 0 1-.115-1.277c.086-.407.26-.784.549-1.075.087-.087.173-.174.26-.232L32.28 12c-.173-.087-.347-.203-.55-.29.088.32.088.639 0 .958a1.79 1.79 0 0 1-.982 1.162 1.77 1.77 0 0 1-1.011.203l.982 1.945c0 .03.03.059.03.059h.115c.607-.03 1.185.232 1.474.813.318.61.173 1.248-.203 1.77-.404.582-1.3 1.075-1.936 1.395-1.011.522-2.89 1.422-3.901.406a1.105 1.105 0 0 1-.26-.377c-.203-.407-.26-.872-.03-1.278.088-.145.232-.32.348-.436-.058-.203-.203-.464-.26-.61l-.694-1.51c-.173.32-.462.581-.78.756a1.663 1.663 0 0 1-.491.174v.058a1.97 1.97 0 0 1-.405.9 1.373 1.373 0 0 1 1.011.145c.318.175.578.407.752.726.173.32.26.668.318 1.017.057.377.029.755-.058 1.132-.116.436-.318.842-.694 1.074-.058.087-.144.175-.202.262-.202.29-.462.58-.694.842-.317.32-.664.58-1.04.813a5.298 5.298 0 0 1-2.659.726c-.924 0-1.82-.204-2.63-.668h-.028a4.78 4.78 0 0 1-.116 1.916 5.735 5.735 0 0 1-.867 1.859 5.852 5.852 0 0 1-1.474 1.451 5.827 5.827 0 0 1-1.878.872 5.508 5.508 0 0 1-1.82.116c.173.145.317.32.462.493.318.378.52.843.52 1.336 0 .552-.26 1.016-.665 1.365-.347.32-.81.522-1.3.493a4.738 4.738 0 0 1-.925-.174c-.029 0-.058 0-.087-.029-.173.116-.375.29-.549.407-.462.348-.896.726-1.33 1.103-.375.349-.78.668-1.155 1.045-.116.117-.29.262-.405.407v.145c0 .32 0 .668-.029.987-.057.465-.318.872-.664 1.162-.376.348-.867.465-1.387.377a1.858 1.858 0 0 1-1.099-.638c-.289-.349-.578-.726-.78-1.133-.144-.32-.202-.639-.115-.987.057-.174.115-.349.202-.523 0-.029.029-.087.029-.087 0-.29-.174-.842-.26-1.132l-.492-1.655c-.115-.349-.202-.697-.318-1.017a6.948 6.948 0 0 0-.289-.697 1.648 1.648 0 0 0-.346-.522C.26 30.642 0 30.09 0 29.452c0-.784.376-1.365.896-1.8a2.568 2.568 0 0 1 1.907-.61 7.63 7.63 0 0 1 1.792.406c.433.145.896.378 1.3.552.694.32 1.388.61 2.081.929.491.232.954.436 1.445.668.058 0 .116-.03.173-.03-.028-.028-.057-.057-.115-.057a5.129 5.129 0 0 1-1.503-1.452 5.103 5.103 0 0 1-.838-1.946c-.144-.667-.116-1.364.029-2.032a5.74 5.74 0 0 1 .81-1.888 6.2 6.2 0 0 1 1.502-1.51c.693-.493 1.445-.842 2.283-.958a4.966 4.966 0 0 1 2.167.145c.434.146.867.32 1.272.552 0-.087-.03-.203-.03-.29a5.012 5.012 0 0 1 .261-2.062 6.054 6.054 0 0 1 .982-1.8 5.595 5.595 0 0 1 1.532-1.336 3.772 3.772 0 0 1 1.07-.435c.317-.087.606-.117.924-.175.058 0 .116 0 .174-.029a1.86 1.86 0 0 1 .375-.29c.405-.232.838-.261 1.272-.145.058 0 .115.029.144.029.03-.232.058-.436.145-.668.144-.494.433-.958.924-1.22.145-.087.405-.145.578-.174.26-.087.52-.174.752-.32l2.514-1.277c.202-.116.405-.232.578-.348.174-.146.376-.32.578-.407.405-.203.867-.203 1.3-.087.203.058.405.116.578.203.116-.464.463-.842.896-1.132.52-.349 1.098-.61 1.676-.842h.03c.52-.174 1.097-.378 1.647-.465.433-.058.895-.058 1.271.116a.632.632 0 0 1 .145.087c.173-.9 1.156-1.393 1.936-1.684l.26-.087h.029c.491-.174 1.214-.435 1.763-.348.202.029.404.116.578.232.202-.261.462-.494.78-.668a8.717 8.717 0 0 1 1.792-.755c.317-.087.664-.174.982-.232.434-.116.867-.203 1.33-.348.346-.088.664-.204 1.011-.32.376-.145.78-.261 1.156-.377.896-.262 2.196-.523 2.977.174.23-.349.606-.61 1.011-.784.607-.261 1.214-.465 1.878-.552a6.3 6.3 0 0 1 1.474-.087c.26.03.52.087.723.174.202-.174.404-.32.636-.435.52-.262 1.155-.407 1.705-.494 1.011-.174 2.485-.32 3.12.697.087.174.174.348.203.523.116.58-.116 1.103-.55 1.48.03.29.087.581.116.872zm-10.085.61c-.058.088-.116.146-.174.233.058.348.174.755.29 1.103l.809 2.788c.057.029.144.029.202.058l.058-.058c0-.117-.03-.262-.03-.378-.057-.435-.115-.9-.202-1.336a30.022 30.022 0 0 0-.318-1.713c-.028-.145-.057-.32-.086-.464-.145-.058-.29-.116-.434-.204-.057 0-.086 0-.115-.029zM22.888 18.592c-.376.145-.752.203-1.156.087-.318-.116-.665-.29-.983-.436-.202-.116-.462-.232-.693-.232-.145 0-.376.116-.52.174-.03 0-.058.03-.087.058-.029.058-.029.117-.029.175.029.116.058.203.087.29.144.261.346.523.578.755.202.174.404.32.635.435.203.088.405.117.607.117.203 0 .405-.088.578-.175.145-.087.376-.232.492-.377.086-.116.173-.261.23-.407.088-.174.174-.319.26-.464zm13.524-9.64l.174.087V8.98c-.058 0-.116-.03-.173-.03zm10.23 1.451v-.087c0-.232-.115-.61-.173-.842l-.693-2.38a8.027 8.027 0 0 0-.145-.465c-.029 0-.058.029-.087.029-.028 0-.057.029-.086.029.029.116.058.26.115.377l.838 2.962c.03.087.087.261.116.377.029 0 .058.03.058.03.029-.03.058-.03.058-.03zm9.653-2.09c.029-.03.029-.058.029-.087.029-.117 0-.29-.03-.465-.057 0-.115.029-.201.029l.028.087c.03.087.058.261.087.378.03 0 .03.029.058.029 0 .029 0 .029.029.029zm-.723-4.066l-.086.088c0 .058 0 .087.029.145l.173-.03c0-.057-.029-.115-.029-.144-.029-.059-.058-.059-.087-.059zM5.057 33.053l.116-.116c-.029-.029-.087-.029-.116-.058-.029 0-.029-.03-.058-.03.03.088.03.146.058.204zm6.156-9.06c0 .088.029.146.086.204.145.203.376.435.55.61.288.261.578.493.895.697.232.145.52.29.78.377h.058c-.029-.058-.057-.145-.086-.203-.232-.349-.578-.668-.896-.93-.347-.29-.723-.551-1.156-.725-.029 0-.145-.058-.231-.03zm54.012-20.18c-.03.058-.03.145-.03.232.03.262.087.552.174.813.116.378.231.726.405 1.075.115.261.289.522.49.726l.03.029a.25.25 0 0 0 0-.204 4.62 4.62 0 0 0-.29-1.248 4.097 4.097 0 0 0-.635-1.22c.029-.058-.058-.174-.144-.203z"/><path id="path1_fill" d="M2.171 36.296c-.058-.145-.087-.261-.058-.32.03-.086.058-.202.145-.406.086-.203.115-.348.115-.493 0-.233-.115-.697-.289-1.365l-.49-1.655c-.145-.436-.261-.813-.348-1.046a6.229 6.229 0 0 0-.347-.813 3.39 3.39 0 0 0-.49-.755c-.29-.319-.434-.667-.405-.987 0-.348.173-.668.549-.987.346-.29.722-.407 1.185-.378.462.03.982.175 1.56.349.145.058.55.232 1.214.523.693.319 1.358.61 2.08.929.694.32 1.214.552 1.532.697.116.058.29.058.463.029.173-.03.346-.058.49-.087.145-.03.29.029.434.145.29.203.55.464.78.726.203.232.29.435.29.668 0 .232-.116.435-.318.638-.203.204-.405.29-.578.262-.174 0-.405-.058-.723-.145-.318-.088-.549-.088-.664 0-.347.203-1.07.784-2.168 1.742-.982.842-1.56 1.423-1.792 1.713-.086.116-.115.348-.115.668 0 .348 0 .61-.029.813-.029.203-.145.406-.347.58-.144.146-.347.175-.549.146-.202-.03-.376-.145-.52-.32-.29-.348-.52-.639-.607-.87zm3.323-4.733c-.289-.174-.635-.32-1.04-.493-.405-.175-.636-.29-.751-.32-.203-.087-.376-.116-.492-.174a.377.377 0 0 0-.317.058c-.087.087-.116.232-.087.465.029.232.087.406.144.58.03.175.116.436.203.813.086.349.173.668.289.93.028.058.057.087.057.116.058.087.145.116.26.087.087-.03.203-.058.29-.145l1.444-1.278a.603.603 0 0 0 .174-.29c.029-.087 0-.175-.058-.262 0-.058-.058-.087-.116-.087zm2.283-5.052c-.346-.494-.578-1.017-.664-1.568a3.432 3.432 0 0 1 .029-1.626c.115-.552.346-1.046.664-1.54.318-.464.752-.9 1.243-1.248.607-.435 1.243-.697 1.85-.784.635-.087 1.213-.058 1.762.116.55.174 1.04.407 1.445.697s.752.61.983.958c.347.494.549 1.017.665 1.568a4.009 4.009 0 0 1-.087 1.655 4.674 4.674 0 0 1-.723 1.54 6.054 6.054 0 0 1-1.213 1.219 4.77 4.77 0 0 1-1.561.726c-.55.145-1.098.145-1.647.058-.55-.087-1.04-.29-1.532-.58-.462-.291-.867-.698-1.214-1.191zm1.821-4.269a.728.728 0 0 0-.347.726c0 .32.087.581.29.842.144.204.375.465.693.755.318.29.665.552 1.04.813.376.233.752.407 1.098.494.347.087.636.058.896-.116.26-.203.405-.436.405-.726s-.087-.58-.29-.871c-.23-.349-.577-.697-1.04-1.104a5.174 5.174 0 0 0-1.444-.9c-.55-.174-.983-.145-1.301.087zm7.86-7.404c.29-.174.55-.29.81-.348a6.5 6.5 0 0 1 .809-.146c.289-.029.462-.058.52-.116.087-.058.144-.116.231-.174.058-.058.145-.116.174-.145.144-.087.346-.087.578-.058.23.058.462.174.722.406.26.203.462.494.665.842.173.29.23.581.173.9-.058.29-.231.523-.491.697-.231.116-.405.174-.578.116-.174-.058-.434-.174-.838-.377-.405-.203-.752-.32-1.07-.348-.317-.03-.664.087-1.069.319-.23.145-.404.32-.491.552a1.454 1.454 0 0 0-.087.697c.03.232.116.464.232.667.202.378.462.697.75.959.29.26.608.493.926.638.346.146.693.204 1.04.204a2.397 2.397 0 0 0 1.04-.32c.376-.203.636-.435.78-.639.145-.203.26-.435.347-.667.087-.233.145-.378.232-.407.144-.087.26-.087.433 0a1 1 0 0 1 .347.349c.087.145.144.348.173.638.03.262.03.523-.029.784-.057.233-.173.407-.317.494-.087.058-.232.203-.434.465-.202.26-.405.522-.607.755-.202.232-.491.435-.838.638a4.252 4.252 0 0 1-2.196.61c-.78 0-1.503-.174-2.168-.523-.664-.377-1.184-.87-1.56-1.539-.29-.493-.434-1.016-.492-1.597a4.732 4.732 0 0 1 .203-1.684c.173-.551.462-1.045.809-1.51.347-.493.78-.87 1.271-1.132zm8.844-4.675c.288-.145.549-.32.75-.494.145-.145.29-.232.377-.29.144-.058.346-.058.635 0 .29.058.578.203.867.436.29.232.52.493.694.842.144.26.173.493.116.726-.058.232-.203.406-.463.522-.202.116-.376.116-.578.087a2.796 2.796 0 0 1-.607-.29c-.23-.145-.404-.261-.491-.29a.367.367 0 0 0-.347 0c-.231.116-.26.406-.029.813l1.59 3.165c.173.348.318.522.462.58.145.03.347.058.607.03.289 0 .462.087.55.26.115.204.057.465-.145.756-.203.29-.723.668-1.59 1.074-1.618.842-2.572.987-2.832.465-.087-.145-.087-.262-.058-.349a2.24 2.24 0 0 1 .29-.348c.144-.175.23-.32.23-.436 0-.203-.144-.61-.404-1.161l-1.07-2.323-.115-.262c-.173-.377-.318-.58-.433-.638a.348.348 0 0 0-.29-.03.388.388 0 0 0-.202.233c-.029.116-.058.32-.115.61-.058.29-.116.551-.203.726a.915.915 0 0 1-.404.406.671.671 0 0 1-.578 0 .799.799 0 0 1-.434-.436 2.622 2.622 0 0 1-.26-1.016c-.029-.377 0-.755.116-1.074.087-.32.231-.523.433-.61.03 0 .145-.058.405-.116.347-.116.636-.232.925-.377l2.6-1.191zm5.433-.03c-.376-.202-.636-.348-.839-.435a1.954 1.954 0 0 0-.549-.087c-.23.03-.375-.087-.462-.29-.145-.349.029-.668.462-.958.434-.29.925-.523 1.503-.755a7.572 7.572 0 0 1 1.445-.407c.347-.058.578-.029.722.03.145.057.232.144.26.26.03.088.058.175.058.233a.901.901 0 0 1-.057.232c-.03.087-.058.145-.058.203 0 .058 0 .088.029.175s.202.203.491.377c.318.174.636.349.954.494.317.145.52.203.578.174.115-.03.202-.203.26-.494.058-.29.115-.61.115-.929 0-.32 0-.552-.029-.639a.261.261 0 0 0-.173-.174c-.087-.029-.202-.029-.347-.029a1.08 1.08 0 0 1-.347-.058.261.261 0 0 1-.173-.174c-.144-.436.289-.813 1.3-1.22l.26-.087c.636-.232 1.04-.32 1.272-.29.231.029.376.174.463.377a.353.353 0 0 1-.03.29c-.057.088-.144.233-.26.378-.115.145-.202.494-.288 1.045l-.839 5.256c-.202 1.365-.78 2.207-1.762 2.584-.347.117-.665.146-.954.117a1.901 1.901 0 0 1-.78-.349c-.203-.174-.376-.377-.463-.61-.086-.261-.115-.493-.086-.726a1.49 1.49 0 0 1 .289-.61c.144-.174.346-.29.578-.377.144-.058.289-.087.404-.087.145 0 .231.03.318.058.087.03.173.087.231.116.058.058.116.087.145.116.115.088.26.088.404.03.174-.059.26-.175.203-.29-.03-.059-.058-.088-.145-.117l-4.104-2.352zM43.64 4.995a.686.686 0 0 0-.174.262c-.029.087-.029.203 0 .377.03.174.087.407.174.726l.838 2.962c.115.435.231.697.347.813.115.116.26.174.433.261a.566.566 0 0 1 .347.378c.087.348-.087.61-.491.87a6.899 6.899 0 0 1-1.416.582c-.492.145-.954.232-1.416.232-.463.029-.752-.116-.839-.465-.057-.203.03-.377.232-.58.115-.117.202-.204.23-.262a.78.78 0 0 0 .059-.32c0-.144-.03-.377-.116-.696-.058-.32-.202-.755-.347-1.365-.23-.784-.404-1.336-.491-1.713-.116-.348-.202-.61-.26-.755-.058-.145-.145-.232-.173-.261a1.53 1.53 0 0 0-.318-.087c-.145-.03-.26-.058-.318-.117-.087-.029-.116-.116-.145-.203-.115-.377.087-.697.607-.987a6.37 6.37 0 0 1 1.59-.668c.057-.029.375-.087.924-.232.55-.145 1.012-.262 1.359-.349a21.87 21.87 0 0 0 1.04-.348c.433-.145.78-.261 1.098-.349 1.33-.377 2.052-.319 2.196.204.058.232 0 .435-.202.61-.115.116-.202.203-.231.26-.029.088-.029.233 0 .494.029.262.144.668.318 1.22l.809 2.875c.058.174.116.32.173.377.058.087.174.145.347.174.145.03.26.058.347.117.058.029.116.116.173.26.058.233 0 .465-.23.698-.203.232-.781.493-1.735.755-1.271.377-1.965.29-2.11-.204a.482.482 0 0 1 .03-.406c.057-.087.144-.203.202-.32.087-.116.115-.29.115-.551 0-.262-.057-.639-.202-1.133l-.694-2.38c-.144-.523-.288-.872-.375-1.017-.116-.145-.202-.232-.347-.261-.058-.03-.289.029-.722.174-.376.232-.607.32-.636.348zm15.403 1.8c.029.175.087.32.144.407.058.087.174.145.318.203.145.059.26.088.347.146a.562.562 0 0 1 .145.261c.028.232-.058.465-.29.668-.23.203-.837.406-1.791.58-1.3.233-1.994.088-2.08-.435-.03-.174 0-.32.057-.407.087-.087.144-.174.26-.29.087-.116.144-.29.173-.523.03-.26 0-.638-.086-1.132-.03-.203-.087-.32-.116-.407-.058-.087-.115-.116-.202-.116-.087 0-.231.03-.463.058-.49.088-.809.146-.982.204-.174.058-.29.116-.318.232-.029.087-.029.261 0 .465l.058.406c.086.436.173.726.26.842.115.116.231.203.404.29a.561.561 0 0 1 .318.407c.058.348-.144.61-.578.813a6.373 6.373 0 0 1-1.445.436c-.49.087-.982.116-1.444.087-.463-.03-.723-.204-.78-.523-.03-.203.057-.377.288-.552.116-.087.203-.174.26-.232.058-.058.087-.145.087-.32.029-.145 0-.377-.029-.696-.029-.32-.115-.784-.202-1.394-.145-.784-.26-1.394-.318-1.742-.087-.378-.145-.639-.202-.784a.887.887 0 0 0-.145-.262 2.844 2.844 0 0 0-.318-.116c-.144-.058-.231-.087-.318-.145-.057-.058-.115-.116-.144-.203-.058-.378.173-.668.693-.93a6.362 6.362 0 0 1 1.648-.493 4.517 4.517 0 0 1 1.242-.058c.405.029.636.203.694.494.029.145.029.29-.029.377a2.246 2.246 0 0 1-.289.349 1.395 1.395 0 0 0-.202.232c-.03.087-.03.203-.03.377 0 .175.059.436.116.755.03.233.116.378.203.436.086.058.23.058.433.029l.29-.058.577-.116a2.45 2.45 0 0 0 .491-.117c.087-.058.145-.087.174-.174 0-.058 0-.174-.03-.29-.086-.552-.201-.9-.288-1.045-.087-.146-.202-.262-.318-.29a1.543 1.543 0 0 1-.376-.175c-.086-.058-.115-.145-.144-.261-.029-.146 0-.262.058-.407.057-.145.26-.29.549-.435.318-.146.78-.29 1.445-.407 1.358-.232 2.08-.087 2.167.436.029.232-.058.435-.26.61-.145.086-.231.174-.26.232-.029.087-.058.232-.029.493.029.262.087.668.173 1.249l.434 2.962zm1.33-2.206c-.03-.61.028-1.162.23-1.684.174-.523.463-.988.839-1.394A4.123 4.123 0 0 1 62.8.552a5.46 5.46 0 0 1 1.705-.436 4.382 4.382 0 0 1 1.994.29c.578.262 1.069.581 1.445 1.017.375.435.693.87.896 1.365a4.2 4.2 0 0 1 .346 1.306c.03.61-.028 1.162-.26 1.684-.202.523-.52.988-.896 1.365-.404.407-.867.697-1.387.958a4.736 4.736 0 0 1-1.676.407 4.827 4.827 0 0 1-1.705-.203 4.363 4.363 0 0 1-1.445-.784c-.433-.349-.751-.784-1.011-1.278a4.981 4.981 0 0 1-.434-1.655zm3.727-2.73a.82.82 0 0 0-.664.436 1.498 1.498 0 0 0-.203.871c.03.261.087.61.203 1.016.115.407.288.842.462 1.22.202.406.433.726.693.987.26.261.52.378.81.349.317-.03.578-.146.722-.407.145-.261.202-.552.202-.9-.028-.407-.144-.9-.317-1.481a5.711 5.711 0 0 0-.78-1.51c-.348-.406-.694-.61-1.128-.58zM79.65.436c.318.029.607.029.896-.03.202-.029.346-.058.462-.058.144 0 .347.117.549.32.202.203.376.493.52.813.145.348.203.697.174 1.074-.03.29-.116.523-.29.668-.173.174-.375.232-.664.203-.231-.029-.405-.087-.52-.232a2.043 2.043 0 0 1-.376-.552l-.26-.522a.318.318 0 0 0-.289-.175c-.26-.029-.405.204-.462.697l-.232 3.601c-.028.377 0 .639.087.726.087.087.26.203.491.348.232.146.347.32.347.523-.029.232-.173.436-.52.58-.318.146-.954.175-1.907.117-1.82-.116-2.717-.494-2.659-1.045 0-.175.058-.29.145-.32.086-.029.23-.087.433-.145.231-.058.347-.145.433-.261.116-.175.203-.581.26-1.22l.26-2.526.03-.29c.028-.407 0-.668-.058-.785-.058-.116-.145-.174-.26-.174a.37.37 0 0 0-.29.116c-.086.088-.202.233-.404.465s-.376.407-.549.523c-.173.116-.347.174-.55.145-.201 0-.375-.116-.49-.29a.838.838 0 0 1-.145-.581c.03-.32.116-.64.29-.988.172-.348.404-.638.635-.842.26-.232.491-.319.694-.319.028 0 .173.029.433.116.347.087.665.116.983.145l2.803.175zm5.23 4.558c.26-.377.463-.697.607-.929.145-.232.29-.493.405-.755.115-.29.231-.551.26-.842.087-.435.231-.726.491-.958.26-.203.636-.261 1.098-.174.434.087.78.32 1.04.697.26.377.492.87.694 1.451.087.204.318.988.723 2.381.404 1.394.665 2.323.751 2.759.058.203.116.348.202.436a1.3 1.3 0 0 0 .318.232.987.987 0 0 1 .26.174c.058.058.058.145.03.29-.03.233-.174.378-.434.465-.26.087-.52.116-.838.087-.318-.029-.665-.058-1.04-.145-.665-.116-1.156-.232-1.503-.29a2.652 2.652 0 0 1-.752-.32c-.173-.145-.26-.32-.202-.552.029-.116.058-.203.144-.26.058-.059.174-.088.29-.117.115-.029.202-.058.288-.087.087-.03.087-.087.116-.174.029-.175 0-.32-.087-.407-.086-.087-.26-.174-.549-.232-.289-.087-.722-.174-1.387-.29-.347-.059-.578-.059-.751-.03-.145.03-.26.175-.29.436-.028.087 0 .174.059.203.057.058.144.087.26.145a.63.63 0 0 1 .26.204c.058.058.058.174.029.29-.087.465-.694.58-1.792.407-.52-.088-.896-.175-1.127-.29-.26-.117-.405-.204-.462-.32a.556.556 0 0 1-.058-.378c.029-.145.086-.261.173-.29.087-.03.231-.087.434-.116.202-.058.375-.116.462-.203.173-.146.462-.523.867-1.104l1.011-1.394zm2.226 1.22c.289.058.462.029.49-.058.03-.116-.057-.465-.26-.987a2.841 2.841 0 0 0-.201-.494c-.058-.116-.145-.203-.26-.203-.087-.03-.174.029-.26.116-.087.087-.174.174-.232.29-.058.116-.116.203-.173.32-.03.058-.087.116-.116.203-.058.087-.087.174-.144.261-.058.087-.087.145-.087.203 0 .059 0 .117.058.146.058.029.173.058.318.087l.867.116zm16.79 5.314c-.145.406-.174.697-.116.87.058.175.145.35.289.524.145.174.174.319.145.464-.174.523-.954.58-2.341.116-.578-.174-.983-.348-1.272-.523-.289-.145-.462-.29-.52-.435a.552.552 0 0 1-.029-.436c.029-.116.087-.203.174-.232.057-.058.173-.087.289-.116a4.25 4.25 0 0 0 .289-.087c.086-.03.144-.116.202-.203a6.34 6.34 0 0 0 .433-1.046c.058-.232.116-.377.116-.493 0-.116 0-.175-.029-.233a.449.449 0 0 0-.173-.116.817.817 0 0 0-.694.058 2.493 2.493 0 0 0-.549.64c-.26.435-.462.754-.636.986a2.745 2.745 0 0 1-.578.581 1.51 1.51 0 0 1-.78.29c-.318.03-.665-.029-1.098-.174-.578-.174-.983-.406-1.214-.668-.231-.26-.318-.522-.231-.755.058-.145.116-.232.173-.26.058-.03.174-.03.318-.03.145 0 .26-.029.376-.087.116-.058.202-.203.318-.436.26-.551.549-.958.838-1.19.289-.232.636-.349 1.07-.378.115 0 .201-.029.26-.029.057-.029.086-.058.115-.145.029-.087 0-.174-.116-.261a1.434 1.434 0 0 1-.462-.871c-.058-.349-.058-.668.058-1.017a1.82 1.82 0 0 1 .751-1.016 2.69 2.69 0 0 1 1.214-.348c.462 0 .896.058 1.329.203.26.087.636.232 1.069.406.463.175.781.29 1.012.378.144.058.375.116.664.174.289.058.521.116.694.174.318.117.607.262.838.436.231.174.318.406.231.668-.057.145-.115.232-.231.261-.115.03-.231.058-.347.087a.942.942 0 0 0-.404.262c-.145.145-.26.406-.376.784l-1.069 3.223zm-1.387-4.53c.057-.232.086-.407.057-.494 0-.087-.115-.174-.289-.232-.52-.174-.866.116-1.127.842-.115.349-.144.639-.057.871.086.232.289.407.635.523.116.029.203.029.26 0 .058-.03.087-.087.145-.203a.899.899 0 0 0 .058-.233l.318-1.074z"/><path id="path2_fill" d="M5.03 7.785c-.26-.9-.463-1.394-.607-1.452-.203-.087-.405.058-.578.435l-.087.233a.422.422 0 0 0-.029.319c.029.087.058.203.145.348.057.146.115.262.144.349.029.116 0 .203-.029.32a.427.427 0 0 1-.289.26c-.144.059-.376.03-.722-.057-.347-.088-.78-.262-1.359-.494-.75-.348-1.242-.61-1.416-.842-.202-.232-.26-.436-.144-.639.058-.116.116-.203.173-.232.058-.03.174-.058.29-.087.115-.03.23-.087.346-.146.116-.058.231-.203.347-.377.26-.407.578-1.016.925-1.83.202-.464.375-.841.49-1.16.117-.32.232-.64.319-.93.058-.203.086-.377.058-.494a1.78 1.78 0 0 0-.145-.348C2.775.845 2.747.758 2.718.67c-.03-.088 0-.175.057-.32.087-.203.318-.32.636-.348.347-.03.983.174 1.879.58.433.204.78.407 1.069.61.289.233.347.494.202.813-.058.145-.173.233-.347.29a1.53 1.53 0 0 0-.433.233c-.116.087-.26.32-.434.668-.144.29-.115.464 0 .522.087.03.26 0 .52-.087.26-.116.52-.232.752-.377.26-.145.376-.261.433-.349.03-.087.058-.174.03-.319 0-.145 0-.232.028-.32.145-.319.405-.435.81-.348.404.058.866.232 1.415.465l.232.087c1.011.435 1.387.9 1.184 1.365-.115.26-.26.377-.404.348-.173 0-.405-.087-.694-.203-.318-.116-.52-.145-.664-.087a8.303 8.303 0 0 1-.607.174 2.643 2.643 0 0 0-.665.261c-.202.116-.347.233-.404.349-.058.116-.058.232-.058.377.029.116.058.32.144.552L8.47 9.12c.028.116.115.262.288.436.145.174.26.348.29.465.057.116.028.29-.058.464-.174.378-.578.436-1.185.145l-1.792-.784a.834.834 0 0 1-.289-.174.508.508 0 0 1-.144-.203 4.743 4.743 0 0 1-.145-.523L5.03 7.785zm6.675-.087c.29-.61.491-1.017.578-1.278.087-.261.116-.465.087-.58-.03-.088-.058-.233-.145-.378a1.42 1.42 0 0 1-.173-.378c-.029-.087 0-.203.058-.32.144-.319.52-.377 1.127-.202.578.174 1.098.406 1.56.61.492.26.925.522 1.243.812.318.29.405.581.26.871-.058.117-.116.175-.202.204-.087.029-.202.029-.347.029-.173 0-.289.029-.376.058-.144.058-.289.232-.491.552-.202.319-.405.725-.665 1.22l-.52 1.015c-.231.436-.404.784-.52 1.046a2.813 2.813 0 0 0-.202.58c-.03.117-.03.204-.03.262 0 .029.059.116.116.203.058.087.145.203.174.261.058.088.086.175.115.233 0 .087 0 .174-.057.261-.058.145-.174.232-.318.29-.145.058-.405.058-.78-.058-.376-.087-.925-.32-1.619-.667-1.156-.581-1.618-1.104-1.387-1.54.058-.087.116-.174.202-.203.087-.029.174-.058.318-.058a.732.732 0 0 0 .29-.058c.23-.087.635-.726 1.213-1.858l.491-.93zm9.912 1.48c.29.175.492.378.665.581.174.203.347.407.491.668.145.232.26.378.318.407.087.058.174.087.26.116.087.029.174.058.232.087.144.087.23.261.289.493.057.233.057.494-.03.814-.057.319-.23.638-.433.987a1.23 1.23 0 0 1-.722.551.883.883 0 0 1-.838-.145c-.232-.145-.347-.29-.376-.464-.029-.175-.029-.465-.029-.93 0-.435-.058-.813-.173-1.103-.116-.29-.376-.58-.752-.813a1.274 1.274 0 0 0-.693-.203c-.232.029-.463.087-.665.232a1.97 1.97 0 0 0-.491.494 4.261 4.261 0 0 0-.52 1.103 3.741 3.741 0 0 0-.145 1.103c.029.378.116.697.29 1.017.172.32.432.58.75.784.347.232.665.377.925.406.26.03.52.058.752 0 .23-.029.404-.029.462.03.115.086.202.203.173.377a.88.88 0 0 1-.144.464c-.087.146-.26.29-.491.436a2.296 2.296 0 0 1-.723.32c-.231.057-.433.028-.578-.059-.087-.058-.289-.116-.607-.174a11.178 11.178 0 0 1-.953-.203 3.561 3.561 0 0 1-.954-.465 4.506 4.506 0 0 1-1.532-1.684c-.347-.697-.52-1.423-.491-2.178a4.122 4.122 0 0 1 .636-2.09 3.77 3.77 0 0 1 1.185-1.162 4.367 4.367 0 0 1 1.59-.58 4.814 4.814 0 0 1 1.704.057c.636.204 1.156.436 1.618.726zm6.85 12.806a.974.974 0 0 0-.203.377c-.029.116 0 .232.058.378.058.145.116.261.116.348 0 .087-.03.174-.116.29-.145.175-.376.262-.694.233-.317-.03-.867-.349-1.647-.958-1.04-.814-1.387-1.423-1.07-1.83.116-.145.232-.203.348-.203h.375c.145 0 .318-.087.52-.232.203-.146.463-.436.78-.842.116-.146.203-.29.203-.378a.227.227 0 0 0-.058-.232c-.058-.058-.173-.174-.346-.32-.376-.29-.665-.493-.81-.61-.144-.086-.289-.115-.375-.086-.087.029-.203.145-.347.319l-.26.32c-.29.348-.434.61-.434.754-.029.145 0 .32.058.494a.51.51 0 0 1-.087.494c-.202.26-.549.319-.982.087a6.39 6.39 0 0 1-1.3-.813 6.926 6.926 0 0 1-1.041-1.017c-.289-.377-.347-.697-.145-.958.116-.174.318-.203.578-.145.145.029.26.058.347.058.058 0 .174-.058.29-.145a3.83 3.83 0 0 0 .49-.494c.203-.232.492-.61.867-1.074.492-.639.867-1.104 1.07-1.423.231-.29.375-.523.433-.668.087-.145.116-.232.087-.29 0-.058-.058-.174-.116-.32-.057-.145-.086-.232-.115-.319a.227.227 0 0 1 .058-.232c.23-.29.607-.32 1.155-.087.52.232 1.012.551 1.474.9.347.261.636.551.867.87.26.32.29.61.087.843a.606.606 0 0 1-.318.232c-.116.03-.26.03-.462 0a.447.447 0 0 0-.29.03c-.086.028-.173.115-.288.232-.116.116-.29.319-.491.58-.145.204-.203.349-.174.436.029.116.116.232.26.348l.231.174.463.349c.173.145.318.232.433.29.087.03.174.058.231.03.058-.03.116-.117.203-.204.347-.435.549-.755.607-.9.057-.174.057-.32 0-.407-.058-.174-.116-.29-.116-.377 0-.087.029-.203.116-.29.086-.117.202-.175.346-.233.145-.029.376 0 .694.116.318.117.751.407 1.271.814 1.099.842 1.474 1.48 1.128 1.916-.145.203-.347.261-.607.203-.145-.029-.29-.058-.347-.029-.087.03-.231.116-.405.29a7.597 7.597 0 0 0-.809.988l-1.792 2.323zm2.6-.61a3.737 3.737 0 0 1 1.388-.958c.52-.204 1.04-.32 1.589-.29a4.5 4.5 0 0 1 1.618.377c.52.232 1.012.552 1.474.987.55.523.896 1.075 1.127 1.684.202.61.29 1.19.231 1.771a5.2 5.2 0 0 1-.404 1.569c-.232.464-.463.842-.752 1.132a3.837 3.837 0 0 1-1.416.958c-.52.203-1.069.29-1.618.233a4.584 4.584 0 0 1-1.618-.407 4.31 4.31 0 0 1-1.416-.987 4.215 4.215 0 0 1-.983-1.394c-.231-.523-.376-1.045-.376-1.597-.029-.552.087-1.104.29-1.626.144-.523.462-1.017.866-1.452zm4.508.958a.756.756 0 0 0-.78-.203 1.51 1.51 0 0 0-.78.435c-.173.175-.376.465-.607.843a7.647 7.647 0 0 0-.607 1.19c-.173.407-.26.813-.289 1.162-.029.377.087.638.29.842.23.232.49.319.78.26.288-.057.549-.202.78-.464.289-.29.578-.696.867-1.248a6.032 6.032 0 0 0 .607-1.597c.144-.523.057-.93-.26-1.22z"/><path id="path3_fill" fill-rule="evenodd" d="M23.003 23.259l.174-.058c7.774-2.7 13.756-6.766 16.096-15.1l.116-.406.29-.32C43.55 3.02 48.982 0 54.878 0c5.895 0 11.328 3.02 15.2 7.375l.29.32.115.406c2.312 8.334 8.294 12.37 16.097 15.1l.173.058h8.699c7.831 0 14.305 6.3 14.305 14.228 0 7.898-6.474 14.228-14.305 14.228H14.305C6.473 51.715 0 45.414 0 37.487c0-7.898 6.473-14.228 14.305-14.228h8.698z"/><path id="path4_fill" fill-rule="evenodd" d="M22.772 23.259l.203-.058c7.918-2.759 13.9-6.882 16.24-15.274l.087-.348.26-.29C43.666 2.67 49.129 0 54.562 0c5.462 0 10.895 2.671 14.998 7.288l.26.29.087.35c2.341 8.39 8.352 12.514 16.241 15.273l.203.058h8.756c7.745 0 14.045 6.243 14.045 13.966 0 7.724-6.3 13.967-14.045 13.967H14.045C6.3 51.192 0 44.95 0 37.225 0 29.502 6.3 23.26 14.045 23.26h8.727z"/><path id="path5_fill" fill-rule="evenodd" d="M10.808 0C4.826 0 0 4.878 0 10.86c0 5.982 4.855 10.86 10.808 10.86h81.09c5.982 0 10.808-4.878 10.808-10.86C102.706 4.878 97.851 0 91.898 0h-81.09z"/><path id="path6_fill" fill-rule="evenodd" d="M.173.958L.26.465.347 0H0l.087.465.086.493z"/><path id="path7_fill" fill-rule="evenodd" d="M0 .987L.231.552l.26-.436L.318.058.116 0 .058.494 0 .987z"/><path id="path8_fill" fill-rule="evenodd" d="M.462.987L.232.552 0 .116.173.058.347 0l.058.494.057.493z"/><path id="path9_fill" fill-rule="evenodd" d="M0 .755C.087.61.52.058.925 0c.404.203.809.494 1.214.726 0 .029-.058.029-.03.058L0 .755z"/><path id="path10_fill" fill-rule="evenodd" d="M.491 0c.463.029.694.174 1.098.436-.173.116-.404.174-.49.203C.693.609.375.494 0 .349V.29C.116.203.347.058.491 0z"/><path id="path11_fill" fill-rule="evenodd" d="M.897 0c.029 0 .058.029.086.029.087.087.723.639.838.639h.03v.058C1.59.987.954.9.636.784.434.639.203.464 0 .319-.03 0 .694 0 .897 0z"/><path id="path12_fill" fill-rule="evenodd" d="M.129 1.771C-.073 1.25-.073.465.389.087.447.058.476.03.534 0 .62.552.967.697.649 1.365c-.173.174-.289.29-.462.435-.03 0-.058 0-.058-.029z"/><path id="path13_fill" fill-rule="evenodd" d="M2.08 1.141V1.2c-.144.03-.433.116-.577.058C.953 1.17.52.647.029.415 0 .386 0 .386 0 .357.231.183.231.183.462.037c.694-.232 1.243.669 1.619 1.104z"/><path id="path14_fill" fill-rule="evenodd" d="M.867 1.48C.578 1.25.347.756.144.437.087.377 0 .319 0 .232.029.203.087.174.116.145.318.058.52 0 .75 0c.232.087.232.116.26.145.318.349.376.958.636 1.365-.086.116-.318.116-.375.116-.26-.029-.29-.058-.405-.145z"/><path id="path15_fill" fill-rule="evenodd" d="M.202 2.149A16.861 16.861 0 0 1 0 .87C.087.436.462.174.81 0 .78.407.866.813.895 1.249c0 .203-.087.377-.116.435-.144.203-.347.436-.549.523-.029 0-.029-.03-.029-.058z"/><path id="path16_fill" fill-rule="evenodd" d="M.004.93C.148.522.408.32.784.115.9.058 1.015.03 1.131 0 .957.494.986.987.84 1.48c-.144.378-.288.64-.635.814H.12c0-.32-.144-1.045-.115-1.365z"/><path id="path17_fill" fill-rule="evenodd" d="M.173.58C.203.29.81 0 1.07 0c0 .087 0 .116-.029.174-.144 0-.115 1.307-.289 1.54-.173.144-.375.348-.693.435H0C.087 1.626.058 1.074.173.58z"/><path id="path18_fill" fill-rule="evenodd" d="M.029.408C0 .35 0 .292 0 .292c.029 0 .838-.32.954-.29.057.203.057.232.057.261C.636.437.29.38.03.408z"/><path id="path19_fill" fill-rule="evenodd" d="M.023.377C-.035.232.023.29.11.203.341.145.601.058.861 0 .92.174.92.232.92.232.543.407.226.348.023.377z"/><path id="path20_fill" fill-rule="evenodd" d="M.023.32C-.035.173.023.231.11.173.312.116.572.03.804 0 .86.174.86.203.86.232.515.377.226.32.023.32z"/><path id="path21_fill" fill-rule="evenodd" d="M.023.348C-.035.203.023.29.11.203.312.145.572.058.804 0 .86.174.86.203.86.232.543.377.226.348.023.348z"/><path id="path22_fill" fill-rule="evenodd" d="M.01.261C-.018.116.01.174.126.116A6.02 6.02 0 0 1 .936 0c.057.203.057.232.028.261-.404.087-.751 0-.954 0z"/><path id="path23_fill" fill-rule="evenodd" d="M.01.232C-.018.087.01.145.126.087.357.058.617 0 .877 0c.03.174.03.232.03.261C.53.348.241.232.01.232z"/><path id="path24_fill" fill-rule="evenodd" d="M.01.203C-.018.058.01.145.126.058.328.03.588 0 .82 0c.028.174.028.203.028.232C.473.29.213.203.01.203z"/><path id="path25_fill" fill-rule="evenodd" d="M5.59 10.443c.058-.175.55-1.394.318-2.381-.405-1.597-2.399-1.626-2.774.058-.174.697-.145 1.423-.03 2.178 0 0 0 .028-.028.028C1.63 9.833.793 8.933.273 7.626-.767 3.793 1.515 3.88 1.37 1.296 1.284.57.793.454.186.135a3.864 3.864 0 0 1 1.907-.03c.231.059.405.204.463.436-.058.552 0 3.659.173 3.746.202-.087.347-.726.491-.726.087.348.174.668.231.987 0 .32-.375.378-.404.639.029.029.029.029.029.058.231 0 .375-.29.636-.29.26.087.664.116.924.261-.057.145-.318.29-.433.377A.465.465 0 0 0 4 5.71l.028.029c.058 0 .116-.03.174-.03 3.005-.319 4.71 2.353 5.173 4.676H5.59v.058zM1.718.338c.115 0 .202.087.202.203a.198.198 0 0 1-.202.203.198.198 0 0 1-.203-.203c0-.116.087-.203.203-.203z"/><path id="path26_fill" fill-rule="evenodd" d="M9.71 0c5.375 0 9.71 4.356 9.71 9.756 0 5.401-4.335 9.757-9.71 9.757-5.375 0-9.71-4.356-9.71-9.757C0 4.356 4.335 0 9.71 0zm0 .93c4.855 0 8.785 3.948 8.785 8.826 0 4.879-3.93 8.828-8.785 8.828S.925 14.634.925 9.756C.925 4.878 4.855.93 9.71.93z"/><path id="path27_fill" d="M.087.174A.087.087 0 0 0 .173.087a.087.087 0 1 0-.086.087z"/><path id="path28_fill" fill-rule="evenodd" d="M12.976 23.288h8.93l.375-.146c8.15-2.845 14.478-7.172 16.935-15.999l.029-.116.086-.087C43.233 2.555 48.377 0 53.521 0S63.837 2.555 67.71 6.94l.087.087.029.116c2.456 8.798 8.785 13.154 16.934 16l.376.145h8.93c7.166 0 12.975 5.778 12.975 12.892s-5.809 12.892-12.975 12.892h-81.09C5.809 49.072 0 43.294 0 36.18s5.809-12.892 12.976-12.892zm12.542 0h56.005c-7.629-3.223-12.397-7.085-14.796-15.477C63 3.63 58.26 1.16 53.55 1.132c-4.768-.029-9.536 2.44-13.293 6.679-2.428 8.392-7.11 12.254-14.738 15.477zm-12.542 1.074h81.09c6.56 0 11.906 5.285 11.906 11.818 0 6.533-5.317 11.818-11.906 11.818h-81.09c-6.56 0-11.907-5.285-11.907-11.818 0-6.533 5.347-11.818 11.907-11.818z"/><path id="path29_fill" fill-rule="evenodd" d="M7.138 0c3.93 0 7.138 3.194 7.138 7.172 0 3.95-3.179 7.172-7.138 7.172C3.178 14.344 0 11.15 0 7.172.029 3.194 3.208 0 7.138 0zm0 .58c3.612 0 6.531 2.933 6.531 6.563s-2.919 6.563-6.531 6.563c-3.612 0-6.531-2.933-6.531-6.563S3.526.581 7.138.581z"/><path id="path30_fill" fill-rule="evenodd" d="M.173 10.744c.058-.204.145-.32.232-.378a3.33 3.33 0 0 1 .52-.29c.26-.145.462-.261.578-.436.144-.203.289-.406.433-.668.116-.26.29-.61.52-1.045L3.468 5.72c.376-.813.636-1.51.838-2.09.202-.581.318-1.133.318-1.685 0-.61.173-1.074.462-1.422C5.376.174 5.866 0 6.56 0c.607 0 1.127.232 1.56.668a9.64 9.64 0 0 1 1.301 1.8c.058.116.289.58.694 1.452.404.871.75 1.655 1.098 2.41.347.755.607 1.336.809 1.771.202.436.347.784.462 1.046.087.174.26.348.55.493.288.175.49.29.577.378.116.087.174.261.231.522.03.146.058.407.116.726.029.349.058.61.058.755 0 .407-.116.726-.318.958-.202.233-.52.378-.925.378-.404 0-.664-.087-.838-.261-.173-.175-.376-.436-.636-.842-.26-.378-.49-.61-.693-.64-.231-.057-.723-.086-1.474-.115-.751-.03-1.532-.03-2.34-.03-.55 0-1.07 0-1.532.03-.463 0-.838.029-1.156.058-.318.029-.55.058-.752.087-.173.029-.404.232-.722.61-.29.377-.55.638-.78.842-.232.174-.52.29-.867.29-.29 0-.492-.116-.665-.32-.174-.203-.29-.493-.318-.841 0-.262.029-.523.058-.813.029-.29.086-.523.115-.668zm7.803-1.917c-.144-.377-.347-.842-.578-1.394-.26-.551-.433-.9-.549-1.132a4.648 4.648 0 0 0-.376-.61c-.115-.145-.23-.232-.375-.232s-.347.145-.52.436c-.174.29-.318.522-.376.696-.116.233-.29.552-.52 1.017-.232.464-.405.87-.55 1.248-.028.087-.028.145-.028.204.029.26.23.406.606.406h2.66a.61.61 0 0 0 .462-.174c.115-.087.173-.232.144-.465z"/><path id="path31_fill" fill-rule="evenodd" d="M3.266 5.72c.375-.813.635-1.51.838-2.09.202-.581.318-1.133.318-1.685 0-.61.173-1.074.462-1.422C5.173.174 5.664 0 6.358 0c.607 0 1.127.232 1.56.668a9.64 9.64 0 0 1 1.3 1.8c.145.261.665 1.278 1.532 3.078.867 1.8 1.416 2.99 1.705 3.63.116.261.232.435.347.522.116.087.29.204.463.262.202.087.346.145.404.203.087.058.116.203.145.377 0 .32-.174.581-.492.755-.317.175-.693.262-1.156.32-.433.058-.924.058-1.416.058-.896 0-1.59-.03-2.051-.058-.463-.03-.839-.116-1.128-.261-.288-.146-.433-.378-.462-.697 0-.233.087-.378.231-.465a2.56 2.56 0 0 1 .492-.232c.173-.087.26-.204.26-.349-.03-.261-.116-.435-.29-.522-.144-.117-.433-.175-.837-.204a25.96 25.96 0 0 0-1.85-.058c-.491 0-.81.058-1.011.145-.203.088-.29.32-.29.668 0 .116.058.233.116.262.058.058.174.087.347.174a.93.93 0 0 1 .376.232c.086.087.144.232.173.407 0 .639-.78.987-2.34.987-.665 0-1.186-.03-1.532-.116-.347-.087-.607-.175-.723-.32A.97.97 0 0 1 0 10.744c0-.233.058-.378.144-.436.087-.058.29-.145.578-.261.29-.116.492-.262.607-.407.145-.174.29-.406.434-.668.144-.26.289-.61.52-1.045l.983-2.207zm3.323 1.162c.433 0 .636-.058.636-.203 0-.117-.087-.32-.231-.61l-.347-.697c-.116-.261-.26-.465-.376-.639-.116-.145-.231-.232-.405-.232-.115 0-.202.087-.317.232-.116.145-.203.32-.26.523-.058.174-.116.32-.145.406a6.245 6.245 0 0 0-.173.494c-.087.261-.145.435-.145.523.029.087.058.174.145.174.086.029.23.029.404.029H6.59z"/><path id="path32_fill" fill-rule="evenodd" d="M6.213 0c.376 0 .723.029 1.04.116a8.1 8.1 0 0 1 .896.29c.26.117.492.204.665.29.174.059.318.117.405.117.115 0 .23-.029.375-.058.145-.03.26-.058.347-.058.202 0 .405.087.636.261.202.174.405.436.549.784.145.349.26.726.318 1.19 0 .117.029.291.029.552 0 .465-.145.872-.405 1.191-.26.32-.636.494-1.098.494-.347 0-.607-.088-.751-.262a9.21 9.21 0 0 1-.723-1.045c-.318-.523-.664-.9-1.04-1.162-.376-.26-.867-.377-1.503-.377-.578 0-.982.203-1.3.639a2.41 2.41 0 0 0-.434 1.394c0 .145 0 .377.03.696.057.697.26 1.307.548 1.888a3.535 3.535 0 0 0 1.185 1.336 3.09 3.09 0 0 0 1.705.493 4.32 4.32 0 0 0 1.156-.145 2.36 2.36 0 0 0 .81-.407c.23-.174.404-.29.52-.406.115-.087.23-.145.317-.145.203 0 .347.087.463.261.115.174.202.407.202.668 0 .406-.173.871-.491 1.394-.318.522-.665.784-1.04.784-.116 0-.29.058-.492.145s-.462.203-.81.348a6.523 6.523 0 0 1-1.068.32 5.13 5.13 0 0 1-1.185.116 6.268 6.268 0 0 1-2.197-.407 5.912 5.912 0 0 1-1.878-1.132C1.444 9.669.983 9.118.664 8.45A5.71 5.71 0 0 1 .03 6.388c0-.116-.029-.32-.029-.58 0-.814.202-1.569.52-2.265a5.882 5.882 0 0 1 1.416-1.859C2.543 1.161 3.208.726 3.93.436A6.137 6.137 0 0 1 6.213 0z"/><path id="path33_fill" fill-rule="evenodd" d="M0 5.836c0-1.103.289-2.09.81-2.99.548-.9 1.27-1.568 2.224-2.091A6.7 6.7 0 0 1 6.155 0c.954 0 1.821.174 2.572.523a5.594 5.594 0 0 1 1.85 1.364 6.534 6.534 0 0 1 1.127 1.772c.26.638.433 1.248.491 1.829 0 .116.03.261.03.465 0 .842-.174 1.626-.521 2.323a6.125 6.125 0 0 1-1.387 1.829 7.03 7.03 0 0 1-2.023 1.19 7.088 7.088 0 0 1-2.34.407c-.781 0-1.504-.116-2.168-.378-.694-.26-1.3-.61-1.82-1.074A6.1 6.1 0 0 1 .664 8.595a6.256 6.256 0 0 1-.607-2.09C0 6.358 0 6.154 0 5.835zM5.404 2.44c-.405 0-.722.174-.982.523a2.127 2.127 0 0 0-.347 1.19c0 .087 0 .233.029.465.057.61.202 1.278.433 2.032.231.755.52 1.394.925 1.917.376.523.809.784 1.271.784.318 0 .578-.087.78-.232.203-.175.376-.378.463-.64.116-.26.145-.55.145-.841 0-.233 0-.436-.03-.581a9.52 9.52 0 0 0-.433-2.033c-.231-.726-.52-1.306-.896-1.829-.404-.523-.838-.755-1.358-.755z"/><path id="path34_fill" fill-rule="evenodd" d="M5.52 1.975a.844.844 0 0 0-.405.493c-.058.203-.087.639-.087 1.365V8.1c0 .29.03.465.03.552.028.32.086.552.173.697.086.145.202.261.346.377.145.117.26.204.318.29.058.088.116.233.145.436 0 .465-.347.784-1.012.959a9.72 9.72 0 0 1-2.08.232c-.376 0-.78-.03-1.185-.087a5.08 5.08 0 0 1-1.185-.32c-.347-.174-.55-.435-.578-.755 0-.29.173-.522.52-.667.231-.117.405-.233.491-.378.087-.116.174-.406.203-.9.058-.465.086-1.249.086-2.323.03-1.771 0-2.875-.057-3.34-.03-.232-.058-.406-.116-.522-.058-.087-.087-.174-.144-.203-.058-.03-.174-.087-.318-.174C.49 1.858.347 1.77.26 1.685c-.087-.059-.116-.175-.144-.32C.116.813.52.465 1.3.29 2.08.116 2.861 0 3.67 0c.174 0 .694.029 1.503.058.809.03 1.416.058 1.763.058.289 0 .751-.029 1.416-.058C8.988.03 9.565 0 10.115 0c1.82 0 2.774.377 2.832 1.132 0 .349-.174.581-.492.755-.202.088-.346.175-.404.29-.087.088-.145.32-.174.698a22.57 22.57 0 0 0-.057 1.742l-.03 4.181c.03.262.059.465.145.61a.676.676 0 0 0 .347.348c.173.088.318.175.405.262a.576.576 0 0 1 .144.406.96.96 0 0 1-.173.552c-.116.174-.405.32-.867.435-.463.146-1.156.204-2.139.204-1.763 0-2.658-.378-2.745-1.104-.03-.26.029-.435.144-.522.116-.087.26-.204.405-.32.144-.116.289-.348.404-.697.116-.348.145-.87.145-1.597V3.89c0-.436 0-.755-.029-.987-.029-.349-.087-.61-.144-.726a.634.634 0 0 0-.29-.262c-.057-.058-.404-.058-1.01-.058-.608.03-.926.058-1.012.117z"/><path id="path35_fill" fill-rule="evenodd" d="M0 4.094V0h.867L2.11 3.513c.057-.203.144-.406.23-.638L3.41.029h.78v4.094h-.549V.64L2.37 4.065h-.52L.578.581v3.484H0v.03z"/><path id="path36_fill" fill-rule="evenodd" d="M1.474 4.123V.493H0V0h3.497v.494H2.052v3.63h-.578z"/><path id="path37_fill" fill-rule="evenodd" d="M4.364 6.737V4.385h.664v3.368h3.353l1.011-1.016V3.368H6.705V0H3.352L2.341 1.016v2.352H1.01L0 4.385v3.368h3.352l1.012-1.016zM2.34 3.687v.523H.838l.491-.522h1.012zm1.358.698h.347v2.003l-.491.523V4.559l.144-.174zm2.34-1.017l-.173.175V1.19l.492-.494v2.352l-.318.32zM5.52.842L6.04.32H3.7l-.491.523H5.52zm3.526 3.194v2.352l-.491.523V4.559l.491-.523zm-.838.174l.52-.522h-2.34l-.492.522h2.312z"/></defs></svg>