<?xml version="1.0" encoding="UTF-8"?>
<!DOCTYPE svg PUBLIC "-//W3C//DTD SVG 1.1//EN" "http://www.w3.org/Graphics/SVG/1.1/DTD/svg11.dtd">
<!-- Creator: CorelDRAW -->
<svg xmlns="http://www.w3.org/2000/svg" xml:space="preserve" width="110.798mm" height="19.2654mm" version="1.1" style="shape-rendering:geometricPrecision; text-rendering:geometricPrecision; image-rendering:optimizeQuality; fill-rule:evenodd; clip-rule:evenodd"
viewBox="0 0 11079.3 1926.45"
 xmlns:xlink="http://www.w3.org/1999/xlink"
 xmlns:xodm="http://www.corel.com/coreldraw/odm/2003">
 <defs>
  <style type="text/css">
   <![CDATA[
    .str0 {stroke:#B01C2E;stroke-width:7.62;stroke-miterlimit:10}
    .fil0 {fill:#B12330;fill-rule:nonzero}
   ]]>
  </style>
 </defs>
 <g id="Слой_x0020_1">
  <metadata id="CorelCorpID_0Corel-Layer"/>
  <path class="fil0 str0" d="M1792.44 442.75l-433.22 1364.38c-12.11,36.52 -29.18,64.53 -51.33,83.7 -24.19,21.23 -53.58,31.8 -88.05,31.8 -67.99,0 -114.64,-39.16 -139.89,-117.22l-432.7 -1362.74 16.78 1115.63c0,44.54 6.51,77.19 19.44,97.73 26.58,42.32 97.41,18.43 145.8,13.19 13.02,-1.27 22.43,-1.84 27.71,-1.84 18.22,0 34.76,2.8 49.57,8.51 15.2,5.82 28.54,14.53 39.51,26.17l1.35 1.65c9.94,10.74 17.28,22.65 22.26,35.53 5.16,13.57 7.66,28.13 7.66,43.81 0,35.56 -14.49,63.93 -43.35,85.35 -13.47,9.97 -28.37,17.55 -44.29,22.76 -15.93,5.14 -32.71,7.67 -50.39,7.67l-682.58 0c-43.06,0 -78.84,-9.51 -107.08,-28.48 -15.31,-10.27 -26.81,-22.88 -34.58,-37.9 -7.45,-14.53 -11.26,-31.09 -11.26,-49.4 0,-16.1 3.11,-31.01 9.29,-44.85 6.22,-13.87 15.55,-26.44 27.84,-37.51 12.64,-11.32 27.42,-19.75 43.99,-25.27 16.14,-5.32 34.15,-8.04 54,-8.04 78.37,0 108.13,26.94 186.04,0.88 14.49,-4.87 24.11,-10.47 28.98,-16.87 5.77,-7.85 10.23,-19.19 13.02,-33.61l0.2 -0.8c2.91,-15.98 4.05,-35.34 3.11,-58.02l-0.09 -1211.9c0,-41.96 -7.15,-70.44 -21.64,-85.46 -5.98,-6.21 -15.81,-11.12 -29.36,-14.72 -51.45,-13.37 -98.17,-0.33 -150.05,5.14 -13.84,1.15 -23.99,1.84 -30.21,1.84 -43.14,0 -76.46,-9.89 -99.63,-29.44 -23.59,-20.08 -35.49,-48.83 -35.49,-86.34 0,-18.21 3.81,-34.77 11.26,-49.3l0.94 -1.45c7.57,-14.34 18.95,-26.56 33.64,-36.45 14.37,-9.66 30.71,-16.83 48.92,-21.58 17.72,-4.56 37.17,-6.98 58.17,-6.98l540.5 -2.52c31.35,-0.11 57.84,7.27 79.16,21.88 21.09,14.45 36.43,35.65 45.94,63.17l403.3 1273.63 391.84 -1273.63c9.41,-27.6 24.72,-48.72 45.84,-63.17 21.33,-14.61 47.81,-21.99 79.17,-21.99l540.59 2.72c43.06,-0.09 78.63,9.5 106.99,28.47 15.22,10.19 26.8,22.88 34.46,37.9 7.54,14.53 11.38,31.09 11.38,49.3 0,37.4 -11.91,66.26 -35.4,86.23 -23.26,19.66 -56.58,29.55 -99.73,29.55 -12.52,0 -38.71,-2.34 -78.54,-6.87 -43.03,-4.59 -101.25,-16.15 -131.1,14.61 -6.6,6.98 -11.88,17.05 -15.52,30.13 -4.02,14.74 -6.22,33.22 -6.22,55.33l-0.08 1213.74c-0.83,22.19 0.32,41.19 3.4,56.98l0.12 0.85c2.78,14.06 7.12,25.02 12.81,32.65 33.7,44 136.09,23.02 184.92,17.94 13.85,-1.27 24,-1.84 30.21,-1.84 19.74,0 37.87,2.72 54,8.04 16.78,5.61 31.56,13.95 43.97,25.19 12.23,10.95 21.64,23.53 27.83,37.59 6.22,13.84 9.33,28.75 9.33,44.85 0,18.31 -3.84,34.87 -11.29,49.4 -7.75,15.02 -19.33,27.63 -34.55,37.9 -14.38,9.58 -30.74,16.83 -48.96,21.5 -17.77,4.64 -37.25,6.98 -58.04,6.98l-682.67 0c-17.69,0 -34.55,-2.53 -50.39,-7.67l-2.17 -0.76c-15.02,-5.06 -29.07,-12.5 -42,-22 -14.49,-10.66 -25.38,-23.26 -32.71,-37.79 -7.15,-14.33 -10.76,-30.23 -10.76,-47.56 0,-32.08 10.44,-58.99 31.24,-80.99 10.96,-11.64 24.22,-20.35 39.42,-26.17 14.9,-5.71 31.47,-8.51 49.68,-8.51 49.51,0 76.09,13.18 127.26,13.18 20.47,0 35.9,-8.16 46.13,-24.42 12.94,-20.73 19.48,-53.38 19.48,-97.84l16.86 -1115.54zm3417.5 742.06l-2.99 374.24c-0.85,22.95 0.2,42.51 3.4,58.71l0.2 0.85c2.7,14.06 7.04,25.02 12.73,32.65 4.87,6.51 14.58,12.11 28.98,16.98 62.62,20.84 92.13,7.6 155.91,0.96 13.88,-1.27 24.11,-1.84 30.21,-1.84 19.77,0 37.87,2.72 54.03,8.04 16.75,5.61 31.44,13.95 43.97,25.19l1.55 1.53c11.5,10.58 20.27,22.69 26.2,36.06 6.18,13.84 9.41,28.75 9.41,44.85 0,18.31 -3.84,34.87 -11.41,49.4 -7.65,15.02 -19.24,27.63 -34.55,37.9 -14.28,9.58 -30.62,16.83 -48.84,21.5 -17.8,4.64 -37.13,6.98 -58.16,6.98l-715.05 0c-43.06,0 -78.64,-9.51 -106.99,-28.48 -15.31,-10.27 -26.81,-22.88 -34.55,-37.9 -7.45,-14.53 -11.29,-31.09 -11.29,-49.4 0,-16.1 3.11,-31.01 9.33,-44.85 6.21,-13.87 15.51,-26.44 27.83,-37.51 12.73,-11.32 27.31,-19.75 43.97,-25.27 16.13,-5.32 34.14,-8.04 54.02,-8.04 12.41,0 38.6,2.33 78.52,6.86 51.18,5.47 55.5,11.37 107.61,-5.98 14.4,-4.87 24.02,-10.47 28.77,-16.98l0.73 -0.96c5.49,-7.74 9.71,-18.7 12.41,-32.54l0.09 -0.8c3.02,-15.98 4.05,-35.34 3.22,-58.02l0 -1211.9c0,-22.11 -2.17,-40.5 -6.21,-55.22 -3.73,-13.27 -8.89,-23.35 -15.52,-30.24 -6.01,-6.21 -15.84,-11.12 -29.39,-14.72 -51.15,-13.4 -98.43,-0.3 -150.02,5.14 -13.87,1.15 -24.11,1.84 -30.21,1.84 -43.26,0 -76.46,-9.89 -99.66,-29.44 -23.58,-20.08 -35.49,-48.83 -35.49,-86.34 0,-18.21 3.84,-34.77 11.29,-49.3l0.82 -1.45c7.77,-14.34 19.04,-26.56 33.73,-36.45 14.4,-9.66 30.62,-16.83 48.96,-21.58 17.8,-4.67 37.13,-6.98 58.04,-6.98l903.78 0c172.08,0 316.2,32.93 432.61,98.62 70.78,37.02 123.62,93.21 158.82,168.28 34.34,73.32 51.53,164.95 51.53,274.63 0,123.9 -19.48,225.73 -58.37,305.45 -39.95,81.98 -100.16,140.46 -180.55,175.53l-1.35 0.61c-61.86,27.02 -133.97,47.37 -216.45,60.82 -82.56,13.57 -175.15,20.35 -277.81,20.35l-245.01 0c-22.35,0 -38.4,4.37 -48.11,12.99 -9.73,8.71 -14.6,23.15 -14.6,43.2l-0.09 2.03zm62.8 -279.11l224.42 0c46.87,0 89.08,-1.73 126.64,-5.14 37.46,-3.37 70.9,-8.51 99.96,-15.18 34.47,-8.16 64.56,-20.27 90.02,-36.25 25.13,-15.88 46.25,-35.76 63.12,-59.57l0.73 -1.18c16.87,-24.11 30.62,-54.81 41.06,-91.94 10.77,-38.45 18.22,-83.71 22.06,-135.41 0,-66.87 -9.33,-121.78 -27.75,-164.79 -17.6,-40.89 -43.67,-71.12 -78.1,-90.4l-2.17 -1.35c-76.06,-44.38 -177.15,-66.57 -303.07,-66.57 -72.44,0 -131.3,2.15 -176.73,6.51 -43.65,4.07 -74.59,9.97 -92.72,17.72l-1.32 0.49c-15.54,6.48 -27.33,17.36 -35.28,32.16 -9.01,16.97 -13.58,39.74 -13.58,68.02l0 486.69c0,22.19 4.16,37.21 12.23,45.15 3.11,2.91 8.27,5.52 15.4,7.36l0.93 0.3c8.89,2.23 20.3,3.38 34.15,3.38zm3281.87 761.65c19.77,0 37.78,2.72 53.91,8.04 16.87,5.61 31.68,14.04 44.09,25.19 12.2,10.95 21.61,23.53 27.83,37.59l0.53 1.15c5.78,13.57 8.77,28.21 8.77,43.7 0,38.17 -13.84,67.33 -41.39,87.38 -25.95,18.89 -63.11,28.4 -111.53,28.4l-629.38 0c-88.16,0 -132.24,-37.71 -132.24,-113.05 0,-34.61 11.91,-62.59 35.7,-83.82l1.67 -1.45c11.47,-9.86 24.73,-17.53 39.42,-22.58 15.19,-5.22 31.65,-7.93 49.57,-7.93 39.51,1.95 52.24,6.45 91.77,7.93 11.27,0 17.9,-2.61 19.86,-7.82 1.15,-3.68 1.35,-7.47 0.21,-11.35 -1.56,-5.24 -5.17,-11.04 -10.77,-17.24l-499.13 -590.08 -189.96 172.45 -0.21 334.31c-0.7,22.46 -0.08,41.85 2.17,58.13 2.09,15.11 5.49,26.73 10.06,34.77 3.41,6.02 9.83,11.23 19.45,15.52 54.26,24.25 94.48,-1.84 152.6,-1.84 19.68,0 37.66,2.69 53.91,8.02 16.86,5.52 31.68,13.95 44.08,25.21 12.2,10.93 21.62,23.53 27.84,37.48l0.52 1.27c5.78,13.56 8.8,28.09 8.8,43.69 0,18.31 -3.84,34.76 -11.38,49.4 -7.68,14.91 -19.27,27.6 -34.58,37.79 -28.24,19.09 -63.94,28.56 -106.87,28.56l-311.53 -0.08c-32.38,0.88 -80.39,1.54 -143.71,1.92 -71.51,0.6 -124.67,0.8 -212.64,0.8 -43.02,0 -78.63,-9.51 -106.98,-28.48 -15.31,-10.27 -26.9,-22.88 -34.55,-37.9 -7.54,-14.53 -11.27,-31.09 -11.27,-49.4 0,-16.1 3.08,-31.01 9.3,-44.85 6.22,-13.87 15.43,-26.44 27.83,-37.51 12.62,-11.32 27.31,-19.75 43.88,-25.27 16.25,-5.32 34.26,-8.04 54.12,-8.04 50.83,0 177.53,34.32 214.89,-15.99 5.9,-7.85 10.24,-19.19 13.06,-33.61l0.2 -0.8c2.99,-15.98 4.02,-35.34 3.2,-58.02l-0.09 -1211.9c0,-22.11 -2.08,-40.5 -6.13,-55.22 -3.81,-13.27 -8.89,-23.35 -15.52,-30.24 -5.98,-6.21 -15.92,-11.12 -29.47,-14.72 -51.16,-13.4 -98.38,-0.3 -149.93,5.14 -13.96,1.15 -24.11,1.84 -30.21,1.84 -43.26,0 -76.47,-9.89 -99.64,-29.44 -23.7,-20.08 -35.49,-48.83 -35.49,-86.34 0,-18.21 3.82,-34.77 11.27,-49.3l0.82 -1.45c7.65,-14.34 18.94,-26.56 33.73,-36.45 14.28,-9.66 30.65,-16.83 48.86,-21.58 17.78,-4.67 37.25,-6.98 58.13,-6.98 240.68,0 427.33,-1.07 667.89,-2.63 42.94,0 78.64,9.5 106.87,28.58 15.31,10.28 27.02,22.96 34.58,37.79 7.54,14.64 11.38,31.09 11.38,49.41 0,37.4 -11.9,66.26 -35.6,86.23 -23.09,19.55 -56.29,29.44 -99.55,29.44 -6.4,0 -16.13,-0.58 -28.95,-1.84 -36.11,-4.2 -111.86,-26.17 -137.2,8.54 -5.48,7.44 -9.83,18.2 -12.85,31.85 -3.4,15.03 -5.07,33.34 -5.07,54.65l0 538.04 631.05 -582.61c13.75,-15.49 23.29,-28.56 28.36,-38.94 3.31,-6.67 4.55,-10.76 3.81,-12.11 -0.61,-1.54 -2.67,-2.99 -6.19,-4.26 -6.83,-2.52 -17.07,-3.79 -30.41,-3.79l-17.92 1.46c-34.44,4.34 -49.01,11.73 -82.77,11.73 -19.77,0 -37.87,-2.92 -54.24,-8.63 -16.95,-5.82 -31.76,-14.72 -44.17,-26.44 -12.2,-11.54 -21.41,-24.61 -27.51,-39.14 -6.1,-14.44 -9.21,-30.04 -9.21,-46.9 0,-73.52 51.01,-110.42 152.8,-110.42l659.09 0c48.13,0 85.06,8.9 110.92,26.72 27.83,19.09 41.91,47.1 41.91,83.71 0,16.86 -2.99,32.46 -9.21,46.9 -6.1,14.53 -15.31,27.6 -27.54,39.14 -12.49,11.72 -27.19,20.62 -44.05,26.44 -16.46,5.71 -34.58,8.63 -54.32,8.63 -42.8,0 -62.51,-13.19 -103.68,-13.19 -7.77,0.31 -11.58,0.69 -19.47,1.95 -7.95,2.12 -11.59,3.11 -19.24,6.1l-17.81 9.01 -8.15 5.52c-228.15,172.06 -452.88,411.25 -663.02,603.91 207.77,243.94 416.86,487.21 622.25,732.57 14.17,15.79 28.98,31.61 43.88,46.9l9 7.86 9.71 6.97 11.38 7.17 10.56 5.71c7.65,3.1 9.21,3.87 16.98,5.6l9.83 0.61c45.99,0 71.48,-13.18 118.45,-13.18zm1701.92 -1545.54l490.16 1459.81c7.12,20.93 15.1,38.17 23.58,51.63 7.65,12.3 15.84,21.23 24.2,26.83 8.59,5.71 19.15,10 31.55,13.1 45.14,10.46 55.85,-0.14 100.49,-4.29 10.65,-1.07 19.24,-1.53 25.67,-1.53 36.72,0 66.64,10.73 89.48,32.46 11.59,10.73 20.18,24.03 25.79,39.4 5.36,14.56 8.06,30.93 8.06,49.13 0,37.02 -15.31,65.2 -45.73,84.4 -27.62,17.32 -67.37,26.06 -118.98,26.06l-579.22 0c-37.57,0 -69.63,-9.7 -96.12,-29.09 -14.08,-10.16 -24.63,-22.95 -31.67,-37.98 -6.93,-14.41 -10.36,-30.7 -10.36,-48.71 0,-16.56 3.02,-32.08 8.8,-46.03 6.01,-14.53 15.02,-27.1 26.93,-37.79 11.67,-10.46 25.13,-18.48 39.92,-23.92l1.55 -0.49c14.28,-4.92 29.71,-7.44 46.17,-7.44 30.62,0 121.03,25.29 136.35,-3.99l0.41 -0.76c6.74,-13.57 6.01,-35.95 -2.06,-66.85l-77.2 -241.71 -563.26 0 -77.08 241.71c-8.39,31.58 -8.92,54.05 -1.76,67.61l0.41 0.77c5.28,9.12 17.16,13.76 35.37,13.76 41.59,0 59.48,-10.54 100.69,-10.54 34.56,0 63.74,10.65 87.53,31.85 11.91,10.88 21.03,23.45 27.01,37.79 5.81,13.95 8.68,29.47 8.68,46.03 0,18.01 -3.4,34.3 -10.23,48.71 -7.13,15.03 -17.81,27.82 -31.77,37.98 -26.37,19.39 -58.46,29.09 -96.03,29.09l-579.31 0c-51.62,0 -91.24,-8.74 -118.86,-26.06 -30.54,-19.2 -45.73,-47.38 -45.73,-84.4 0,-37.78 11.26,-67.42 33.73,-88.64l1.44 -1.16c11.17,-10.27 24.11,-18.01 38.8,-23.26 14.9,-5.32 31.36,-7.93 49.37,-7.93 62.53,0 102.7,30.53 155.82,-15.33 21.62,-18.59 38.28,-47.45 49.74,-86.39 161.43,-481.97 326.02,-963.13 487.46,-1445.1 13.34,-37.98 34.02,-66.84 61.77,-86.5l1.76 -1.18c28.04,-19.36 62.39,-29.06 102.82,-29.06 81.54,0 136.06,39.05 163.48,116.73l0.41 1.27zm-163.89 325.79l-211.05 680.26 422.25 0 -211.2 -680.26zm-6283.31 1451.19l-715.08 0c-43.05,0 -78.75,-9.51 -106.98,-28.48 -15.31,-10.27 -26.9,-22.88 -34.56,-37.9 -7.56,-14.53 -11.29,-31.09 -11.29,-49.4 0,-16.1 3.11,-31.01 9.33,-44.85 6.22,-13.87 15.43,-26.44 27.83,-37.51 12.62,-11.32 27.31,-19.75 43.97,-25.27 16.16,-5.32 34.14,-8.04 54.03,-8.04 78.37,0 108.13,26.94 186.03,0.88 14.49,-4.87 24.11,-10.47 28.86,-16.87 5.9,-7.85 10.24,-19.19 13.03,-33.61l0.23 -0.8c2.99,-15.98 4.02,-35.34 3.2,-58.02l-0.12 -1211.9c0,-22.11 -2.05,-40.5 -6.1,-55.22 -3.81,-13.27 -8.89,-23.35 -15.52,-30.24 -6.01,-6.21 -15.92,-11.12 -29.47,-14.72 -51.21,-13.4 -98.29,-0.3 -149.93,5.14 -13.87,1.15 -24.11,1.84 -30.21,1.84 -43.26,0 -76.47,-9.89 -99.67,-29.44 -23.67,-20.08 -35.49,-48.83 -35.49,-86.34 0,-18.21 3.84,-34.77 11.29,-49.3l0.83 -1.45c7.65,-14.34 18.94,-26.56 33.73,-36.45 14.28,-9.66 30.62,-16.83 48.83,-21.58 17.81,-4.67 37.25,-6.98 58.16,-6.98l715.08 0c43.03,0 78.73,9.59 106.96,28.56 15.23,10.19 26.81,22.88 34.47,37.9 7.65,14.53 11.38,31.09 11.38,49.3 0,37.51 -11.79,66.26 -35.49,86.34 -23.09,19.55 -56.41,29.44 -99.55,29.44 -12.53,0 -38.69,-2.34 -78.64,-6.87 -42.91,-4.56 -101.3,-16.15 -130.98,14.61 -14.49,15.02 -21.73,43.5 -21.73,85.46l-0.21 1213.74c-0.73,22.19 0.41,41.19 3.52,56.98l0.12 0.85c2.79,14.06 7.01,25.02 12.82,32.65 27.16,36.28 96.44,27.55 136.46,22.96l48.43 -5.02c13.87,-1.27 24.02,-1.84 30.21,-1.84 19.77,0 37.78,2.72 54.03,8.04 16.74,5.61 31.44,13.95 43.96,25.19l1.47 1.53c11.47,10.58 20.38,22.69 26.28,36.06 6.19,13.84 9.3,28.75 9.3,44.85 0,18.31 -3.73,34.87 -11.27,49.4 -7.65,15.02 -19.27,27.63 -34.58,37.9 -14.28,9.58 -30.62,16.83 -48.83,21.5 -17.81,4.64 -37.25,6.98 -58.14,6.98z"/>
 </g>
</svg>
