<svg width="1741" height="5961" viewBox="0 0 1741 5961" fill="none" xmlns="http://www.w3.org/2000/svg">
<path d="M1704.39 5428.46V5440.54H1692.31V5452.63H1680.22V5464.72H1668.13V5476.8H1656.05V5488.89H1643.96V5500.97H1631.88V5513.06H1619.79V5525.15H1607.71V5537.23H1619.79V5549.32H1631.88V5561.4H1643.96V5573.49H1656.05V5585.57H1668.13V5597.66H1680.22V5609.75H1692.31V5621.83H1704.39V5633.91H1716.48V5646H1704.39H1692.31H1680.22H1668.13H1656.05H1643.96V5633.91H1631.88V5646H1619.79V5633.91H1631.88V5621.83H1643.96V5609.75H1631.88H1619.79H1607.71V5621.83V5633.91V5646H1595.62H1583.54H1571.45H1559.37V5633.91H1547.28V5621.83H1535.2V5609.75H1523.11V5621.83H1511.03V5633.91H1498.94V5646H1486.85H1474.77H1462.68H1450.6V5633.91V5621.83V5609.75H1438.51H1426.43H1414.34V5621.83H1426.43V5633.91H1438.51V5646H1426.43V5633.91H1414.34V5646H1402.25H1390.17H1378.08H1366H1353.91H1341.83V5633.91H1353.91V5621.83H1366V5609.75H1378.08V5597.66H1390.17V5585.57H1402.25V5573.49H1414.34V5561.4H1426.43V5549.32H1438.51V5537.23H1450.6V5525.15H1438.51V5513.06H1426.43V5500.97H1414.34V5488.89H1402.25V5476.8H1390.17V5464.72H1378.08V5452.63H1366V5440.54H1353.91V5428.46H1341.83V5416.38H1353.91H1366H1378.08H1390.17H1402.25H1414.34V5428.46H1426.43V5416.38H1438.51V5428.46H1426.43V5440.54H1414.34V5452.63H1426.43H1438.51H1450.6V5440.54V5428.46V5416.38H1462.68H1474.77H1486.85H1498.94V5428.46H1511.03V5440.54H1523.11V5452.63H1535.2V5440.54H1547.28V5428.46H1559.37V5416.38H1571.45H1583.54H1595.62H1607.71V5428.46V5440.54V5452.63H1619.79H1631.88H1643.96V5440.54H1631.88V5428.46H1619.79V5416.38H1631.88V5428.46H1643.96V5416.38H1656.05H1668.13H1680.22H1692.31H1704.39H1716.48V5428.46H1704.39ZM1547.28 5863.54V5875.62H1535.2V5887.71H1523.11V5875.62H1511.03V5863.54H1523.11V5851.45H1535.2V5863.54H1547.28ZM1547.28 5791.02V5803.11H1535.2V5815.19H1523.11V5803.11H1511.03V5791.02H1523.11V5778.94H1535.2V5791.02H1547.28ZM1547.28 5718.51V5730.6H1535.2V5742.68H1523.11V5730.6H1511.03V5718.51H1523.11V5706.42H1535.2V5718.51H1547.28ZM1329.75 5718.51V5730.6H1317.66V5742.68H1305.58V5730.6H1293.49V5718.51H1305.58V5706.42H1317.66V5718.51H1329.75ZM1112.21 5863.54V5875.62H1100.12V5887.71H1088.04V5875.62H1075.95V5863.54H1088.04V5851.45H1100.12V5863.54H1112.21ZM1112.21 5791.02V5803.11H1100.12V5815.19H1088.04V5803.11H1075.95V5791.02H1088.04V5778.94H1100.12V5791.02H1112.21ZM1112.21 5718.51V5730.6H1100.12V5742.68H1088.04V5730.6H1075.95V5718.51H1088.04V5706.42H1100.12V5718.51H1112.21ZM894.675 5718.51V5730.6H882.588V5742.68H870.5V5730.6H858.417V5718.51H870.5V5706.42H882.588V5718.51H894.675ZM677.138 5863.54V5875.62H665.054V5887.71H652.967V5875.62H640.883V5863.54H652.967V5851.45H665.054V5863.54H677.138ZM677.138 5791.02V5803.11H665.054V5815.19H652.967V5803.11H640.883V5791.02H652.967V5778.94H665.054V5791.02H677.138ZM677.138 5718.51V5730.6H665.054V5742.68H652.967V5730.6H640.883V5718.51H652.967V5706.42H665.054V5718.51H677.138ZM459.6 5718.51V5730.6H447.521V5742.68H435.429V5730.6H423.346V5718.51H435.429V5706.42H447.521V5718.51H459.6ZM242.062 5863.54V5875.62H229.979V5887.71H217.891V5875.62H205.808V5863.54H217.891V5851.45H229.979V5863.54H242.062ZM242.062 5791.02V5803.11H229.979V5815.19H217.891V5803.11H205.808V5791.02H217.891V5778.94H229.979V5791.02H242.062ZM242.062 5718.51V5730.6H229.979V5742.68H217.891V5730.6H205.808V5718.51H217.891V5706.42H229.979V5718.51H242.062ZM48.6994 5633.91V5621.83H60.7871V5609.75H72.8704V5597.66H84.9578V5585.57H97.0412V5573.49H109.129V5561.4H121.212V5549.32H133.3V5537.23H145.383V5525.15H133.3V5513.06H121.212V5500.97H109.129V5488.89H97.0412V5476.8H84.9578V5464.72H72.8704V5452.63H60.7871V5440.54H48.6994V5428.46H36.6163V5416.38H48.6994H60.7871H72.8704H84.9578H97.0412H109.129V5428.46H121.212V5416.38H133.3V5428.46H121.212V5440.54H109.129V5452.63H121.212H133.3H145.383V5440.54V5428.46V5416.38H157.466H169.554H181.637H193.725V5428.46H205.808V5440.54H217.891V5452.63H229.979V5440.54H242.062V5428.46H254.15V5416.38H266.233H278.321H290.404H302.491V5428.46V5440.54V5452.63H314.579H326.662H338.75V5440.54H326.662V5428.46H314.579V5416.38H326.662V5428.46H338.75V5416.38H350.833H362.921H375.004H387.092H399.17H411.258V5428.46H399.17V5440.54H387.092V5452.63H375.004V5464.72H362.921V5476.8H350.833V5488.89H338.75V5500.97H326.662V5513.06H314.579V5525.15H302.491V5537.23H314.579V5549.32H326.662V5561.4H338.75V5573.49H350.833V5585.57H362.921V5597.66H375.004V5609.75H387.092V5621.83H399.17V5633.91H411.258V5646H399.17H387.092H375.004H362.921H350.833H338.75V5633.91H326.662V5646H314.579V5633.91H326.662V5621.83H338.75V5609.75H326.662H314.579H302.491V5621.83V5633.91V5646H290.404H278.321H266.233H254.15V5633.91H242.062V5621.83H229.979V5609.75H217.891V5621.83H205.808V5633.91H193.725V5646H181.637H169.554H157.466H145.383V5633.91V5621.83V5609.75H133.3H121.212H109.129V5621.83H121.212V5633.91H133.3V5646H121.212V5633.91H109.129V5646H97.0412H84.9578H72.8704H60.7871H48.6994H36.6163V5633.91H48.6994ZM229.979 5428.46H217.891V5416.38H229.979V5428.46ZM652.967 5633.91H665.054V5646H652.967V5633.91ZM846.329 5621.83V5609.75H834.246V5597.66H822.158V5585.57H810.075V5573.49H797.987V5561.4H785.904V5549.32H773.821V5537.23H761.733V5525.15H773.821V5513.06H785.904V5500.97H797.987V5488.89H810.075V5476.8H822.158V5464.72H834.246V5452.63H846.329V5440.54H858.417V5428.46H870.5V5440.54H882.588V5428.46H894.675V5440.54H906.758V5452.63H918.846V5464.72H930.929V5476.8H943.017V5488.89H955.1V5500.97H967.184V5513.06H979.271V5525.15H991.354V5537.23H979.271V5549.32H967.184V5561.4H955.1V5573.49H943.017V5585.57H930.929V5597.66H918.846V5609.75H906.758V5621.83H894.675V5633.91H882.588V5621.83H870.5V5633.91H858.417V5621.83H846.329ZM1088.04 5633.91H1100.12V5646H1088.04V5633.91ZM1100.12 5428.46H1088.04V5416.38H1100.12V5428.46ZM991.354 5428.46V5416.38H1003.44V5428.46H991.354V5440.54H979.271V5452.63H991.354H1003.44H1015.53V5440.54V5428.46V5416.38H1027.61H1039.69H1051.78H1063.87V5428.46H1075.95V5440.54H1088.04V5452.63H1100.12V5440.54H1112.21V5428.46H1124.29V5416.38H1136.38H1148.46H1160.55H1172.64V5428.46V5440.54V5452.63H1184.72H1196.81H1208.89V5440.54H1196.81V5428.46H1184.72V5416.38H1196.81V5428.46H1208.89V5416.38H1220.98H1233.06H1245.15H1257.23H1269.32H1281.4V5428.46H1269.32V5440.54H1257.23V5452.63H1245.15V5464.72H1233.06V5476.8H1220.98V5488.89H1208.89V5500.97H1196.81V5513.06H1184.72V5525.15H1172.64V5537.23H1184.72V5549.32H1196.81V5561.4H1208.89V5573.49H1220.98V5585.57H1233.06V5597.66H1245.15V5609.75H1257.23V5621.83H1269.32V5633.91H1281.4V5646H1269.32H1257.23H1245.15H1233.06H1220.98H1208.89V5633.91H1196.81V5646H1184.72V5633.91H1196.81V5621.83H1208.89V5609.75H1196.81H1184.72H1172.64V5621.83V5633.91V5646H1160.55H1148.46H1136.38H1124.29V5633.91H1112.21V5621.83H1100.12V5609.75H1088.04V5621.83H1075.95V5633.91H1063.87V5646H1051.78H1039.69H1027.61H1015.53V5633.91V5621.83V5609.75H1003.44H991.354H979.271V5621.83H991.354V5633.91H1003.44V5646H991.354V5633.91H979.271V5646H967.184H955.1H943.017H930.929H918.846H906.758V5633.91H918.846V5621.83H930.929V5609.75H943.017V5597.66H955.1V5585.57H967.184V5573.49H979.271V5561.4H991.354V5549.32H1003.44V5537.23H1015.53V5525.15H1003.44V5513.06H991.354V5500.97H979.271V5488.89H967.184V5476.8H955.1V5464.72H943.017V5452.63H930.929V5440.54H918.846V5428.46H906.758V5416.38H918.846H930.929H943.017H955.1H967.184H979.271V5428.46H991.354ZM665.054 5428.46H652.967V5416.38H665.054V5428.46ZM556.283 5428.46V5416.38H568.366V5428.46H556.283V5440.54H544.196V5452.63H556.283H568.366H580.454V5440.54V5428.46V5416.38H592.542H604.625H616.713H628.796V5428.46H640.883V5440.54H652.967V5452.63H665.054V5440.54H677.138V5428.46H689.225V5416.38H701.313H713.396H725.479H737.562V5428.46V5440.54V5452.63H749.65H761.733H773.821V5440.54H761.733V5428.46H749.65V5416.38H761.733V5428.46H773.821V5416.38H785.904H797.987H810.075H822.158H834.246H846.329V5428.46H834.246V5440.54H822.158V5452.63H810.075V5464.72H797.987V5476.8H785.904V5488.89H773.821V5500.97H761.733V5513.06H749.65V5525.15H737.562V5537.23H749.65V5549.32H761.733V5561.4H773.821V5573.49H785.904V5585.57H797.987V5597.66H810.075V5609.75H822.158V5621.83H834.246V5633.91H846.329V5646H834.246H822.158H810.075H797.987H785.904H773.821V5633.91H761.733V5646H749.65V5633.91H761.733V5621.83H773.821V5609.75H761.733H749.65H737.562V5621.83V5633.91V5646H725.479H713.396H701.313H689.225V5633.91H677.138V5621.83H665.054V5609.75H652.967V5621.83H640.883V5633.91H628.796V5646H616.713H604.625H592.542H580.454V5633.91V5621.83V5609.75H568.366H556.283H544.196V5621.83H556.283V5633.91H568.366V5646H556.283V5633.91H544.196V5646H532.112H520.029H507.946H495.858H483.771H471.687V5633.91H483.771V5621.83H495.858V5609.75H507.946V5597.66H520.029V5585.57H532.112V5573.49H544.196V5561.4H556.283V5549.32H568.366V5537.23H580.454V5525.15H568.366V5513.06H556.283V5500.97H544.196V5488.89H532.112V5476.8H520.029V5464.72H507.946V5452.63H495.858V5440.54H483.771V5428.46H471.687V5416.38H483.771H495.858H507.946H520.029H532.112H544.196V5428.46H556.283ZM411.258 5621.83V5609.75H399.17V5597.66H387.092V5585.57H375.004V5573.49H362.921V5561.4H350.833V5549.32H338.75V5537.23H326.662V5525.15H338.75V5513.06H350.833V5500.97H362.921V5488.89H375.004V5476.8H387.092V5464.72H399.17V5452.63H411.258V5440.54H423.346V5428.46H435.429V5440.54H447.521V5428.46H459.6V5440.54H471.687V5452.63H483.771V5464.72H495.858V5476.8H507.946V5488.89H520.029V5500.97H532.112V5513.06H544.196V5525.15H556.283V5537.23H544.196V5549.32H532.112V5561.4H520.029V5573.49H507.946V5585.57H495.858V5597.66H483.771V5609.75H471.687V5621.83H459.6V5633.91H447.521V5621.83H435.429V5633.91H423.346V5621.83H411.258ZM217.891 5633.91H229.979V5646H217.891V5633.91ZM1523.11 5633.91H1535.2V5646H1523.11V5633.91ZM1341.83 5440.54V5452.63H1353.91V5464.72H1366V5476.8H1378.08V5488.89H1390.17V5500.97H1402.25V5513.06H1414.34V5525.15H1426.43V5537.23H1414.34V5549.32H1402.25V5561.4H1390.17V5573.49H1378.08V5585.57H1366V5597.66H1353.91V5609.75H1341.83V5621.83H1329.75V5633.91H1317.66V5621.83H1305.58V5633.91H1293.49V5621.83H1281.4V5609.75H1269.32V5597.66H1257.23V5585.57H1245.15V5573.49H1233.06V5561.4H1220.98V5549.32H1208.89V5537.23H1196.81V5525.15H1208.89V5513.06H1220.98V5500.97H1233.06V5488.89H1245.15V5476.8H1257.23V5464.72H1269.32V5452.63H1281.4V5440.54H1293.49V5428.46H1305.58V5440.54H1317.66V5428.46H1329.75V5440.54H1341.83ZM1535.2 5428.46H1523.11V5416.38H1535.2V5428.46ZM1728.57 5392.2H0.357655V5440.54H12.441V5428.46H24.5286V5440.54H36.6163V5452.63H48.6994V5464.72H60.7871V5476.8H72.8704V5488.89H84.9578V5500.97H97.0412V5513.06H109.129V5525.15H121.212V5537.23H109.129V5549.32H97.0412V5561.4H84.9578V5573.49H72.8704V5585.57H60.7871V5597.66H48.6994V5609.75H36.6163V5621.83H24.5286V5633.91H12.441V5621.83H0.357655V5633.91V5646V5658.08V5670.17V5682.25V5694.34V5706.42H12.441V5718.51H24.5286V5730.6H12.441V5742.68H0.357655V5754.77V5766.85V5778.94V5791.02V5803.11H12.441V5815.19H24.5286V5827.28H36.6163V5839.36H48.6994V5827.28H60.7871V5815.19H48.6994V5803.11H36.6163V5791.02H24.5286V5778.94H12.441V5766.85H24.5286V5754.77H36.6163V5742.68H48.6994V5730.6H60.7871V5718.51H48.6994V5706.42H36.6163V5694.34H24.5286V5682.25H36.6163H48.6994H60.7871H72.8704H84.9578H97.0412V5694.34H109.129V5706.42H121.212V5694.34H133.3V5682.25H145.383H157.466H169.554H181.637H193.725H205.808V5694.34H193.725V5706.42H181.637V5718.51H169.554V5730.6H181.637V5742.68H193.725V5754.77H205.808V5766.85H193.725V5778.94H181.637V5791.02H169.554V5803.11H157.466V5815.19H145.383V5803.11H133.3V5791.02H145.383V5778.94H157.466V5766.85H145.383V5754.77H133.3V5766.85H121.212V5778.94H109.129V5791.02H97.0412V5803.11H109.129V5815.19H121.212V5827.28H133.3V5839.36H145.383V5851.45H157.466V5839.36H169.554V5827.28H181.637V5815.19H193.725V5827.28H205.808V5839.36H193.725V5851.45H181.637V5863.54H169.554V5875.62H157.466V5887.71H145.383V5899.79H133.3V5911.88H121.212V5923.96H133.3V5936.05H145.383V5923.96H157.466V5911.88H169.554V5899.79H181.637V5887.71H193.725V5899.79H205.808V5911.88H193.725V5923.96H181.637V5936.05H169.554V5948.13H181.637V5960.22H193.725V5948.13H205.808V5936.05H217.891V5923.96H229.979V5936.05H242.062V5948.13H254.15V5960.22H266.233V5948.13H278.321V5936.05H266.233V5923.96H254.15V5911.88H242.062V5899.79H254.15V5887.71H266.233V5899.79H278.321V5911.88H290.404V5923.96H302.491V5936.05H314.579V5923.96H326.662V5911.88H314.579V5899.79H302.491V5887.71H290.404V5875.62H278.321V5863.54H266.233V5851.45H254.15V5839.36H242.062V5827.28H254.15V5815.19H266.233V5827.28H278.321V5839.36H290.404V5851.45H302.491V5839.36H314.579V5827.28H326.662V5815.19H338.75V5803.11H350.833V5791.02H338.75V5778.94H326.662V5766.85H314.579V5754.77H302.491V5766.85H290.404V5778.94H302.491V5791.02H314.579V5803.11H302.491V5815.19H290.404V5803.11H278.321V5791.02H266.233V5778.94H254.15V5766.85H242.062V5754.77H254.15V5742.68H266.233V5730.6H278.321V5718.51H266.233V5706.42H254.15V5694.34H242.062V5682.25H254.15H266.233H278.321H290.404H302.491H314.579V5694.34H326.662V5706.42H338.75V5694.34H350.833V5682.25H362.921H375.004H387.092H399.17H411.258H423.346V5694.34H411.258V5706.42H399.17V5718.51H387.092V5730.6H399.17V5742.68H411.258V5754.77H423.346V5766.85H435.429V5778.94H423.346V5791.02H411.258V5803.11H399.17V5815.19H387.092V5827.28H399.17V5839.36H411.258V5827.28H423.346V5815.19H435.429V5803.11H447.521V5815.19H459.6V5827.28H471.687V5839.36H483.771V5827.28H495.858V5815.19H483.771V5803.11H471.687V5791.02H459.6V5778.94H447.521V5766.85H459.6V5754.77H471.687V5742.68H483.771V5730.6H495.858V5718.51H483.771V5706.42H471.687V5694.34H459.6V5682.25H471.687H483.771H495.858H507.946H520.029H532.112V5694.34H544.196V5706.42H556.283V5694.34H568.366V5682.25H580.454H592.542H604.625H616.713H628.796H640.883V5694.34H628.796V5706.42H616.713V5718.51H604.625V5730.6H616.713V5742.68H628.796V5754.77H640.883V5766.85H628.796V5778.94H616.713V5791.02H604.625V5803.11H592.542V5815.19H580.454V5803.11H568.366V5791.02H580.454V5778.94H592.542V5766.85H580.454V5754.77H568.366V5766.85H556.283V5778.94H544.196V5791.02H532.112V5803.11H544.196V5815.19H556.283V5827.28H568.366V5839.36H580.454V5851.45H592.542V5839.36H604.625V5827.28H616.713V5815.19H628.796V5827.28H640.883V5839.36H628.796V5851.45H616.713V5863.54H604.625V5875.62H592.542V5887.71H580.454V5899.79H568.366V5911.88H556.283V5923.96H568.366V5936.05H580.454V5923.96H592.542V5911.88H604.625V5899.79H616.713V5887.71H628.796V5899.79H640.883V5911.88H628.796V5923.96H616.713V5936.05H604.625V5948.13H616.713V5960.22H628.796V5948.13H640.883V5936.05H652.967V5923.96H665.054V5936.05H677.138V5948.13H689.225V5960.22H701.313V5948.13H713.396V5936.05H701.313V5923.96H689.225V5911.88H677.138V5899.79H689.225V5887.71H701.313V5899.79H713.396V5911.88H725.479V5923.96H737.562V5936.05H749.65V5923.96H761.733V5911.88H749.65V5899.79H737.562V5887.71H725.479V5875.62H713.396V5863.54H701.313V5851.45H689.225V5839.36H677.138V5827.28H689.225V5815.19H701.313V5827.28H713.396V5839.36H725.479V5851.45H737.562V5839.36H749.65V5827.28H761.733V5815.19H773.821V5803.11H785.904V5791.02H773.821V5778.94H761.733V5766.85H749.65V5754.77H737.562V5766.85H725.479V5778.94H737.562V5791.02H749.65V5803.11H737.562V5815.19H725.479V5803.11H713.396V5791.02H701.313V5778.94H689.225V5766.85H677.138V5754.77H689.225V5742.68H701.313V5730.6H713.396V5718.51H701.313V5706.42H689.225V5694.34H677.138V5682.25H689.225H701.313H713.396H725.479H737.562H749.65V5694.34H761.733V5706.42H773.821V5694.34H785.904V5682.25H797.987H810.075H822.158H834.246H846.329H858.417V5694.34H846.329V5706.42H834.246V5718.51H822.158V5730.6H834.246V5742.68H846.329V5754.77H858.417V5766.85H870.5V5778.94H858.417V5791.02H846.329V5803.11H834.246V5815.19H822.158V5827.28H834.246V5839.36H846.329V5827.28H858.417V5815.19H870.5V5803.11H882.588V5815.19H894.675V5827.28H906.758V5839.36H918.846V5827.28H930.929V5815.19H918.846V5803.11H906.758V5791.02H894.675V5778.94H882.588V5766.85H894.675V5754.77H906.758V5742.68H918.846V5730.6H930.929V5718.51H918.846V5706.42H906.758V5694.34H894.675V5682.25H906.758H918.846H930.929H943.017H955.1H967.184V5694.34H979.271V5706.42H991.354V5694.34H1003.44V5682.25H1015.53H1027.61H1039.69H1051.78H1063.87H1075.95V5694.34H1063.87V5706.42H1051.78V5718.51H1039.69V5730.6H1051.78V5742.68H1063.87V5754.77H1075.95V5766.85H1063.87V5778.94H1051.78V5791.02H1039.69V5803.11H1027.61V5815.19H1015.53V5803.11H1003.44V5791.02H1015.53V5778.94H1027.61V5766.85H1015.53V5754.77H1003.44V5766.85H991.354V5778.94H979.271V5791.02H967.184V5803.11H979.271V5815.19H991.354V5827.28H1003.44V5839.36H1015.53V5851.45H1027.61V5839.36H1039.69V5827.28H1051.78V5815.19H1063.87V5827.28H1075.95V5839.36H1063.87V5851.45H1051.78V5863.54H1039.69V5875.62H1027.61V5887.71H1015.53V5899.79H1003.44V5911.88H991.354V5923.96H1003.44V5936.05H1015.53V5923.96H1027.61V5911.88H1039.69V5899.79H1051.78V5887.71H1063.87V5899.79H1075.95V5911.88H1063.87V5923.96H1051.78V5936.05H1039.69V5948.13H1051.78V5960.22H1063.87V5948.13H1075.95V5936.05H1088.04V5923.96H1100.12V5936.05H1112.21V5948.13H1124.29V5960.22H1136.38V5948.13H1148.46V5936.05H1136.38V5923.96H1124.29V5911.88H1112.21V5899.79H1124.29V5887.71H1136.38V5899.79H1148.46V5911.88H1160.55V5923.96H1172.64V5936.05H1184.72V5923.96H1196.81V5911.88H1184.72V5899.79H1172.64V5887.71H1160.55V5875.62H1148.46V5863.54H1136.38V5851.45H1124.29V5839.36H1112.21V5827.28H1124.29V5815.19H1136.38V5827.28H1148.46V5839.36H1160.55V5851.45H1172.64V5839.36H1184.72V5827.28H1196.81V5815.19H1208.89V5803.11H1220.98V5791.02H1208.89V5778.94H1196.81V5766.85H1184.72V5754.77H1172.64V5766.85H1160.55V5778.94H1172.64V5791.02H1184.72V5803.11H1172.64V5815.19H1160.55V5803.11H1148.46V5791.02H1136.38V5778.94H1124.29V5766.85H1112.21V5754.77H1124.29V5742.68H1136.38V5730.6H1148.46V5718.51H1136.38V5706.42H1124.29V5694.34H1112.21V5682.25H1124.29H1136.38H1148.46H1160.55H1172.64H1184.72V5694.34H1196.81V5706.42H1208.89V5694.34H1220.98V5682.25H1233.06H1245.15H1257.23H1269.32H1281.4H1293.49V5694.34H1281.4V5706.42H1269.32V5718.51H1257.23V5730.6H1269.32V5742.68H1281.4V5754.77H1293.49V5766.85H1305.58V5778.94H1293.49V5791.02H1281.4V5803.11H1269.32V5815.19H1257.23V5827.28H1269.32V5839.36H1281.4V5827.28H1293.49V5815.19H1305.58V5803.11H1317.66V5815.19H1329.75V5827.28H1341.83V5839.36H1353.91V5827.28H1366V5815.19H1353.91V5803.11H1341.83V5791.02H1329.75V5778.94H1317.66V5766.85H1329.75V5754.77H1341.83V5742.68H1353.91V5730.6H1366V5718.51H1353.91V5706.42H1341.83V5694.34H1329.75V5682.25H1341.83H1353.91H1366H1378.08H1390.17H1402.25V5694.34H1414.34V5706.42H1426.43V5694.34H1438.51V5682.25H1450.6H1462.68H1474.77H1486.85H1498.94H1511.03V5694.34H1498.94V5706.42H1486.85V5718.51H1474.77V5730.6H1486.85V5742.68H1498.94V5754.77H1511.03V5766.85H1498.94V5778.94H1486.85V5791.02H1474.77V5803.11H1462.68V5815.19H1450.6V5803.11H1438.51V5791.02H1450.6V5778.94H1462.68V5766.85H1450.6V5754.77H1438.51V5766.85H1426.43V5778.94H1414.34V5791.02H1402.25V5803.11H1414.34V5815.19H1426.43V5827.28H1438.51V5839.36H1450.6V5851.45H1462.68V5839.36H1474.77V5827.28H1486.85V5815.19H1498.94V5827.28H1511.03V5839.36H1498.94V5851.45H1486.85V5863.54H1474.77V5875.62H1462.68V5887.71H1450.6V5899.79H1438.51V5911.88H1426.43V5923.96H1438.51V5936.05H1450.6V5923.96H1462.68V5911.88H1474.77V5899.79H1486.85V5887.71H1498.94V5899.79H1511.03V5911.88H1498.94V5923.96H1486.85V5936.05H1474.77V5948.13H1486.85V5960.22H1498.94V5948.13H1511.03V5936.05H1523.11V5923.96H1535.2V5936.05H1547.28V5948.13H1559.37V5960.22H1571.45V5948.13H1583.54V5936.05H1571.45V5923.96H1559.37V5911.88H1547.28V5899.79H1559.37V5887.71H1571.45V5899.79H1583.54V5911.88H1595.62V5923.96H1607.71V5936.05H1619.79V5923.96H1631.88V5911.88H1619.79V5899.79H1607.71V5887.71H1595.62V5875.62H1583.54V5863.54H1571.45V5851.45H1559.37V5839.36H1547.28V5827.28H1559.37V5815.19H1571.45V5827.28H1583.54V5839.36H1595.62V5851.45H1607.71V5839.36H1619.79V5827.28H1631.88V5815.19H1643.96V5803.11H1656.05V5791.02H1643.96V5778.94H1631.88V5766.85H1619.79V5754.77H1607.71V5766.85H1595.62V5778.94H1607.71V5791.02H1619.79V5803.11H1607.71V5815.19H1595.62V5803.11H1583.54V5791.02H1571.45V5778.94H1559.37V5766.85H1547.28V5754.77H1559.37V5742.68H1571.45V5730.6H1583.54V5718.51H1571.45V5706.42H1559.37V5694.34H1547.28V5682.25H1559.37H1571.45H1583.54H1595.62H1607.71H1619.79V5694.34H1631.88V5706.42H1643.96V5694.34H1656.05V5682.25H1668.13H1680.22H1692.31H1704.39H1716.48H1728.57V5694.34H1716.48V5706.42H1704.39V5718.51H1692.31V5730.6H1704.39V5742.68H1716.48V5754.77H1728.57V5766.85H1740.64V5754.77V5742.68V5730.6H1728.57V5718.51H1740.64V5706.42V5694.34V5682.25V5670.17V5658.08V5646V5633.91H1728.57V5621.83H1716.48V5609.75H1704.39V5597.66H1692.31V5585.57H1680.22V5573.49H1668.13V5561.4H1656.05V5549.32H1643.96V5537.23H1631.88V5525.15H1643.96V5513.06H1656.05V5500.97H1668.13V5488.89H1680.22V5476.8H1692.31V5464.72H1704.39V5452.63H1716.48V5440.54H1728.57V5428.46H1740.64V5416.38V5404.29V5392.2H1728.57Z" fill="white"/>
<path d="M1728.57 5392.2H0.357655V0.5H888.5H1740.64V5392.2H1728.57Z" fill="white"/>
<path d="M375.004 5778.94V5766.85H387.092V5778.94H375.004ZM399.17 5791.02V5754.77H362.921V5791.02H375.004H387.092H399.17Z" fill="white"/>
<path d="M507.946 5778.94H495.858V5766.85H507.946V5778.94ZM495.858 5754.77H483.771V5791.02H520.029V5778.94V5766.85V5754.77H507.946H495.858Z" fill="white"/>
<path d="M810.075 5778.94V5766.85H822.158V5778.94H810.075ZM834.245 5791.02V5754.77H797.987V5791.02H810.075H822.158H834.245Z" fill="white"/>
<path d="M943.017 5778.94H930.929V5766.85H943.017V5778.94ZM930.929 5754.77H918.846V5791.02H955.1V5778.94V5766.85V5754.77H943.017H930.929Z" fill="white"/>
<path d="M1245.15 5778.94V5766.85H1257.23V5778.94H1245.15ZM1269.32 5791.02V5754.77H1233.06V5791.02H1245.15H1257.23H1269.32Z" fill="white"/>
<path d="M1378.08 5778.94H1366V5766.85H1378.08V5778.94ZM1366 5754.77H1353.91V5791.02H1390.17V5778.94V5766.85V5754.77H1378.08H1366Z" fill="white"/>
<path d="M193.725 5513.06V5500.97H181.637V5488.89H193.725V5500.97H205.808V5513.06H217.891V5500.97V5488.89V5476.8H205.808V5464.72H193.725V5452.63H181.637V5464.72V5476.8H169.554V5488.89H157.466H145.383V5500.97H157.466V5513.06H169.554V5525.14H181.637H193.725H205.808V5513.06H193.725Z" fill="white"/>
<path d="M181.637 5597.66V5609.75H193.725V5597.66H205.808V5585.58H217.891V5573.49V5561.4V5549.32H205.808V5561.4H193.725V5573.49H181.637V5561.4H193.725V5549.32H205.808V5537.23H193.725H181.637H169.554V5549.32H157.466V5561.4H145.383V5573.49H157.466H169.554V5585.58H181.637V5597.66Z" fill="white"/>
<path d="M242.061 5500.97H254.149V5488.89H266.232V5500.97H254.149V5513.06H242.061V5525.14H254.149H266.232H278.32V5513.06H290.403V5500.97H302.491V5488.89H290.403H278.32V5476.8H266.232V5464.72V5452.63H254.149V5464.72H242.061V5476.8H229.978V5488.89V5500.97V5513.06H242.061V5500.97Z" fill="white"/>
<path d="M254.149 5549.32V5561.4H266.232V5573.49H254.149V5561.4H242.061V5549.32H229.978V5561.4V5573.49V5585.58H242.061V5597.66H254.149V5609.75H266.232V5597.66V5585.58H278.32V5573.49H290.403H302.491V5561.4H290.403V5549.32H278.32V5537.23H266.232H254.149H242.061V5549.32H254.149Z" fill="white"/>
<path d="M217.891 5549.32H229.979V5537.23H242.062V5525.15H229.979V5513.06H217.891V5525.15H205.808V5537.23H217.891V5549.32Z" fill="white"/>
<path d="M447.52 5863.54H435.428V5851.45H447.52V5863.54ZM459.599 5839.36H447.52V5827.28H435.428V5839.36H423.345V5851.45H411.257V5863.54H423.345V5875.62H435.428V5887.71H447.52V5875.62H459.599V5863.54H471.687V5851.45H459.599V5839.36Z" fill="white"/>
<path d="M435.429 5525.15H423.345V5537.23H435.429V5549.32H447.521V5537.23H459.6V5525.15H447.521V5513.06H435.429V5525.15Z" fill="white"/>
<path d="M628.796 5513.06V5500.97H616.713V5488.89H628.796V5500.97H640.883V5513.06H652.967V5500.97V5488.89V5476.8H640.883V5464.72H628.796V5452.63H616.713V5464.72V5476.8H604.625V5488.89H592.542H580.454V5500.97H592.542V5513.06H604.625V5525.14H616.713H628.796H640.883V5513.06H628.796Z" fill="white"/>
<path d="M616.713 5597.66V5609.75H628.796V5597.66H640.883V5585.58H652.967V5573.49V5561.4V5549.32H640.883V5561.4H628.796V5573.49H616.713V5561.4H628.796V5549.32H640.883V5537.23H628.796H616.713H604.625V5549.32H592.542V5561.4H580.454V5573.49H592.542H604.625V5585.58H616.713V5597.66Z" fill="white"/>
<path d="M677.137 5500.97H689.225V5488.89H701.313V5500.97H689.225V5513.06H677.137V5525.14H689.225H701.313H713.396V5513.06H725.479V5500.97H737.562V5488.89H725.479H713.396V5476.8H701.313V5464.72V5452.63H689.225V5464.72H677.137V5476.8H665.054V5488.89V5500.97V5513.06H677.137V5500.97Z" fill="white"/>
<path d="M689.225 5549.32V5561.4H701.313V5573.49H689.225V5561.4H677.137V5549.32H665.054V5561.4V5573.49V5585.58H677.137V5597.66H689.225V5609.75H701.313V5597.66V5585.58H713.396V5573.49H725.479H737.562V5561.4H725.479V5549.32H713.396V5537.23H701.313H689.225H677.137V5549.32H689.225Z" fill="white"/>
<path d="M652.966 5549.32H665.054V5537.23H677.137V5525.15H665.054V5513.06H652.966V5525.15H640.883V5537.23H652.966V5549.32Z" fill="white"/>
<path d="M882.588 5863.54H870.5V5851.45H882.588V5863.54ZM894.675 5839.36H882.588V5827.28H870.5V5839.36H858.417V5851.45H846.329V5863.54H858.417V5875.62H870.5V5887.71H882.588V5875.62H894.675V5863.54H906.758V5851.45H894.675V5839.36Z" fill="white"/>
<path d="M870.5 5525.15H858.417V5537.23H870.5V5549.32H882.588V5537.23H894.675V5525.15H882.588V5513.06H870.5V5525.15Z" fill="white"/>
<path d="M1063.87 5513.06V5500.97H1051.78V5488.89H1063.87V5500.97H1075.95V5513.06H1088.04V5500.97V5488.89V5476.8H1075.95V5464.72H1063.87V5452.63H1051.78V5464.72V5476.8H1039.69V5488.89H1027.61H1015.52V5500.97H1027.61V5513.06H1039.69V5525.14H1051.78H1063.87H1075.95V5513.06H1063.87Z" fill="white"/>
<path d="M1051.78 5597.66V5609.75H1063.87V5597.66H1075.95V5585.58H1088.04V5573.49V5561.4V5549.32H1075.95V5561.4H1063.87V5573.49H1051.78V5561.4H1063.87V5549.32H1075.95V5537.23H1063.87H1051.78H1039.69V5549.32H1027.61V5561.4H1015.52V5573.49H1027.61H1039.69V5585.58H1051.78V5597.66Z" fill="white"/>
<path d="M1112.21 5500.97H1124.29V5488.89H1136.38V5500.97H1124.29V5513.06H1112.21V5525.14H1124.29H1136.38H1148.46V5513.06H1160.55V5500.97H1172.64V5488.89H1160.55H1148.46V5476.8H1136.38V5464.72V5452.63H1124.29V5464.72H1112.21V5476.8H1100.12V5488.89V5500.97V5513.06H1112.21V5500.97Z" fill="white"/>
<path d="M1124.29 5549.32V5561.4H1136.38V5573.49H1124.29V5561.4H1112.21V5549.32H1100.12V5561.4V5573.49V5585.58H1112.21V5597.66H1124.29V5609.75H1136.38V5597.66V5585.58H1148.46V5573.49H1160.55H1172.64V5561.4H1160.55V5549.32H1148.46V5537.23H1136.38H1124.29H1112.21V5549.32H1124.29Z" fill="white"/>
<path d="M1088.04 5549.32H1100.12V5537.23H1112.21V5525.15H1100.12V5513.06H1088.04V5525.15H1075.95V5537.23H1088.04V5549.32Z" fill="white"/>
<path d="M1317.66 5863.54H1305.58V5851.45H1317.66V5863.54ZM1329.75 5839.36H1317.66V5827.28H1305.58V5839.36H1293.49V5851.45H1281.41V5863.54H1293.49V5875.62H1305.58V5887.71H1317.66V5875.62H1329.75V5863.54H1341.83V5851.45H1329.75V5839.36Z" fill="white"/>
<path d="M1317.66 5537.23H1329.75V5525.15H1317.66V5513.06H1305.58V5525.15H1293.49V5537.23H1305.58V5549.32H1317.66V5537.23Z" fill="white"/>
<path d="M1535.2 5513.06H1523.11V5525.15H1511.03V5537.23H1523.11V5549.32H1535.2V5537.23H1547.28V5525.15H1535.2V5513.06Z" fill="white"/>
<path d="M1498.94 5513.06V5500.97H1486.85V5488.89H1498.94V5500.97H1511.03V5513.06H1523.11V5500.97V5488.89V5476.8H1511.03V5464.72H1498.94V5452.63H1486.85V5464.72V5476.8H1474.77V5488.89H1462.68H1450.6V5500.97H1462.68V5513.06H1474.77V5525.14H1486.85H1498.94H1511.03V5513.06H1498.94Z" fill="white"/>
<path d="M1511.03 5561.4H1498.94V5573.49H1486.85V5561.4H1498.94V5549.32H1511.03V5537.23H1498.94H1486.85H1474.77V5549.32H1462.68V5561.4H1450.6V5573.49H1462.68H1474.77V5585.58H1486.85V5597.66V5609.75H1498.94V5597.66H1511.03V5585.58H1523.11V5573.49V5561.4V5549.32H1511.03V5561.4Z" fill="white"/>
<path d="M1571.45 5464.72V5452.63H1559.37V5464.72H1547.28V5476.8H1535.2V5488.89V5500.97V5513.06H1547.28V5500.97H1559.37V5488.89H1571.45V5500.97H1559.37V5513.06H1547.28V5525.14H1559.37H1571.45H1583.54V5513.06H1595.62V5500.97H1607.71V5488.89H1595.62H1583.54V5476.8H1571.45V5464.72Z" fill="white"/>
<path d="M1559.37 5549.32V5561.4H1571.45V5573.49H1559.37V5561.4H1547.28V5549.32H1535.2V5561.4V5573.49V5585.58H1547.28V5597.66H1559.37V5609.75H1571.45V5597.66V5585.58H1583.54V5573.49H1595.62H1607.71V5561.4H1595.62V5549.32H1583.54V5537.23H1571.45H1559.37H1547.28V5549.32H1559.37Z" fill="white"/>
<path d="M133.299 5464.72V5476.8H169.554V5440.55H157.466V5452.63H145.383V5464.72H133.299Z" fill="white"/>
<path d="M157.466 5621.83H169.554V5585.58H133.299V5597.66H145.383V5609.75H157.466V5621.83Z" fill="white"/>
<path d="M290.404 5440.55H278.321V5476.8H314.579V5464.72H302.491V5452.63H290.404V5440.55Z" fill="white"/>
<path d="M314.579 5597.66V5585.58H278.321V5621.83H290.404V5609.75H302.491V5597.66H314.579Z" fill="white"/>
<path d="M447.521 5488.89V5500.97H459.6V5513.06H471.687V5525.15H483.771V5537.23H471.687V5549.32H459.6V5561.4H447.521V5573.49H435.429V5561.4H423.346V5549.32H411.258V5537.23H399.17V5525.15H411.258V5513.06H423.346V5500.97H435.429V5488.89H447.521ZM435.429 5585.57V5597.66H447.521V5585.57H459.6H471.687V5573.49H483.771V5561.4H495.858V5549.32H507.946V5537.23H520.029V5525.15H507.946V5513.06H495.858V5500.97H483.771V5488.89H471.687V5476.8H459.6H447.521V5464.72H435.429V5476.8H423.346H411.258V5488.89H399.17V5500.97H387.092V5513.06H375.004V5525.15H362.921V5537.23H375.004V5549.32H387.092V5561.4H399.17V5573.49H411.258V5585.57H423.346H435.429Z" fill="white"/>
<path d="M568.366 5464.72V5476.8H604.625V5440.55H592.542V5452.63H580.454V5464.72H568.366Z" fill="white"/>
<path d="M592.542 5621.83H604.625V5585.58H568.366V5597.66H580.454V5609.75H592.542V5621.83Z" fill="white"/>
<path d="M725.479 5440.55H713.396V5476.8H749.65V5464.72H737.562V5452.63H725.479V5440.55Z" fill="white"/>
<path d="M749.65 5597.66V5585.58H713.396V5621.83H725.479V5609.75H737.562V5597.66H749.65Z" fill="white"/>
<path d="M882.587 5488.89V5500.97H894.675V5513.06H906.758V5525.15H918.846V5537.23H906.758V5549.32H894.675V5561.4H882.587V5573.49H870.499V5561.4H858.416V5549.32H846.329V5537.23H834.245V5525.15H846.329V5513.06H858.416V5500.97H870.499V5488.89H882.587ZM870.499 5585.57V5597.66H882.587V5585.57H894.675H906.758V5573.49H918.846V5561.4H930.929V5549.32H943.017V5537.23H955.1V5525.15H943.017V5513.06H930.929V5500.97H918.846V5488.89H906.758V5476.8H894.675H882.587V5464.72H870.499V5476.8H858.416H846.329V5488.89H834.245V5500.97H822.158V5513.06H810.075V5525.15H797.987V5537.23H810.075V5549.32H822.158V5561.4H834.245V5573.49H846.329V5585.57H858.416H870.499Z" fill="white"/>
<path d="M1003.44 5464.72V5476.8H1039.69V5440.55H1027.61V5452.63H1015.53V5464.72H1003.44Z" fill="white"/>
<path d="M1027.61 5621.83H1039.69V5585.58H1003.44V5597.66H1015.53V5609.75H1027.61V5621.83Z" fill="white"/>
<path d="M1160.55 5440.55H1148.46V5476.8H1184.72V5464.72H1172.64V5452.63H1160.55V5440.55Z" fill="white"/>
<path d="M1184.72 5597.66V5585.58H1148.46V5621.83H1160.55V5609.75H1172.64V5597.66H1184.72Z" fill="white"/>
<path d="M1438.51 5464.72V5476.8H1474.77V5440.55H1462.68V5452.63H1450.6V5464.72H1438.51Z" fill="white"/>
<path d="M1462.68 5621.83H1474.77V5585.58H1438.51V5597.66H1450.6V5609.75H1462.68V5621.83Z" fill="white"/>
<path d="M1595.62 5440.55H1583.54V5476.8H1619.79V5464.72H1607.71V5452.63H1595.62V5440.55Z" fill="white"/>
<path d="M1619.79 5597.66V5585.58H1583.54V5621.83H1595.62V5609.75H1607.71V5597.66H1619.79Z" fill="white"/>
<path d="M1305.58 5573.49V5561.4H1293.49V5549.32H1281.41V5537.23H1269.32V5525.15H1281.41V5513.06H1293.49V5500.97H1305.58V5488.89H1317.66V5500.97H1329.75V5513.06H1341.83V5525.15H1353.91V5537.23H1341.83V5549.32H1329.75V5561.4H1317.66V5573.49H1305.58ZM1317.66 5476.8V5464.72H1305.58V5476.8H1293.49H1281.41V5488.89H1269.32V5500.97H1257.23V5513.06H1245.15V5525.15H1233.06V5537.23H1245.15V5549.32H1257.23V5561.4H1269.32V5573.49H1281.41V5585.57H1293.49H1305.58V5597.66H1317.66V5585.57H1329.75H1341.83V5573.49H1353.91V5561.4H1366V5549.32H1378.08V5537.23H1390.17V5525.15H1378.08V5513.06H1366V5500.97H1353.91V5488.89H1341.83V5476.8H1329.75H1317.66Z" fill="white"/>
</svg>
