<svg width="74" height="59" viewBox="0 0 74 59" fill="none" xmlns="http://www.w3.org/2000/svg">
<path d="M69.6764 22.3373C71.8096 26.9365 73 32.0625 73 37.4661C73 43.3401 71.5932 48.8853 69.098 53.7837C67.8864 56.1625 65.3356 57.4661 62.666 57.4661H11.334C8.66452 57.4661 6.11356 56.1625 4.90188 53.7837C2.4068 48.8853 1 43.3401 1 37.4661C1 17.5838 17.1178 1.46606 37 1.46606C42.2924 1.46606 47.318 2.60811 51.844 4.65923M39.8284 34.6381C38.2664 33.0761 35.7336 33.0761 34.1716 34.6381C32.6096 36.2001 32.6096 38.7329 34.1716 40.2949C35.7336 41.8569 38.2664 41.8569 39.8284 40.2949C41.3904 38.7329 41.3904 36.2001 39.8284 34.6381ZM39.8284 34.6381L65.2844 9.18226" stroke="#212121" stroke-width="2" stroke-linecap="round" stroke-linejoin="round"/>
</svg>
