<svg width="38" height="57" viewBox="0 0 38 57" fill="none" xmlns="http://www.w3.org/2000/svg">
<path d="M36.7449 22.7736L32.7339 19.2648C31.7767 18.4283 30.5482 17.9663 29.2777 17.9663H22.4999V16.2163H31.2499C33.1837 16.2163 34.7499 14.6501 34.7499 12.7163V7.46631C34.7499 5.53256 33.1837 3.96631 31.2499 3.96631H22.4999V2.21631C22.4999 1.25031 21.7159 0.466309 20.7499 0.466309H17.2499C16.2839 0.466309 15.4999 1.25031 15.4999 2.21631V3.96631H8.72215C7.45165 3.96631 6.22315 4.42831 5.2659 5.26481L1.2549 8.77356C0.458652 9.47006 0.458652 10.7108 1.2549 11.4073L5.2659 14.9161C6.22315 15.7543 7.45165 16.2163 8.72215 16.2163H15.4999V17.9663H6.7499C4.81615 17.9663 3.2499 19.5326 3.2499 21.4663V26.7163C3.2499 28.6501 4.81615 30.2163 6.7499 30.2163H15.4999V54.7163C15.4999 55.6823 16.2839 56.4663 17.2499 56.4663H20.7499C21.7159 56.4663 22.4999 55.6823 22.4999 54.7163V30.2163H29.2777C30.5499 30.2163 31.7784 29.7543 32.7357 28.9178L36.7467 25.4091C37.5412 24.7108 37.5411 23.4718 36.7449 22.7736ZM17.2499 2.21631H20.7499V3.96631H17.2499V2.21631ZM6.4174 13.6001L2.40815 10.0913L6.4174 6.58256C7.05615 6.02431 7.87515 5.71631 8.72215 5.71631H31.2499C32.2142 5.71631 32.9999 6.50206 32.9999 7.46631V12.7163C32.9999 13.6806 32.2142 14.4663 31.2499 14.4663H8.72215C7.87515 14.4663 7.05615 14.1583 6.4174 13.6001ZM17.2499 16.2163H20.7499V17.9663H17.2499V16.2163ZM20.7499 54.7163H17.2499V30.2163H20.7499V54.7163ZM31.5824 27.6001C30.9437 28.1583 30.1247 28.4663 29.2777 28.4663H6.7499C5.78565 28.4663 4.9999 27.6806 4.9999 26.7163V21.4663C4.9999 20.5021 5.78565 19.7163 6.7499 19.7163H29.2777C30.1264 19.7163 30.9437 20.0243 31.5824 20.5826L35.5934 24.0913L31.5824 27.6001ZM25.9999 24.0913C25.9999 24.5743 25.6079 24.9663 25.1249 24.9663H12.8749C12.3919 24.9663 11.9999 24.5743 11.9999 24.0913C11.9999 23.6083 12.3919 23.2163 12.8749 23.2163H25.1249C25.6079 23.2163 25.9999 23.6083 25.9999 24.0913ZM25.9999 10.0913C25.9999 10.5743 25.6079 10.9663 25.1249 10.9663H12.8749C12.3919 10.9663 11.9999 10.5743 11.9999 10.0913C11.9999 9.60831 12.3919 9.21631 12.8749 9.21631H25.1249C25.6079 9.21631 25.9999 9.60831 25.9999 10.0913Z" fill="#212121"/>
</svg>
